<mxfile host="65bd71144e">
    <diagram id="1YYO8B0gDi6Q-jbC-mth" name="A3CP Modules">
        <mxGraphModel dx="2734" dy="2091" grid="1" gridSize="10" guides="1" tooltips="1" connect="1" arrows="1" fold="1" page="1" pageScale="1" pageWidth="850" pageHeight="1100" math="0" shadow="0">
            <root>
                <mxCell id="0"/>
                <mxCell id="1" parent="0"/>
                <mxCell id="189" value="" style="whiteSpace=wrap;html=1;" parent="1" vertex="1">
                    <mxGeometry x="-240" y="-320" width="1730" height="1670" as="geometry"/>
                </mxCell>
                <mxCell id="109" value="" style="rounded=0;whiteSpace=wrap;html=1;" parent="1" vertex="1">
                    <mxGeometry x="180" y="470" width="420" height="99" as="geometry"/>
                </mxCell>
                <mxCell id="99" value="" style="edgeStyle=none;html=1;" parent="1" source="96" target="10" edge="1">
                    <mxGeometry relative="1" as="geometry"/>
                </mxCell>
                <mxCell id="96" value="" style="rounded=0;whiteSpace=wrap;html=1;" parent="1" vertex="1">
                    <mxGeometry x="-80" y="250" width="760" height="120" as="geometry"/>
                </mxCell>
                <mxCell id="35" value="" style="shape=cylinder3;whiteSpace=wrap;html=1;boundedLbl=1;backgroundOutline=1;size=15;fillColor=#F7F7F7;" parent="1" vertex="1">
                    <mxGeometry x="780" y="140" width="310" height="560" as="geometry"/>
                </mxCell>
                <mxCell id="84" value="" style="edgeStyle=none;html=1;" parent="1" source="2" target="4" edge="1">
                    <mxGeometry relative="1" as="geometry"/>
                </mxCell>
                <mxCell id="2" value="audio_feed_worker" style="rounded=1;whiteSpace=wrap;html=1;strokeColor=#30BAFF;" parent="1" vertex="1">
                    <mxGeometry x="130" y="21" width="160" height="60" as="geometry"/>
                </mxCell>
                <mxCell id="85" style="edgeStyle=none;html=1;exitX=0.5;exitY=1;exitDx=0;exitDy=0;entryX=0.5;entryY=0;entryDx=0;entryDy=0;" parent="1" source="3" target="5" edge="1">
                    <mxGeometry relative="1" as="geometry"/>
                </mxCell>
                <mxCell id="93" style="edgeStyle=none;html=1;exitX=0.75;exitY=1;exitDx=0;exitDy=0;entryX=0.192;entryY=-0.028;entryDx=0;entryDy=0;entryPerimeter=0;" parent="1" source="3" target="7" edge="1">
                    <mxGeometry relative="1" as="geometry">
                        <mxPoint x="530" y="290" as="targetPoint"/>
                        <Array as="points">
                            <mxPoint x="430" y="120"/>
                            <mxPoint x="521" y="120"/>
                        </Array>
                    </mxGeometry>
                </mxCell>
                <mxCell id="3" value="camera_feed_worker" style="rounded=1;whiteSpace=wrap;html=1;strokeColor=#30BAFF;" parent="1" vertex="1">
                    <mxGeometry x="310" y="21" width="160" height="60" as="geometry"/>
                </mxCell>
                <mxCell id="88" value="" style="edgeStyle=none;html=1;" parent="1" source="4" target="6" edge="1">
                    <mxGeometry relative="1" as="geometry"/>
                </mxCell>
                <mxCell id="4" value="speech_transcriber" style="rounded=1;whiteSpace=wrap;html=1;strokeColor=#30BAFF;" parent="1" vertex="1">
                    <mxGeometry x="130" y="159" width="160" height="60" as="geometry"/>
                </mxCell>
                <mxCell id="30" value="" style="edgeStyle=none;html=1;exitX=0.853;exitY=1.021;exitDx=0;exitDy=0;entryX=0.556;entryY=-0.013;entryDx=0;entryDy=0;exitPerimeter=0;entryPerimeter=0;" parent="1" source="5" target="18" edge="1">
                    <mxGeometry relative="1" as="geometry">
                        <mxPoint x="490" y="210" as="sourcePoint"/>
                        <Array as="points">
                            <mxPoint x="446" y="230"/>
                            <mxPoint x="730" y="230"/>
                            <mxPoint x="730" y="50"/>
                            <mxPoint x="869" y="50"/>
                        </Array>
                    </mxGeometry>
                </mxCell>
                <mxCell id="89" value="" style="edgeStyle=none;html=1;" parent="1" source="5" target="8" edge="1">
                    <mxGeometry relative="1" as="geometry"/>
                </mxCell>
                <mxCell id="5" value="landmark_extractor" style="rounded=1;whiteSpace=wrap;html=1;strokeColor=#30BAFF;" parent="1" vertex="1">
                    <mxGeometry x="310" y="159" width="160" height="60" as="geometry"/>
                </mxCell>
                <mxCell id="6" value="speech_context_classifier" style="rounded=1;whiteSpace=wrap;html=1;strokeColor=#30BAFF;" parent="1" vertex="1">
                    <mxGeometry x="130" y="290" width="160" height="60" as="geometry"/>
                </mxCell>
                <mxCell id="7" value="visual_environment_classifier" style="rounded=1;whiteSpace=wrap;html=1;strokeColor=#30BAFF;" parent="1" vertex="1">
                    <mxGeometry x="490" y="290" width="160" height="60" as="geometry"/>
                </mxCell>
                <mxCell id="8" value="gesture_classifier" style="rounded=1;whiteSpace=wrap;html=1;strokeColor=#30BAFF;" parent="1" vertex="1">
                    <mxGeometry x="310" y="290" width="160" height="60" as="geometry"/>
                </mxCell>
                <mxCell id="9" value="sound_classifier" style="rounded=1;whiteSpace=wrap;html=1;strokeColor=#30BAFF;" parent="1" vertex="1">
                    <mxGeometry x="-50" y="290" width="160" height="60" as="geometry"/>
                </mxCell>
                <mxCell id="60" value="" style="edgeStyle=none;html=1;" parent="1" source="10" edge="1">
                    <mxGeometry relative="1" as="geometry">
                        <mxPoint x="300" y="470" as="targetPoint"/>
                    </mxGeometry>
                </mxCell>
                <mxCell id="148" style="edgeStyle=none;html=1;exitX=0.75;exitY=1;exitDx=0;exitDy=0;entryX=0.25;entryY=0;entryDx=0;entryDy=0;" parent="1" source="10" target="18" edge="1">
                    <mxGeometry relative="1" as="geometry">
                        <mxPoint x="570" y="419.9230769230767" as="targetPoint"/>
                        <Array as="points">
                            <mxPoint x="340" y="460"/>
                            <mxPoint x="760" y="460"/>
                            <mxPoint x="760" y="60"/>
                            <mxPoint x="820" y="60"/>
                        </Array>
                    </mxGeometry>
                </mxCell>
                <mxCell id="10" value="input_broker" style="rounded=1;whiteSpace=wrap;html=1;strokeColor=#30BAFF;" parent="1" vertex="1">
                    <mxGeometry x="220" y="390" width="160" height="60" as="geometry"/>
                </mxCell>
                <mxCell id="11" value="confidence_evaluator" style="rounded=1;whiteSpace=wrap;html=1;strokeColor=#30BAFF;" parent="1" vertex="1">
                    <mxGeometry x="220" y="490" width="160" height="60" as="geometry"/>
                </mxCell>
                <mxCell id="119" style="edgeStyle=none;html=1;exitX=0.559;exitY=1.011;exitDx=0;exitDy=0;entryX=0.5;entryY=0;entryDx=0;entryDy=0;exitPerimeter=0;" parent="1" source="12" target="23" edge="1">
                    <mxGeometry relative="1" as="geometry">
                        <Array as="points">
                            <mxPoint x="320" y="690"/>
                            <mxPoint x="510" y="690"/>
                        </Array>
                    </mxGeometry>
                </mxCell>
                <mxCell id="120" style="edgeStyle=none;html=1;exitX=0.5;exitY=1;exitDx=0;exitDy=0;entryX=0.5;entryY=0;entryDx=0;entryDy=0;" parent="1" source="12" target="13" edge="1">
                    <mxGeometry relative="1" as="geometry"/>
                </mxCell>
                <mxCell id="12" value="clarification_planner" style="rounded=1;whiteSpace=wrap;html=1;strokeColor=#30BAFF;" parent="1" vertex="1">
                    <mxGeometry x="230" y="600" width="160" height="60" as="geometry"/>
                </mxCell>
                <mxCell id="110" style="edgeStyle=none;html=1;exitX=0.5;exitY=1;exitDx=0;exitDy=0;entryX=0.5;entryY=0;entryDx=0;entryDy=0;" parent="1" source="13" target="14" edge="1">
                    <mxGeometry relative="1" as="geometry"/>
                </mxCell>
                <mxCell id="13" value="output_expander" style="rounded=1;whiteSpace=wrap;html=1;strokeColor=#30BAFF;" parent="1" vertex="1">
                    <mxGeometry x="230" y="720" width="160" height="60" as="geometry"/>
                </mxCell>
                <mxCell id="82" value="" style="edgeStyle=none;html=1;entryX=0.47;entryY=-0.002;entryDx=0;entryDy=0;entryPerimeter=0;" parent="1" source="14" target="168" edge="1">
                    <mxGeometry relative="1" as="geometry">
                        <mxPoint x="310" y="920" as="targetPoint"/>
                    </mxGeometry>
                </mxCell>
                <mxCell id="14" value="output_planner" style="rounded=1;whiteSpace=wrap;html=1;strokeColor=#30BAFF;" parent="1" vertex="1">
                    <mxGeometry x="230" y="820" width="160" height="60" as="geometry"/>
                </mxCell>
                <mxCell id="108" style="edgeStyle=none;html=1;exitX=0.25;exitY=1;exitDx=0;exitDy=0;entryX=0.75;entryY=0;entryDx=0;entryDy=0;" parent="1" source="15" target="11" edge="1">
                    <mxGeometry relative="1" as="geometry">
                        <Array as="points">
                            <mxPoint x="460" y="560"/>
                            <mxPoint x="410" y="560"/>
                            <mxPoint x="410" y="480"/>
                            <mxPoint x="340" y="480"/>
                        </Array>
                    </mxGeometry>
                </mxCell>
                <mxCell id="15" value="memory_integrator" style="rounded=1;whiteSpace=wrap;html=1;strokeColor=#FFC249;" parent="1" vertex="1">
                    <mxGeometry x="420" y="490" width="160" height="60" as="geometry"/>
                </mxCell>
                <mxCell id="122" style="edgeStyle=none;html=1;exitX=0.25;exitY=1;exitDx=0;exitDy=0;entryX=0.129;entryY=0.01;entryDx=0;entryDy=0;entryPerimeter=0;" parent="1" source="16" target="24" edge="1">
                    <mxGeometry relative="1" as="geometry">
                        <Array as="points">
                            <mxPoint x="910" y="570"/>
                            <mxPoint x="850" y="570"/>
                            <mxPoint x="850" y="350"/>
                            <mxPoint x="890" y="350"/>
                        </Array>
                    </mxGeometry>
                </mxCell>
                <mxCell id="160" style="edgeStyle=none;html=1;exitX=0.75;exitY=1;exitDx=0;exitDy=0;entryX=0.25;entryY=0;entryDx=0;entryDy=0;" parent="1" source="16" target="156" edge="1">
                    <mxGeometry relative="1" as="geometry">
                        <Array as="points">
                            <mxPoint x="990" y="550"/>
                            <mxPoint x="990" y="560"/>
                            <mxPoint x="1130" y="560"/>
                            <mxPoint x="1130" y="-80"/>
                            <mxPoint x="1190" y="-80"/>
                        </Array>
                    </mxGeometry>
                </mxCell>
                <mxCell id="16" value="feedback_log" style="rounded=1;whiteSpace=wrap;html=1;strokeColor=#FFC249;" parent="1" vertex="1">
                    <mxGeometry x="870" y="490" width="160" height="60" as="geometry"/>
                </mxCell>
                <mxCell id="17" value="session_manager" style="rounded=1;whiteSpace=wrap;html=2;strokeColor=#30BAFF;" parent="1" vertex="1">
                    <mxGeometry x="220" y="-68" width="160" height="60" as="geometry"/>
                </mxCell>
                <mxCell id="150" style="edgeStyle=none;html=1;entryX=0.25;entryY=0;entryDx=0;entryDy=0;exitX=0.439;exitY=0.985;exitDx=0;exitDy=0;exitPerimeter=0;" parent="1" source="18" target="100" edge="1">
                    <mxGeometry relative="1" as="geometry">
                        <Array as="points">
                            <mxPoint x="850" y="260"/>
                            <mxPoint x="910" y="260"/>
                        </Array>
                    </mxGeometry>
                </mxCell>
                <mxCell id="18" value="schema_recorder" style="rounded=1;whiteSpace=wrap;html=1;strokeColor=#30BAFF;" parent="1" vertex="1">
                    <mxGeometry x="780" y="76" width="160" height="60" as="geometry"/>
                </mxCell>
                <mxCell id="47" style="edgeStyle=none;html=1;entryX=0.961;entryY=0.01;entryDx=0;entryDy=0;exitX=0.25;exitY=1;exitDx=0;exitDy=0;entryPerimeter=0;" parent="1" source="21" target="96" edge="1">
                    <mxGeometry relative="1" as="geometry">
                        <mxPoint x="680" y="310" as="targetPoint"/>
                        <Array as="points">
                            <mxPoint x="910" y="251"/>
                            <mxPoint x="700" y="250"/>
                            <mxPoint x="700" y="210"/>
                            <mxPoint x="650" y="210"/>
                        </Array>
                    </mxGeometry>
                </mxCell>
                <mxCell id="161" style="edgeStyle=none;html=1;exitX=0.75;exitY=1;exitDx=0;exitDy=0;entryX=0.624;entryY=0.004;entryDx=0;entryDy=0;entryPerimeter=0;" parent="1" source="21" target="156" edge="1">
                    <mxGeometry relative="1" as="geometry">
                        <Array as="points">
                            <mxPoint x="990" y="260"/>
                            <mxPoint x="1050" y="260"/>
                            <mxPoint x="1050" y="-100"/>
                            <mxPoint x="1250" y="-100"/>
                        </Array>
                    </mxGeometry>
                </mxCell>
                <mxCell id="21" value="model_registry" style="rounded=1;whiteSpace=wrap;html=1;strokeColor=#30BAFF;" parent="1" vertex="1">
                    <mxGeometry x="870" y="180" width="160" height="60" as="geometry"/>
                </mxCell>
                <mxCell id="134" style="edgeStyle=none;html=1;exitX=0.25;exitY=1;exitDx=0;exitDy=0;entryX=0.5;entryY=0;entryDx=0;entryDy=0;" parent="1" source="22" target="21" edge="1">
                    <mxGeometry relative="1" as="geometry">
                        <Array as="points">
                            <mxPoint x="1190" y="120"/>
                            <mxPoint x="950" y="120"/>
                        </Array>
                    </mxGeometry>
                </mxCell>
                <mxCell id="22" value="model_trainer" style="rounded=1;whiteSpace=wrap;html=1;strokeColor=#30BAFF;" parent="1" vertex="1">
                    <mxGeometry x="1150" y="31" width="160" height="60" as="geometry"/>
                </mxCell>
                <mxCell id="136" style="edgeStyle=none;html=1;exitX=0.25;exitY=1;exitDx=0;exitDy=0;entryX=0.8;entryY=-0.02;entryDx=0;entryDy=0;entryPerimeter=0;" parent="1" source="23" target="13" edge="1">
                    <mxGeometry relative="1" as="geometry">
                        <Array as="points">
                            <mxPoint x="470" y="890"/>
                            <mxPoint x="410" y="890"/>
                            <mxPoint x="410" y="710"/>
                            <mxPoint x="360" y="710"/>
                        </Array>
                    </mxGeometry>
                </mxCell>
                <mxCell id="144" style="edgeStyle=none;html=1;exitX=0.667;exitY=1.022;exitDx=0;exitDy=0;entryX=0.75;entryY=0;entryDx=0;entryDy=0;exitPerimeter=0;" parent="1" source="23" target="16" edge="1">
                    <mxGeometry relative="1" as="geometry">
                        <Array as="points">
                            <mxPoint x="537" y="910"/>
                            <mxPoint x="1070" y="910"/>
                            <mxPoint x="1070" y="450"/>
                            <mxPoint x="990" y="450"/>
                        </Array>
                    </mxGeometry>
                </mxCell>
                <mxCell id="169" style="edgeStyle=none;html=1;exitX=0.5;exitY=1;exitDx=0;exitDy=0;entryX=0.75;entryY=0;entryDx=0;entryDy=0;" parent="1" source="23" target="168" edge="1">
                    <mxGeometry relative="1" as="geometry">
                        <Array as="points">
                            <mxPoint x="510" y="910"/>
                            <mxPoint x="353" y="910"/>
                        </Array>
                    </mxGeometry>
                </mxCell>
                <mxCell id="23" value="llm_clarifier" style="rounded=1;whiteSpace=wrap;html=1;strokeColor=#FFC249;" parent="1" vertex="1">
                    <mxGeometry x="430" y="820" width="160" height="60" as="geometry"/>
                </mxCell>
                <mxCell id="62" style="edgeStyle=none;html=1;entryX=0.75;entryY=0;entryDx=0;entryDy=0;exitX=0.25;exitY=1;exitDx=0;exitDy=0;" parent="1" source="24" target="15" edge="1">
                    <mxGeometry relative="1" as="geometry">
                        <Array as="points">
                            <mxPoint x="910" y="450"/>
                            <mxPoint x="540" y="450"/>
                        </Array>
                    </mxGeometry>
                </mxCell>
                <mxCell id="155" style="edgeStyle=none;html=1;exitX=0.772;exitY=0.946;exitDx=0;exitDy=0;entryX=0.807;entryY=0.03;entryDx=0;entryDy=0;entryPerimeter=0;exitPerimeter=0;" parent="1" source="24" target="137" edge="1">
                    <mxGeometry relative="1" as="geometry">
                        <Array as="points">
                            <mxPoint x="994" y="440"/>
                            <mxPoint x="1040" y="440"/>
                            <mxPoint x="1040" y="570"/>
                            <mxPoint x="1000" y="570"/>
                        </Array>
                    </mxGeometry>
                </mxCell>
                <mxCell id="24" value="memory_interface" style="rounded=1;whiteSpace=wrap;html=1;strokeColor=#FFC249;" parent="1" vertex="1">
                    <mxGeometry x="870" y="370" width="160" height="60" as="geometry"/>
                </mxCell>
                <mxCell id="25" value="Audio/Video Capture" style="text;strokeColor=none;align=center;fillColor=none;html=1;verticalAlign=middle;whiteSpace=wrap;rounded=0;" parent="1" vertex="1">
                    <mxGeometry x="50" width="60" height="30" as="geometry"/>
                </mxCell>
                <mxCell id="26" value="Feature Extractors" style="text;strokeColor=none;align=center;fillColor=none;html=1;verticalAlign=middle;whiteSpace=wrap;rounded=0;" parent="1" vertex="1">
                    <mxGeometry x="60" y="160" width="60" height="30" as="geometry"/>
                </mxCell>
                <mxCell id="34" value="" style="shape=stencil(VZDRDoMgDEW/hneFZe+bbnva076gSiMkqARxyt+vSLNsCSG9h/beBqGacW/QOSErq4VqhZS6q+km8Aa3YmEtROhgQaLPWa8OS8cSk+OOxYDPZZ+cnTQGoa6bsRFfHvrMtwCemImjI1VTySEYIu7Fg3M9BJziD1I3UV3oIZ+88APnEWNIpHnyVJXR9C83q6NhI8nMoB0Mu5+ZwVL08DWWR9ydo1VDNX/UQT4=);whiteSpace=wrap;html=1;" parent="1" vertex="1">
                    <mxGeometry x="22.666666666666668" y="1225.3333333333333" width="120" height="120" as="geometry"/>
                </mxCell>
                <mxCell id="50" value="Classifiers" style="text;strokeColor=none;align=center;fillColor=none;html=1;verticalAlign=middle;whiteSpace=wrap;rounded=0;" parent="1" vertex="1">
                    <mxGeometry x="-60" y="260" width="60" height="30" as="geometry"/>
                </mxCell>
                <mxCell id="139" style="edgeStyle=none;html=1;exitX=0.427;exitY=0.997;exitDx=0;exitDy=0;exitPerimeter=0;entryX=0.5;entryY=0;entryDx=0;entryDy=0;" parent="1" source="168" target="16" edge="1">
                    <mxGeometry relative="1" as="geometry">
                        <mxPoint x="350" y="960" as="sourcePoint"/>
                        <mxPoint x="1580" y="1030" as="targetPoint"/>
                        <Array as="points">
                            <mxPoint x="304" y="1040"/>
                            <mxPoint x="1200" y="1040"/>
                            <mxPoint x="1200" y="460"/>
                            <mxPoint x="950" y="460"/>
                        </Array>
                    </mxGeometry>
                </mxCell>
                <mxCell id="166" style="edgeStyle=none;html=1;entryX=0.835;entryY=-0.004;entryDx=0;entryDy=0;exitX=0.347;exitY=1.011;exitDx=0;exitDy=0;entryPerimeter=0;exitPerimeter=0;" parent="1" source="168" target="156" edge="1">
                    <mxGeometry relative="1" as="geometry">
                        <mxPoint x="340" y="980" as="sourcePoint"/>
                        <Array as="points">
                            <mxPoint x="292" y="1060"/>
                            <mxPoint x="1340" y="1070"/>
                            <mxPoint x="1340" y="-90"/>
                            <mxPoint x="1284" y="-90"/>
                        </Array>
                    </mxGeometry>
                </mxCell>
                <mxCell id="71" value="Communication Partner" style="shape=umlActor;verticalLabelPosition=bottom;verticalAlign=top;html=1;outlineConnect=0;" parent="1" vertex="1">
                    <mxGeometry x="150" y="920" width="30" height="60" as="geometry"/>
                </mxCell>
                <mxCell id="75" value="" style="edgeStyle=none;html=1;" parent="1" target="17" edge="1">
                    <mxGeometry relative="1" as="geometry">
                        <mxPoint x="300" y="-100" as="sourcePoint"/>
                    </mxGeometry>
                </mxCell>
                <mxCell id="72" value="user" style="shape=umlActor;verticalLabelPosition=bottom;verticalAlign=top;html=1;outlineConnect=0;" parent="1" vertex="1">
                    <mxGeometry x="285" y="-200" width="30" height="60" as="geometry"/>
                </mxCell>
                <mxCell id="86" value="" style="endArrow=classic;html=1;exitX=0.563;exitY=0.983;exitDx=0;exitDy=0;exitPerimeter=0;entryX=0.658;entryY=0.008;entryDx=0;entryDy=0;entryPerimeter=0;" parent="1" source="2" target="18" edge="1">
                    <mxGeometry width="50" height="50" relative="1" as="geometry">
                        <mxPoint x="230" y="120" as="sourcePoint"/>
                        <mxPoint x="600" y="190" as="targetPoint"/>
                        <Array as="points">
                            <mxPoint x="220" y="100"/>
                            <mxPoint x="680" y="100"/>
                            <mxPoint x="680" y="40"/>
                            <mxPoint x="885" y="40"/>
                        </Array>
                    </mxGeometry>
                </mxCell>
                <mxCell id="90" value="" style="endArrow=classic;html=1;exitX=0;exitY=0.5;exitDx=0;exitDy=0;entryX=0.5;entryY=0;entryDx=0;entryDy=0;" parent="1" source="2" target="9" edge="1">
                    <mxGeometry width="50" height="50" relative="1" as="geometry">
                        <mxPoint x="430" y="240" as="sourcePoint"/>
                        <mxPoint x="30" y="280" as="targetPoint"/>
                        <Array as="points">
                            <mxPoint x="30" y="51"/>
                        </Array>
                    </mxGeometry>
                </mxCell>
                <mxCell id="101" style="edgeStyle=none;html=1;exitX=0.25;exitY=1;exitDx=0;exitDy=0;entryX=0.43;entryY=0.003;entryDx=0;entryDy=0;entryPerimeter=0;" parent="1" source="100" target="55" edge="1">
                    <mxGeometry relative="1" as="geometry">
                        <mxPoint x="1131" y="310" as="targetPoint"/>
                        <Array as="points">
                            <mxPoint x="910" y="360"/>
                            <mxPoint x="1170" y="360"/>
                            <mxPoint x="1170" y="840"/>
                            <mxPoint x="700" y="840"/>
                        </Array>
                    </mxGeometry>
                </mxCell>
                <mxCell id="133" style="edgeStyle=none;html=1;exitX=0.5;exitY=1;exitDx=0;exitDy=0;" parent="1" source="100" edge="1">
                    <mxGeometry relative="1" as="geometry">
                        <Array as="points">
                            <mxPoint x="950" y="350"/>
                            <mxPoint x="1140" y="350"/>
                            <mxPoint x="1140" y="10"/>
                            <mxPoint x="1200" y="10"/>
                        </Array>
                        <mxPoint x="1200" y="30" as="targetPoint"/>
                    </mxGeometry>
                </mxCell>
                <mxCell id="158" style="edgeStyle=none;html=1;exitX=0.75;exitY=1;exitDx=0;exitDy=0;entryX=0.5;entryY=0;entryDx=0;entryDy=0;" parent="1" source="100" target="156" edge="1">
                    <mxGeometry relative="1" as="geometry">
                        <Array as="points">
                            <mxPoint x="990" y="340"/>
                            <mxPoint x="1100" y="340"/>
                            <mxPoint x="1100" y="-90"/>
                            <mxPoint x="1230" y="-90"/>
                        </Array>
                    </mxGeometry>
                </mxCell>
                <mxCell id="100" value="recorded_schemas" style="rounded=1;whiteSpace=wrap;html=1;strokeColor=#30BAFF;" parent="1" vertex="1">
                    <mxGeometry x="870" y="270" width="160" height="60" as="geometry"/>
                </mxCell>
                <mxCell id="116" style="edgeStyle=none;html=1;exitX=0.5;exitY=1;exitDx=0;exitDy=0;entryX=0.444;entryY=0.039;entryDx=0;entryDy=0;entryPerimeter=0;" parent="1" source="11" target="12" edge="1">
                    <mxGeometry relative="1" as="geometry"/>
                </mxCell>
                <mxCell id="138" style="edgeStyle=none;html=1;exitX=0.194;exitY=0.973;exitDx=0;exitDy=0;exitPerimeter=0;" parent="1" source="137" edge="1">
                    <mxGeometry relative="1" as="geometry">
                        <Array as="points">
                            <mxPoint x="900" y="690"/>
                            <mxPoint x="720" y="690"/>
                            <mxPoint x="720" y="-90"/>
                            <mxPoint x="340" y="-90"/>
                        </Array>
                        <mxPoint x="900" y="640" as="sourcePoint"/>
                        <mxPoint x="340" y="-70" as="targetPoint"/>
                    </mxGeometry>
                </mxCell>
                <mxCell id="140" style="edgeStyle=none;html=1;exitX=0.25;exitY=1;exitDx=0;exitDy=0;entryX=0.687;entryY=-0.057;entryDx=0;entryDy=0;entryPerimeter=0;" parent="1" source="137" target="13" edge="1">
                    <mxGeometry relative="1" as="geometry">
                        <Array as="points">
                            <mxPoint x="910" y="700"/>
                            <mxPoint x="340" y="700"/>
                        </Array>
                    </mxGeometry>
                </mxCell>
                <mxCell id="142" style="edgeStyle=none;html=1;exitX=0.5;exitY=1;exitDx=0;exitDy=0;entryX=0.75;entryY=0;entryDx=0;entryDy=0;" parent="1" source="137" target="23" edge="1">
                    <mxGeometry relative="1" as="geometry">
                        <Array as="points">
                            <mxPoint x="950" y="800"/>
                            <mxPoint x="550" y="800"/>
                        </Array>
                    </mxGeometry>
                </mxCell>
                <mxCell id="147" style="edgeStyle=none;html=1;exitX=0.366;exitY=0.956;exitDx=0;exitDy=0;entryX=0.75;entryY=0;entryDx=0;entryDy=0;exitPerimeter=0;" parent="1" source="137" target="14" edge="1">
                    <mxGeometry relative="1" as="geometry">
                        <Array as="points">
                            <mxPoint x="930" y="790"/>
                            <mxPoint x="350" y="790"/>
                        </Array>
                    </mxGeometry>
                </mxCell>
                <mxCell id="137" value="user_profile_store" style="rounded=1;whiteSpace=wrap;html=1;strokeColor=#30BAFF;" parent="1" vertex="1">
                    <mxGeometry x="870" y="600" width="160" height="60" as="geometry"/>
                </mxCell>
                <mxCell id="151" style="edgeStyle=none;html=1;exitX=0.88;exitY=1.034;exitDx=0;exitDy=0;exitPerimeter=0;" parent="1" source="17" edge="1">
                    <mxGeometry relative="1" as="geometry">
                        <mxPoint x="900" y="75" as="targetPoint"/>
                        <Array as="points">
                            <mxPoint x="360" y="10"/>
                            <mxPoint x="900" y="10"/>
                        </Array>
                    </mxGeometry>
                </mxCell>
                <mxCell id="157" style="edgeStyle=none;html=1;exitX=0.5;exitY=1;exitDx=0;exitDy=0;entryX=0.5;entryY=0;entryDx=0;entryDy=0;" parent="1" source="156" target="22" edge="1">
                    <mxGeometry relative="1" as="geometry"/>
                </mxCell>
                <mxCell id="156" value="retraining_scheduler" style="rounded=1;whiteSpace=wrap;html=1;strokeColor=#FFC249;" parent="1" vertex="1">
                    <mxGeometry x="1150" y="-60" width="160" height="60" as="geometry"/>
                </mxCell>
                <mxCell id="172" style="edgeStyle=none;html=1;exitX=0.25;exitY=1;exitDx=0;exitDy=0;entryX=0.25;entryY=0;entryDx=0;entryDy=0;" parent="1" source="168" target="17" edge="1">
                    <mxGeometry relative="1" as="geometry">
                        <mxPoint x="50" y="760" as="targetPoint"/>
                        <Array as="points">
                            <mxPoint x="278" y="1040"/>
                            <mxPoint x="-100" y="1040"/>
                            <mxPoint x="-100" y="-120"/>
                            <mxPoint x="260" y="-120"/>
                        </Array>
                    </mxGeometry>
                </mxCell>
                <mxCell id="185" style="edgeStyle=orthogonalEdgeStyle;html=1;exitX=0.5;exitY=1;exitDx=0;exitDy=0;entryX=0.5;entryY=0;entryDx=0;entryDy=0;" parent="1" source="168" target="137" edge="1">
                    <mxGeometry relative="1" as="geometry">
                        <Array as="points">
                            <mxPoint x="315" y="1030"/>
                            <mxPoint x="1130" y="1030"/>
                            <mxPoint x="1130" y="580"/>
                            <mxPoint x="950" y="580"/>
                        </Array>
                    </mxGeometry>
                </mxCell>
                <mxCell id="168" value="Partner UI" style="rounded=1;whiteSpace=wrap;html=1;strokeColor=#30BAFF;" parent="1" vertex="1">
                    <mxGeometry x="240" y="950" width="150" height="60" as="geometry"/>
                </mxCell>
                <mxCell id="170" style="edgeStyle=none;html=1;entryX=0.285;entryY=-0.025;entryDx=0;entryDy=0;entryPerimeter=0;exitX=0.75;exitY=1;exitDx=0;exitDy=0;" parent="1" source="168" target="23" edge="1">
                    <mxGeometry relative="1" as="geometry">
                        <mxPoint x="330" y="1010" as="sourcePoint"/>
                        <Array as="points">
                            <mxPoint x="353" y="1020"/>
                            <mxPoint x="420" y="1020"/>
                            <mxPoint x="420" y="800"/>
                            <mxPoint x="476" y="800"/>
                        </Array>
                    </mxGeometry>
                </mxCell>
                <mxCell id="176" style="edgeStyle=none;html=1;exitX=0.75;exitY=1;exitDx=0;exitDy=0;entryX=0.191;entryY=0.002;entryDx=0;entryDy=0;entryPerimeter=0;" parent="1" source="17" target="3" edge="1">
                    <mxGeometry relative="1" as="geometry"/>
                </mxCell>
                <mxCell id="177" style="edgeStyle=none;html=1;exitX=0.25;exitY=1;exitDx=0;exitDy=0;entryX=0.816;entryY=-0.006;entryDx=0;entryDy=0;entryPerimeter=0;" parent="1" source="17" target="2" edge="1">
                    <mxGeometry relative="1" as="geometry"/>
                </mxCell>
                <mxCell id="184" value="" style="group" parent="1" vertex="1" connectable="0">
                    <mxGeometry x="620" y="1080" width="190" height="173" as="geometry"/>
                </mxCell>
                <mxCell id="55" value="" style="whiteSpace=wrap;html=1;" parent="184" vertex="1">
                    <mxGeometry width="190" height="173" as="geometry"/>
                </mxCell>
                <mxCell id="19" value="landmark_visualizer" style="rounded=1;whiteSpace=wrap;html=1;strokeColor=#FFC249;" parent="184" vertex="1">
                    <mxGeometry x="20" y="84" width="160" height="60" as="geometry"/>
                </mxCell>
                <mxCell id="20" value="sound_playback" style="rounded=1;whiteSpace=wrap;html=1;strokeColor=#FFC249;" parent="184" vertex="1">
                    <mxGeometry x="20" y="15" width="160" height="60" as="geometry"/>
                </mxCell>
                <mxCell id="42" value="Data Visualization/Review" style="text;strokeColor=none;align=center;fillColor=none;html=1;verticalAlign=middle;whiteSpace=wrap;rounded=0;" parent="184" vertex="1">
                    <mxGeometry x="10" y="143" width="170" height="30" as="geometry"/>
                </mxCell>
                <mxCell id="186" style="edgeStyle=none;html=1;exitX=0.5;exitY=1;exitDx=0;exitDy=0;entryX=0.893;entryY=-0.025;entryDx=0;entryDy=0;entryPerimeter=0;" parent="1" source="42" target="168" edge="1">
                    <mxGeometry relative="1" as="geometry">
                        <Array as="points">
                            <mxPoint x="715" y="1280"/>
                            <mxPoint x="480" y="1280"/>
                            <mxPoint x="480" y="930"/>
                            <mxPoint x="374" y="930"/>
                        </Array>
                    </mxGeometry>
                </mxCell>
                <mxCell id="188" style="edgeStyle=none;html=1;exitX=0.097;exitY=1.015;exitDx=0;exitDy=0;entryX=0.713;entryY=-0.025;entryDx=0;entryDy=0;entryPerimeter=0;exitPerimeter=0;" parent="1" source="137" target="6" edge="1">
                    <mxGeometry relative="1" as="geometry">
                        <Array as="points">
                            <mxPoint x="886" y="680"/>
                            <mxPoint x="700" y="680"/>
                            <mxPoint x="700" y="260"/>
                            <mxPoint x="244" y="260"/>
                        </Array>
                    </mxGeometry>
                </mxCell>
                <mxCell id="192" value="" style="rounded=1;whiteSpace=wrap;html=1;strokeColor=#30BAFF;" parent="1" vertex="1">
                    <mxGeometry x="-160" y="1120" width="50" height="22" as="geometry"/>
                </mxCell>
                <mxCell id="199" value="" style="shape=image;verticalLabelPosition=bottom;labelBackgroundColor=default;verticalAlign=top;aspect=fixed;imageAspect=0;image=data:image/png,iVBORw0KGgoAAAANSUhEUgAAAgAAAAIACAMAAADDpiTIAAAACXBIWXMAAAsTAAALEwEAmpwYAAADAFBMVEVHcEwbluEnk+slluomk+YfjuYbkeYkku8gku4VlvIgk+sck+oejeUfjeYQkeQRessRi8silOkUedIkku8blekSjeoMkuwRaKUclukmkucvg8QZkuwglOkglukAgegejuEgku6NJyEnkOslj+Ugk+oikOYlluooiNgjlOogkuoghuQDjN4Ylekake4WlvElj+kfkukfjugckusRj+Elj+wgjugeluonj/cKkeAfjeYlj+kfk+shj+UgkukikOsgku4jk+odlOoek+sjlOsmkOwSkuEakukgjecbk+kfk+sjk+oik+okkesikOgVk+kfkusZl/IZku4Fh/Mkk+0il+0ckecljuYZg/Ufluskkuonk+sal+kKivMskegBk+Mgkuojkusjk+skk+8kk+oolOYRjucik+4fkuscjeIblfIdk+wkj+gWku0blekUj+gJleogi+omkewgkukIf+UhlOsQit0AlNIQj+Qkkuoikuskk+4gkewik+sXleokkeselukKitwZkOcclOofl+kikuokkuYllusdlOwhku4Aj9snkewWkeggkuohk+okl+ogk+sljucgluomlukjjeojku0gkOoSkOUPkeUllekfj+gkke4NjOclj+0eluosj+kakfAfleokk+kkkOkmkOokluokjegekuomkuofkOglkOsfk+wil+ofkuoeluoikuwek+kdlukfk+oblvAgk+ojkucgk+ggk+4elOkmi+obk+4alusak+odkuwlk+oglukbkeYnk+wfluskk+oKkOMZj+0lk+oakOkfleoal+kblucgk+okl+skluohluwAW+8kke4ekesbk+4jl+kek+ojl+kkkuglku4nkuogku0fjOoQjOQak+gfkesjlu4hlu4hluwjluwfk+4fk+kgk+sjkusgkusjlO4kkusek+sklukjluskluokkuomlushk+sfluokkukgkukjku0jk+sllukflushlO4jlu0flu4jk+ojle4el+kik+olk+ofk+omlOty4qXMAAAA3XRSTlMANdiDQnZBkqUZfYYxdz0HDFYJk2kVIQNoQwVVWOoOK6YBlCz8LoUMR8MdIzRRG2tzgmY4i0C/EB14gu9kO5+jTaSaj5o2U3V78fTfrmA2gh0kGc7XSncW3Ifazx4xG3ar65HkQEJkohoaWnxeYTInSZ5xDLAmETr23F1X7nC8uRgprvezjIyWpxKmTIX44X96tuaJVKhFP4d/qS+J0TNa7P7Bo+Ntx7p3Yt60ysvovv3iTdegZum3UZCPX23J5ULUx70tT8ZD9L5XjNy92gmPupKrzah+1cL5dj14iJG90wwAABBXSURBVHja7J0JkFTFHYfbRCReWViygIAcioCgAlERCAQVVFDxBlSEEAhgNKCACWppAiqeUaOClnfFo1KGlBU1Jim1jIkGo7HMWbkq3TtvZ9jNLocLBARNNtlF2JkF3Jnumdfdr+f7qiyrrPo77/3+377Xr9/RQgAAAAAAAAAAAAAAAAAAAAAAAAAAAAAAAAAAAAAAAAAAAAAAAAAAAAAAAAAAAAAAAAAAAAAAAAAAAAAAAAAAAAAAAAAAAAAAAOxF93sP0uDcK0gsKM6pV1ILVdeJ1AKiUekKIBtILRwWSM3+txhwFbkFwyhpwInkFgwdTAQ4gNwQABAAEAAQABAAEAAQABAAEAAQABAAEAAQABAAEAAQABAAEAAQABAAEAAQABAAEAAQABAAEAAQABAAEAAQABAAEAAQABAAEAAQABAAYuIrfCewvFlpIsAycguHGt3u18q3SS0glm2WSgcpbya0sOhz2P4arLmMxAAAAAAAAAAAAMxYcEKXjgXTZfwZe5Q/OFqjvGOXK99sW36j1q+fMI9+lZjKzVJWa6Dkhgdz65ukVFrl8jM51Us3K53q6mq55SR6VlJ26K7dqNSGnPLbtO/mKvXzbHm9/t3gJnpWSkZKgw6+lq3PGNzQH9FaPVkp/fLldK2EPGHQQDUgW29SflFrNSuHOmc/kw5+Nltv8BessoMAnglEAARAAARAAARAAARAAARAAARAAARAAN8EOPY5BChrATJy7TkIUL4C9G/52TkIUK4C3PvJLbD0eAQoSwEqol3bLTdejQBlKEBdzm8fjgBlJ8ArbZ6YqTkZAcpLgKpoj5//EwKUlQA7An8mDQHa59l97GDmZAQoGwEy+9zBUxCgTAQ45VO24SIEKAsBKqN9b8I2eSYClIMAkz59K9YiQPgCHNPeZnyAAMEL0P5XDOsQIHABxra/G3IjAoQtwLp8O9eEACEL8ET+12bXIkDAAkwqYFtuQIBgBehdyK6oCxEgVAHuLGhf1CoECFSAdIG7djUCBCnA0EL3ph4BghRgU4F7ptRmBAhQgCGF7458HAHCE2B+4dtTK3siQHACaH38qh4BQhNgqdYOJflpcQTYJ/dpblOv8hJgQPACpDW3qTGxAiw0acHo4gTIPlDn68qhT+h+PVU+klQBBho0UL5qOFjaxerW6tP1i2vlBfGnskjb66hTUg14Xrv/KvdRmC/o6xNVZcu3ave/1sbKkTX6Yn5fJNgAvbU7Gwbmlo+P9Nb+VI25HxuvyGj9urSzcugSk8Pii4k1oOpEncU7f3H+XpdMOuWH7fmljfPX6FQ/dIGNRN4xOK+lIgGh8G2DoW1Kdia4UNigTK5OthJcICyRRgLIKUQXBlOkGXVEFwYPmPVfyRlkFwRnGR4BctbCgSQTmQrAlWAQdJPG3Eh6AbCfuQCO3ha8Y3zfz2kw/+G25Q/P16nu+7uqtuULFmmVT7irTXXlrbfrlD89uu2PDyyufJ8sMBdAznTR/8na56yay7PVlzXqznhFbZZv3SR1r5r751Sf3rztH2rdiaq/qrjy8/PmeXARAkxw0P8KgzHLpmx5g/6sR1SRLb/TIKUcgTbqX2vlPoWd1i/PP1BbpYz7r1x8NcLooYrBu6u7mlTnrB+d1k9L/bK1urvJr79ZTHlK9skX6P2qiEPA+/YFMDpiPbq72sXKoZe2Vhe5cqhR+UN5rwKLEWByQgQ4pJghrzcPhR5qUv75fIHKYpiOAIkXoJgDgIu5IAQorQD9ijoCyOMRIOEC9C5OgKkIkHABqooTYDoCJFyAkcUJECFAwgUYUpwAsgcCJFuAy4oUYG72f9X1mKuvv3FAl9k775b0PaLLY8NenXLaYATwW4BpqeIEmChEn84DZt3TOkNfXV2dkp+8/rDrv9RPf+CKPggQ5lXArptO7eWianf+q+a+MSMRwD8BukmLREf3QoCgpoINSE89CQHKWYDm88XaVxHAHwEi6YD6VxDAFwFecND/5hijXyGAHwKMk46I/ogAPggwXDoj/V0EcC9AL+mQrZUI4FqAIS4FkOmXEcCxAEIqpwo8gwCOBah3KoBS63sggFMBfuD2CKDUhp4I4FKA59wK0HwGuhgBXAowUrpmCgK4FMDNZHDulQBjALcCHO1YgJsQwK0AnR0PAU5DALcC9FMuh4FqA/MAjgUQdU4F+AkCuBZgscP+fySXIIBrAYSsdWfAj5kKdi/Axw6HgGMRwL0Abzm7IaQauBvogQCi0dkw8DAE8EGA2a4E2MQDIV4I4Gw6+CgE8EOAR5wMAJTBGqQIEIsATg4BupOArgQo8jNxJRNgVJwC3OLiANDBQACjp5iP3F09w2Q7hxcnwF9aq4eZbPs/WsuNvpG5tNBgo5R1AxoM+i+eNLlk7be7usJkO1dmf327Qfmq1uq7TCZKTsopV/rlvQsNdpH1W0LpShMBRJ3+L72UrX5cpnQjbMr5ce3FX1NtdnOjvgBzcn59nf6uazxzW297PniY4cthTc2x6hDNz62+M9KqlnJH2/smGb0fT0XLi9h22dT2Dbr+uuXvaeTa3Wr3U3KS8fuhA487UIPz9iw/T6f6uL0OU1/X+fXjpu1RXVnctlcUV94+/7J6D4AFZ7zjJatXgJUE7hfj0zbPANFYEveJqj9HNm8IKjmKzD1iaJPtGaCnCN0bJq+zfPXX3P+/ErsfHHVryyJYlieAPpK/JnkPOG3x9Eg6eCBcseSsa3oc8/LqGumMp+mAs84feeyhX77f7auA0Zh8W9m118Q/dISSMvu2ay5O7z4CO3wLRMn0o3m6f/bO7UxVQylJST9Qm7/Vbvsr/yMhZPI8ATYmIqKQifJ8FvBHRBQw21Qmz+IhbyhSChelfptn8D9RVhNTuGzcP9/FH+f/kM/+K/LOUfyblEI9+Ocd/LfQSzICCJX15xQwSbmWnAKl/8JCJqnvIKggj/3RiJmF3aV4jbhCPPYfXPBtqlmkFdzA/77jNe5T/pDAgiEllYpGDNK7Uf0lcgvob/8I/a8+/I3Ywuj9dcOPN3pU5UyyS9T4vra25UXSln92P1QY3TOuwwHmL/twCkiWABt+87PvNLN6XN9TT+jwjUGHVBX7sNoNhJoo/lnqpxW/ykRwomZ4epdagOcRIFEzPCV/Xvl1BEjQAUC9VXIBXiDWBAnQWPo3Fs4i1gTxbukFuJRUEzQE7Fd6Aa4j1+RwbQwvrT1OrMlhbgwCvMdVQGL4II7XVmchQGJ4OA4BTiXXpBDP5/0eINikcE0sAkzlFJCUa8ADYxFgHgIkRID1sfRfrCTahDAoHgHWkGwyyMT09aJHiTYZLI5JgJFEm4gRQDqu75e9T7iJYEJsX7D7kHCTQEVsApBtEpgUW/+trlYCppNAC+MTYBP5+i9AXYxfsb2YfP0/AAyKUYBbCNh74jwAiBXcDPD+APBOnAKMQQDfaYiz/2IsAftO91gFmJYiYb+piXkxCxL2nIkxC/ABEXs9BMzE3H9xNCF7zSVxCzCcjH0+AKTj7r/oSco+CzAhdgH6kLLHxH8A4DLAa1ZYEIAFI/wlY6H/4nVy9paDbAgwjpx9pcZG/8X3uB3kK0OtCDCIoD1li5X+i94k7SlP2hGAy4AyngPgsUCPedGWAI+RtY+stdV/cSyXAf6h5FJrAixj7UgPuVbY478I4B1RN4sC1CCAdzxisf9iEQKU7wiwhesRwLcR4DCrAgwmcs8EqBN2YS7QM75mWYALidwrJlnuv3iWQYBPbLTdf/FNQveHlDzXugAMAryaA7Lff3ERsfvDXAcC8NFwfzjcQf/FQoUBnpARTliHAJ4wz40AdyOAH9S46b+4kuj9uAKodCRAV7L3gkuEKzKcAzygyVn/xdkI4MEJoJM7AQZxIeieg4VDuBAs1ymAXbxNA8r4BNDM3+mAU2rlaKf9F8vogUvUto+FY2rogksB/ue6/2I+XXDYf9XZuQDLaYNDAZ4R7uEc4I4tHvRfTKAPzq4AL/BBgCFMBrpiovCC9Qjghhv86L84AgHKdwDQwky+FFG+A4CdNCCA/QtAeYY3/Rfv0g/7zPGn/2Ia7bD+979d+MRWWmKZRq/6L75IRywPAK/ySwCRpidWGe1Z/8Xt9MTmAOA63/ovZtIWa6TkOuEfDAMtDgA87L/oxWygLTJLfBSAO0LW/v77eNl/MRoBrAwA1VDhKXwvyEr/n/K1/+Im2mNBgDeEv3AIiP/v/6ce91/8ng7Fzd0+919cToNingDcLvzmbpoUK3We91/M+H979xISVRQHYPxP5MIKcnpZTUo5CZVG9sACrSSowKzondAie9DDNpFGRQVZEUIvImgT9IBqU9QioogWLVq1bhX35pnRIjVtcrJoEalTiajlzNzROed8v50rZb5z7zn33LlXGiVTq6S8R1RKnuDo1B8APCWWxP4ZooEsQlndXzLYC7C6v8gZWlndX0TVkcv7/mO06S9jyeX5/o9O/XlbgPcD4NtonfrLPL4a5K2waKaREeDl+b9Bt/5yineHeqY9ZV4BEIuTDACPvHMvio5YB3p0/nc3aNlfjtHOG1WiqelMAh4I+UVb9eRLfPtnvb79eVw88QEQEa0d592BibkgmvvIAEjEA937y1UiJrD8myf6e/Cec0Cc039brZigkWVAfErFDJmfGADxeCimOMYpIHb1JWKO2/SMdfenQYxyk68GxOaFGOYDTWPZ/N1tWn85xE0B+1b/PazjSZEBHv7qvBiJ20IDE8kQQ01lITiAw3+ZmGsD2wH/01wrwgiwltGHf5fX7e/J3K/WvWK8LDL3e/gvEBscddpp3ZfpmWKHjbTupc5p9Yk1XhK817XfVLHJQ5r3yO82jxG7FCguB//kd93GG2KdAF8R+uPjZbFR7RfSdwo9E1udtv7GQMfa74xY7J71k3/pYbHagZDNR79zK1esF7Z3BNxaQ/4OZ5WdK4GiAO2j1tn40FDWLMJ3e+HaNferwnSi95Br00og9JjgvZWHLJkH6lcSu2/DbMjf4CN0vyYEHbPPAupeHpX/aXbE2AHgOsFyAv/fprCR8R31ahJxB8b/1TFsY8h1P7Dwi0V+qWvWzM+WX6y2lClDjn0nuJqccZlbr3181wnPIWT8AjVK52WfE1m7kIgJKgjruiCMvM0knxeyz7e5rmbbQ+r+fup7aG9Os0ZDILhkPsk8t3Bzgxb1f67lNm/S+O6q6IVV6un697gt5xYTKcn2nShqSrEVQfSvUXt2UWeQLL5+JaWuDpuOLGDSH2zVE2cqp25ITwRdv/x7zfNqagzVdODbsXMo/je9G9Wyff82Igz9KPA/O6oGbWUYHW6fCytnjOejTyHTRhXnrFLJP+erJ0svb1rE552q8krSlqxS37rvw3m1xHfU1j0jpgSm8RHrsWeU709bdre1yYlzJLh/rzPV8aqcNF9+Np+pnjK3LX96Z+TBssKKntPDj77v2//exq+YWZZTWVyyfAK7+WaZnJ1eHbg23O8b1+nSiKg3Ezt+WOHfNSk3dxZHOgAAAAAAAAAAAAAAAAAAAAAAAAAAAAAAAAAAAAAAAAAAAAAAAAAAAAAAAAAAAAAAAAAAAAAAGBS/AJwej1ELdZhYAAAAAElFTkSuQmCC;" parent="1" vertex="1">
                    <mxGeometry x="260" y="51" width="25" height="25" as="geometry"/>
                </mxCell>
                <mxCell id="201" value="" style="shape=image;verticalLabelPosition=bottom;labelBackgroundColor=default;verticalAlign=top;aspect=fixed;imageAspect=0;image=data:image/png,iVBORw0KGgoAAAANSUhEUgAAAgAAAAIACAMAAADDpiTIAAAACXBIWXMAAAsTAAALEwEAmpwYAAADAFBMVEVHcEwbluEnk+slluomk+YfjuYbkeYkku8gku4VlvIgk+sck+oejeUfjeYQkeQRessRi8silOkUedIkku8blekSjeoMkuwRaKUclukmkucvg8QZkuwglOkglukAgegejuEgku6NJyEnkOslj+Ugk+oikOYlluooiNgjlOogkuoghuQDjN4Ylekake4WlvElj+kfkukfjugckusRj+Elj+wgjugeluonj/cKkeAfjeYlj+kfk+shj+UgkukikOsgku4jk+odlOoek+sjlOsmkOwSkuEakukgjecbk+kfk+sjk+oik+okkesikOgVk+kfkusZl/IZku4Fh/Mkk+0il+0ckecljuYZg/Ufluskkuonk+sal+kKivMskegBk+Mgkuojkusjk+skk+8kk+oolOYRjucik+4fkuscjeIblfIdk+wkj+gWku0blekUj+gJleogi+omkewgkukIf+UhlOsQit0AlNIQj+Qkkuoikuskk+4gkewik+sXleokkeselukKitwZkOcclOofl+kikuokkuYllusdlOwhku4Aj9snkewWkeggkuohk+okl+ogk+sljucgluomlukjjeojku0gkOoSkOUPkeUllekfj+gkke4NjOclj+0eluosj+kakfAfleokk+kkkOkmkOokluokjegekuomkuofkOglkOsfk+wil+ofkuoeluoikuwek+kdlukfk+oblvAgk+ojkucgk+ggk+4elOkmi+obk+4alusak+odkuwlk+oglukbkeYnk+wfluskk+oKkOMZj+0lk+oakOkfleoal+kblucgk+okl+skluohluwAW+8kke4ekesbk+4jl+kek+ojl+kkkuglku4nkuogku0fjOoQjOQak+gfkesjlu4hlu4hluwjluwfk+4fk+kgk+sjkusgkusjlO4kkusek+sklukjluskluokkuomlushk+sfluokkukgkukjku0jk+sllukflushlO4jlu0flu4jk+ojle4el+kik+olk+ofk+omlOty4qXMAAAA3XRSTlMANdiDQnZBkqUZfYYxdz0HDFYJk2kVIQNoQwVVWOoOK6YBlCz8LoUMR8MdIzRRG2tzgmY4i0C/EB14gu9kO5+jTaSaj5o2U3V78fTfrmA2gh0kGc7XSncW3Ifazx4xG3ar65HkQEJkohoaWnxeYTInSZ5xDLAmETr23F1X7nC8uRgprvezjIyWpxKmTIX44X96tuaJVKhFP4d/qS+J0TNa7P7Bo+Ntx7p3Yt60ysvovv3iTdegZum3UZCPX23J5ULUx70tT8ZD9L5XjNy92gmPupKrzah+1cL5dj14iJG90wwAABBXSURBVHja7J0JkFTFHYfbRCReWViygIAcioCgAlERCAQVVFDxBlSEEAhgNKCACWppAiqeUaOClnfFo1KGlBU1Jim1jIkGo7HMWbkq3TtvZ9jNLocLBARNNtlF2JkF3Jnumdfdr+f7qiyrrPo77/3+377Xr9/RQgAAAAAAAAAAAAAAAAAAAAAAAAAAAAAAAAAAAAAAAAAAAAAAAAAAAAAAAAAAAAAAAAAAAAAAAAAAAAAAAAAAAAAAAAAAAAAAAOxF93sP0uDcK0gsKM6pV1ILVdeJ1AKiUekKIBtILRwWSM3+txhwFbkFwyhpwInkFgwdTAQ4gNwQABAAEAAQABAAEAAQABAAEAAQABAAEAAQABAAEAAQABAAEAAQABAAEAAQABAAEAAQABAAEAAQABAAEAAQABAAEAAQABAAEAAQABAAYuIrfCewvFlpIsAycguHGt3u18q3SS0glm2WSgcpbya0sOhz2P4arLmMxAAAAAAAAAAAAMxYcEKXjgXTZfwZe5Q/OFqjvGOXK99sW36j1q+fMI9+lZjKzVJWa6Dkhgdz65ukVFrl8jM51Us3K53q6mq55SR6VlJ26K7dqNSGnPLbtO/mKvXzbHm9/t3gJnpWSkZKgw6+lq3PGNzQH9FaPVkp/fLldK2EPGHQQDUgW29SflFrNSuHOmc/kw5+Nltv8BessoMAnglEAARAAARAAARAAARAAARAAARAAARAAN8EOPY5BChrATJy7TkIUL4C9G/52TkIUK4C3PvJLbD0eAQoSwEqol3bLTdejQBlKEBdzm8fjgBlJ8ArbZ6YqTkZAcpLgKpoj5//EwKUlQA7An8mDQHa59l97GDmZAQoGwEy+9zBUxCgTAQ45VO24SIEKAsBKqN9b8I2eSYClIMAkz59K9YiQPgCHNPeZnyAAMEL0P5XDOsQIHABxra/G3IjAoQtwLp8O9eEACEL8ET+12bXIkDAAkwqYFtuQIBgBehdyK6oCxEgVAHuLGhf1CoECFSAdIG7djUCBCnA0EL3ph4BghRgU4F7ptRmBAhQgCGF7458HAHCE2B+4dtTK3siQHACaH38qh4BQhNgqdYOJflpcQTYJ/dpblOv8hJgQPACpDW3qTGxAiw0acHo4gTIPlDn68qhT+h+PVU+klQBBho0UL5qOFjaxerW6tP1i2vlBfGnskjb66hTUg14Xrv/KvdRmC/o6xNVZcu3ave/1sbKkTX6Yn5fJNgAvbU7Gwbmlo+P9Nb+VI25HxuvyGj9urSzcugSk8Pii4k1oOpEncU7f3H+XpdMOuWH7fmljfPX6FQ/dIGNRN4xOK+lIgGh8G2DoW1Kdia4UNigTK5OthJcICyRRgLIKUQXBlOkGXVEFwYPmPVfyRlkFwRnGR4BctbCgSQTmQrAlWAQdJPG3Eh6AbCfuQCO3ha8Y3zfz2kw/+G25Q/P16nu+7uqtuULFmmVT7irTXXlrbfrlD89uu2PDyyufJ8sMBdAznTR/8na56yay7PVlzXqznhFbZZv3SR1r5r751Sf3rztH2rdiaq/qrjy8/PmeXARAkxw0P8KgzHLpmx5g/6sR1SRLb/TIKUcgTbqX2vlPoWd1i/PP1BbpYz7r1x8NcLooYrBu6u7mlTnrB+d1k9L/bK1urvJr79ZTHlK9skX6P2qiEPA+/YFMDpiPbq72sXKoZe2Vhe5cqhR+UN5rwKLEWByQgQ4pJghrzcPhR5qUv75fIHKYpiOAIkXoJgDgIu5IAQorQD9ijoCyOMRIOEC9C5OgKkIkHABqooTYDoCJFyAkcUJECFAwgUYUpwAsgcCJFuAy4oUYG72f9X1mKuvv3FAl9k775b0PaLLY8NenXLaYATwW4BpqeIEmChEn84DZt3TOkNfXV2dkp+8/rDrv9RPf+CKPggQ5lXArptO7eWianf+q+a+MSMRwD8BukmLREf3QoCgpoINSE89CQHKWYDm88XaVxHAHwEi6YD6VxDAFwFecND/5hijXyGAHwKMk46I/ogAPggwXDoj/V0EcC9AL+mQrZUI4FqAIS4FkOmXEcCxAEIqpwo8gwCOBah3KoBS63sggFMBfuD2CKDUhp4I4FKA59wK0HwGuhgBXAowUrpmCgK4FMDNZHDulQBjALcCHO1YgJsQwK0AnR0PAU5DALcC9FMuh4FqA/MAjgUQdU4F+AkCuBZgscP+fySXIIBrAYSsdWfAj5kKdi/Axw6HgGMRwL0Abzm7IaQauBvogQCi0dkw8DAE8EGA2a4E2MQDIV4I4Gw6+CgE8EOAR5wMAJTBGqQIEIsATg4BupOArgQo8jNxJRNgVJwC3OLiANDBQACjp5iP3F09w2Q7hxcnwF9aq4eZbPs/WsuNvpG5tNBgo5R1AxoM+i+eNLlk7be7usJkO1dmf327Qfmq1uq7TCZKTsopV/rlvQsNdpH1W0LpShMBRJ3+L72UrX5cpnQjbMr5ce3FX1NtdnOjvgBzcn59nf6uazxzW297PniY4cthTc2x6hDNz62+M9KqlnJH2/smGb0fT0XLi9h22dT2Dbr+uuXvaeTa3Wr3U3KS8fuhA487UIPz9iw/T6f6uL0OU1/X+fXjpu1RXVnctlcUV94+/7J6D4AFZ7zjJatXgJUE7hfj0zbPANFYEveJqj9HNm8IKjmKzD1iaJPtGaCnCN0bJq+zfPXX3P+/ErsfHHVryyJYlieAPpK/JnkPOG3x9Eg6eCBcseSsa3oc8/LqGumMp+mAs84feeyhX77f7auA0Zh8W9m118Q/dISSMvu2ay5O7z4CO3wLRMn0o3m6f/bO7UxVQylJST9Qm7/Vbvsr/yMhZPI8ATYmIqKQifJ8FvBHRBQw21Qmz+IhbyhSChelfptn8D9RVhNTuGzcP9/FH+f/kM/+K/LOUfyblEI9+Ocd/LfQSzICCJX15xQwSbmWnAKl/8JCJqnvIKggj/3RiJmF3aV4jbhCPPYfXPBtqlmkFdzA/77jNe5T/pDAgiEllYpGDNK7Uf0lcgvob/8I/a8+/I3Ywuj9dcOPN3pU5UyyS9T4vra25UXSln92P1QY3TOuwwHmL/twCkiWABt+87PvNLN6XN9TT+jwjUGHVBX7sNoNhJoo/lnqpxW/ykRwomZ4epdagOcRIFEzPCV/Xvl1BEjQAUC9VXIBXiDWBAnQWPo3Fs4i1gTxbukFuJRUEzQE7Fd6Aa4j1+RwbQwvrT1OrMlhbgwCvMdVQGL4II7XVmchQGJ4OA4BTiXXpBDP5/0eINikcE0sAkzlFJCUa8ADYxFgHgIkRID1sfRfrCTahDAoHgHWkGwyyMT09aJHiTYZLI5JgJFEm4gRQDqu75e9T7iJYEJsX7D7kHCTQEVsApBtEpgUW/+trlYCppNAC+MTYBP5+i9AXYxfsb2YfP0/AAyKUYBbCNh74jwAiBXcDPD+APBOnAKMQQDfaYiz/2IsAftO91gFmJYiYb+piXkxCxL2nIkxC/ABEXs9BMzE3H9xNCF7zSVxCzCcjH0+AKTj7r/oSco+CzAhdgH6kLLHxH8A4DLAa1ZYEIAFI/wlY6H/4nVy9paDbAgwjpx9pcZG/8X3uB3kK0OtCDCIoD1li5X+i94k7SlP2hGAy4AyngPgsUCPedGWAI+RtY+stdV/cSyXAf6h5FJrAixj7UgPuVbY478I4B1RN4sC1CCAdzxisf9iEQKU7wiwhesRwLcR4DCrAgwmcs8EqBN2YS7QM75mWYALidwrJlnuv3iWQYBPbLTdf/FNQveHlDzXugAMAryaA7Lff3ERsfvDXAcC8NFwfzjcQf/FQoUBnpARTliHAJ4wz40AdyOAH9S46b+4kuj9uAKodCRAV7L3gkuEKzKcAzygyVn/xdkI4MEJoJM7AQZxIeieg4VDuBAs1ymAXbxNA8r4BNDM3+mAU2rlaKf9F8vogUvUto+FY2rogksB/ue6/2I+XXDYf9XZuQDLaYNDAZ4R7uEc4I4tHvRfTKAPzq4AL/BBgCFMBrpiovCC9Qjghhv86L84AgHKdwDQwky+FFG+A4CdNCCA/QtAeYY3/Rfv0g/7zPGn/2Ia7bD+979d+MRWWmKZRq/6L75IRywPAK/ySwCRpidWGe1Z/8Xt9MTmAOA63/ovZtIWa6TkOuEfDAMtDgA87L/oxWygLTJLfBSAO0LW/v77eNl/MRoBrAwA1VDhKXwvyEr/n/K1/+Im2mNBgDeEv3AIiP/v/6ce91/8ng7Fzd0+919cToNingDcLvzmbpoUK3We91/M+H979xISVRQHYPxP5MIKcnpZTUo5CZVG9sACrSSowKzondAie9DDNpFGRQVZEUIvImgT9IBqU9QioogWLVq1bhX35pnRIjVtcrJoEalTiajlzNzROed8v50rZb5z7zn33LlXGiVTq6S8R1RKnuDo1B8APCWWxP4ZooEsQlndXzLYC7C6v8gZWlndX0TVkcv7/mO06S9jyeX5/o9O/XlbgPcD4NtonfrLPL4a5K2waKaREeDl+b9Bt/5yineHeqY9ZV4BEIuTDACPvHMvio5YB3p0/nc3aNlfjtHOG1WiqelMAh4I+UVb9eRLfPtnvb79eVw88QEQEa0d592BibkgmvvIAEjEA937y1UiJrD8myf6e/Cec0Cc039brZigkWVAfErFDJmfGADxeCimOMYpIHb1JWKO2/SMdfenQYxyk68GxOaFGOYDTWPZ/N1tWn85xE0B+1b/PazjSZEBHv7qvBiJ20IDE8kQQ01lITiAw3+ZmGsD2wH/01wrwgiwltGHf5fX7e/J3K/WvWK8LDL3e/gvEBscddpp3ZfpmWKHjbTupc5p9Yk1XhK817XfVLHJQ5r3yO82jxG7FCguB//kd93GG2KdAF8R+uPjZbFR7RfSdwo9E1udtv7GQMfa74xY7J71k3/pYbHagZDNR79zK1esF7Z3BNxaQ/4OZ5WdK4GiAO2j1tn40FDWLMJ3e+HaNferwnSi95Br00og9JjgvZWHLJkH6lcSu2/DbMjf4CN0vyYEHbPPAupeHpX/aXbE2AHgOsFyAv/fprCR8R31ahJxB8b/1TFsY8h1P7Dwi0V+qWvWzM+WX6y2lClDjn0nuJqccZlbr3181wnPIWT8AjVK52WfE1m7kIgJKgjruiCMvM0knxeyz7e5rmbbQ+r+fup7aG9Os0ZDILhkPsk8t3Bzgxb1f67lNm/S+O6q6IVV6un697gt5xYTKcn2nShqSrEVQfSvUXt2UWeQLL5+JaWuDpuOLGDSH2zVE2cqp25ITwRdv/x7zfNqagzVdODbsXMo/je9G9Wyff82Igz9KPA/O6oGbWUYHW6fCytnjOejTyHTRhXnrFLJP+erJ0svb1rE552q8krSlqxS37rvw3m1xHfU1j0jpgSm8RHrsWeU709bdre1yYlzJLh/rzPV8aqcNF9+Np+pnjK3LX96Z+TBssKKntPDj77v2//exq+YWZZTWVyyfAK7+WaZnJ1eHbg23O8b1+nSiKg3Ezt+WOHfNSk3dxZHOgAAAAAAAAAAAAAAAAAAAAAAAAAAAAAAAAAAAAAAAAAAAAAAAAAAAAAAAAAAAAAAAAAAAAAAGBS/AJwej1ELdZhYAAAAAElFTkSuQmCC;" parent="1" vertex="1">
                    <mxGeometry x="440" y="51" width="25" height="25" as="geometry"/>
                </mxCell>
                <mxCell id="202" value="" style="shape=image;verticalLabelPosition=bottom;labelBackgroundColor=default;verticalAlign=top;aspect=fixed;imageAspect=0;image=data:image/png,iVBORw0KGgoAAAANSUhEUgAAAgAAAAIACAMAAADDpiTIAAAACXBIWXMAAAsTAAALEwEAmpwYAAADAFBMVEVHcEwbluEnk+slluomk+YfjuYbkeYkku8gku4VlvIgk+sck+oejeUfjeYQkeQRessRi8silOkUedIkku8blekSjeoMkuwRaKUclukmkucvg8QZkuwglOkglukAgegejuEgku6NJyEnkOslj+Ugk+oikOYlluooiNgjlOogkuoghuQDjN4Ylekake4WlvElj+kfkukfjugckusRj+Elj+wgjugeluonj/cKkeAfjeYlj+kfk+shj+UgkukikOsgku4jk+odlOoek+sjlOsmkOwSkuEakukgjecbk+kfk+sjk+oik+okkesikOgVk+kfkusZl/IZku4Fh/Mkk+0il+0ckecljuYZg/Ufluskkuonk+sal+kKivMskegBk+Mgkuojkusjk+skk+8kk+oolOYRjucik+4fkuscjeIblfIdk+wkj+gWku0blekUj+gJleogi+omkewgkukIf+UhlOsQit0AlNIQj+Qkkuoikuskk+4gkewik+sXleokkeselukKitwZkOcclOofl+kikuokkuYllusdlOwhku4Aj9snkewWkeggkuohk+okl+ogk+sljucgluomlukjjeojku0gkOoSkOUPkeUllekfj+gkke4NjOclj+0eluosj+kakfAfleokk+kkkOkmkOokluokjegekuomkuofkOglkOsfk+wil+ofkuoeluoikuwek+kdlukfk+oblvAgk+ojkucgk+ggk+4elOkmi+obk+4alusak+odkuwlk+oglukbkeYnk+wfluskk+oKkOMZj+0lk+oakOkfleoal+kblucgk+okl+skluohluwAW+8kke4ekesbk+4jl+kek+ojl+kkkuglku4nkuogku0fjOoQjOQak+gfkesjlu4hlu4hluwjluwfk+4fk+kgk+sjkusgkusjlO4kkusek+sklukjluskluokkuomlushk+sfluokkukgkukjku0jk+sllukflushlO4jlu0flu4jk+ojle4el+kik+olk+ofk+omlOty4qXMAAAA3XRSTlMANdiDQnZBkqUZfYYxdz0HDFYJk2kVIQNoQwVVWOoOK6YBlCz8LoUMR8MdIzRRG2tzgmY4i0C/EB14gu9kO5+jTaSaj5o2U3V78fTfrmA2gh0kGc7XSncW3Ifazx4xG3ar65HkQEJkohoaWnxeYTInSZ5xDLAmETr23F1X7nC8uRgprvezjIyWpxKmTIX44X96tuaJVKhFP4d/qS+J0TNa7P7Bo+Ntx7p3Yt60ysvovv3iTdegZum3UZCPX23J5ULUx70tT8ZD9L5XjNy92gmPupKrzah+1cL5dj14iJG90wwAABBXSURBVHja7J0JkFTFHYfbRCReWViygIAcioCgAlERCAQVVFDxBlSEEAhgNKCACWppAiqeUaOClnfFo1KGlBU1Jim1jIkGo7HMWbkq3TtvZ9jNLocLBARNNtlF2JkF3Jnumdfdr+f7qiyrrPo77/3+377Xr9/RQgAAAAAAAAAAAAAAAAAAAAAAAAAAAAAAAAAAAAAAAAAAAAAAAAAAAAAAAAAAAAAAAAAAAAAAAAAAAAAAAAAAAAAAAAAAAAAAAOxF93sP0uDcK0gsKM6pV1ILVdeJ1AKiUekKIBtILRwWSM3+txhwFbkFwyhpwInkFgwdTAQ4gNwQABAAEAAQABAAEAAQABAAEAAQABAAEAAQABAAEAAQABAAEAAQABAAEAAQABAAEAAQABAAEAAQABAAEAAQABAAEAAQABAAEAAQABAAYuIrfCewvFlpIsAycguHGt3u18q3SS0glm2WSgcpbya0sOhz2P4arLmMxAAAAAAAAAAAAMxYcEKXjgXTZfwZe5Q/OFqjvGOXK99sW36j1q+fMI9+lZjKzVJWa6Dkhgdz65ukVFrl8jM51Us3K53q6mq55SR6VlJ26K7dqNSGnPLbtO/mKvXzbHm9/t3gJnpWSkZKgw6+lq3PGNzQH9FaPVkp/fLldK2EPGHQQDUgW29SflFrNSuHOmc/kw5+Nltv8BessoMAnglEAARAAARAAARAAARAAARAAARAAARAAN8EOPY5BChrATJy7TkIUL4C9G/52TkIUK4C3PvJLbD0eAQoSwEqol3bLTdejQBlKEBdzm8fjgBlJ8ArbZ6YqTkZAcpLgKpoj5//EwKUlQA7An8mDQHa59l97GDmZAQoGwEy+9zBUxCgTAQ45VO24SIEKAsBKqN9b8I2eSYClIMAkz59K9YiQPgCHNPeZnyAAMEL0P5XDOsQIHABxra/G3IjAoQtwLp8O9eEACEL8ET+12bXIkDAAkwqYFtuQIBgBehdyK6oCxEgVAHuLGhf1CoECFSAdIG7djUCBCnA0EL3ph4BghRgU4F7ptRmBAhQgCGF7458HAHCE2B+4dtTK3siQHACaH38qh4BQhNgqdYOJflpcQTYJ/dpblOv8hJgQPACpDW3qTGxAiw0acHo4gTIPlDn68qhT+h+PVU+klQBBho0UL5qOFjaxerW6tP1i2vlBfGnskjb66hTUg14Xrv/KvdRmC/o6xNVZcu3ave/1sbKkTX6Yn5fJNgAvbU7Gwbmlo+P9Nb+VI25HxuvyGj9urSzcugSk8Pii4k1oOpEncU7f3H+XpdMOuWH7fmljfPX6FQ/dIGNRN4xOK+lIgGh8G2DoW1Kdia4UNigTK5OthJcICyRRgLIKUQXBlOkGXVEFwYPmPVfyRlkFwRnGR4BctbCgSQTmQrAlWAQdJPG3Eh6AbCfuQCO3ha8Y3zfz2kw/+G25Q/P16nu+7uqtuULFmmVT7irTXXlrbfrlD89uu2PDyyufJ8sMBdAznTR/8na56yay7PVlzXqznhFbZZv3SR1r5r751Sf3rztH2rdiaq/qrjy8/PmeXARAkxw0P8KgzHLpmx5g/6sR1SRLb/TIKUcgTbqX2vlPoWd1i/PP1BbpYz7r1x8NcLooYrBu6u7mlTnrB+d1k9L/bK1urvJr79ZTHlK9skX6P2qiEPA+/YFMDpiPbq72sXKoZe2Vhe5cqhR+UN5rwKLEWByQgQ4pJghrzcPhR5qUv75fIHKYpiOAIkXoJgDgIu5IAQorQD9ijoCyOMRIOEC9C5OgKkIkHABqooTYDoCJFyAkcUJECFAwgUYUpwAsgcCJFuAy4oUYG72f9X1mKuvv3FAl9k775b0PaLLY8NenXLaYATwW4BpqeIEmChEn84DZt3TOkNfXV2dkp+8/rDrv9RPf+CKPggQ5lXArptO7eWianf+q+a+MSMRwD8BukmLREf3QoCgpoINSE89CQHKWYDm88XaVxHAHwEi6YD6VxDAFwFecND/5hijXyGAHwKMk46I/ogAPggwXDoj/V0EcC9AL+mQrZUI4FqAIS4FkOmXEcCxAEIqpwo8gwCOBah3KoBS63sggFMBfuD2CKDUhp4I4FKA59wK0HwGuhgBXAowUrpmCgK4FMDNZHDulQBjALcCHO1YgJsQwK0AnR0PAU5DALcC9FMuh4FqA/MAjgUQdU4F+AkCuBZgscP+fySXIIBrAYSsdWfAj5kKdi/Axw6HgGMRwL0Abzm7IaQauBvogQCi0dkw8DAE8EGA2a4E2MQDIV4I4Gw6+CgE8EOAR5wMAJTBGqQIEIsATg4BupOArgQo8jNxJRNgVJwC3OLiANDBQACjp5iP3F09w2Q7hxcnwF9aq4eZbPs/WsuNvpG5tNBgo5R1AxoM+i+eNLlk7be7usJkO1dmf327Qfmq1uq7TCZKTsopV/rlvQsNdpH1W0LpShMBRJ3+L72UrX5cpnQjbMr5ce3FX1NtdnOjvgBzcn59nf6uazxzW297PniY4cthTc2x6hDNz62+M9KqlnJH2/smGb0fT0XLi9h22dT2Dbr+uuXvaeTa3Wr3U3KS8fuhA487UIPz9iw/T6f6uL0OU1/X+fXjpu1RXVnctlcUV94+/7J6D4AFZ7zjJatXgJUE7hfj0zbPANFYEveJqj9HNm8IKjmKzD1iaJPtGaCnCN0bJq+zfPXX3P+/ErsfHHVryyJYlieAPpK/JnkPOG3x9Eg6eCBcseSsa3oc8/LqGumMp+mAs84feeyhX77f7auA0Zh8W9m118Q/dISSMvu2ay5O7z4CO3wLRMn0o3m6f/bO7UxVQylJST9Qm7/Vbvsr/yMhZPI8ATYmIqKQifJ8FvBHRBQw21Qmz+IhbyhSChelfptn8D9RVhNTuGzcP9/FH+f/kM/+K/LOUfyblEI9+Ocd/LfQSzICCJX15xQwSbmWnAKl/8JCJqnvIKggj/3RiJmF3aV4jbhCPPYfXPBtqlmkFdzA/77jNe5T/pDAgiEllYpGDNK7Uf0lcgvob/8I/a8+/I3Ywuj9dcOPN3pU5UyyS9T4vra25UXSln92P1QY3TOuwwHmL/twCkiWABt+87PvNLN6XN9TT+jwjUGHVBX7sNoNhJoo/lnqpxW/ykRwomZ4epdagOcRIFEzPCV/Xvl1BEjQAUC9VXIBXiDWBAnQWPo3Fs4i1gTxbukFuJRUEzQE7Fd6Aa4j1+RwbQwvrT1OrMlhbgwCvMdVQGL4II7XVmchQGJ4OA4BTiXXpBDP5/0eINikcE0sAkzlFJCUa8ADYxFgHgIkRID1sfRfrCTahDAoHgHWkGwyyMT09aJHiTYZLI5JgJFEm4gRQDqu75e9T7iJYEJsX7D7kHCTQEVsApBtEpgUW/+trlYCppNAC+MTYBP5+i9AXYxfsb2YfP0/AAyKUYBbCNh74jwAiBXcDPD+APBOnAKMQQDfaYiz/2IsAftO91gFmJYiYb+piXkxCxL2nIkxC/ABEXs9BMzE3H9xNCF7zSVxCzCcjH0+AKTj7r/oSco+CzAhdgH6kLLHxH8A4DLAa1ZYEIAFI/wlY6H/4nVy9paDbAgwjpx9pcZG/8X3uB3kK0OtCDCIoD1li5X+i94k7SlP2hGAy4AyngPgsUCPedGWAI+RtY+stdV/cSyXAf6h5FJrAixj7UgPuVbY478I4B1RN4sC1CCAdzxisf9iEQKU7wiwhesRwLcR4DCrAgwmcs8EqBN2YS7QM75mWYALidwrJlnuv3iWQYBPbLTdf/FNQveHlDzXugAMAryaA7Lff3ERsfvDXAcC8NFwfzjcQf/FQoUBnpARTliHAJ4wz40AdyOAH9S46b+4kuj9uAKodCRAV7L3gkuEKzKcAzygyVn/xdkI4MEJoJM7AQZxIeieg4VDuBAs1ymAXbxNA8r4BNDM3+mAU2rlaKf9F8vogUvUto+FY2rogksB/ue6/2I+XXDYf9XZuQDLaYNDAZ4R7uEc4I4tHvRfTKAPzq4AL/BBgCFMBrpiovCC9Qjghhv86L84AgHKdwDQwky+FFG+A4CdNCCA/QtAeYY3/Rfv0g/7zPGn/2Ia7bD+979d+MRWWmKZRq/6L75IRywPAK/ySwCRpidWGe1Z/8Xt9MTmAOA63/ovZtIWa6TkOuEfDAMtDgA87L/oxWygLTJLfBSAO0LW/v77eNl/MRoBrAwA1VDhKXwvyEr/n/K1/+Im2mNBgDeEv3AIiP/v/6ce91/8ng7Fzd0+919cToNingDcLvzmbpoUK3We91/M+H979xISVRQHYPxP5MIKcnpZTUo5CZVG9sACrSSowKzondAie9DDNpFGRQVZEUIvImgT9IBqU9QioogWLVq1bhX35pnRIjVtcrJoEalTiajlzNzROed8v50rZb5z7zn33LlXGiVTq6S8R1RKnuDo1B8APCWWxP4ZooEsQlndXzLYC7C6v8gZWlndX0TVkcv7/mO06S9jyeX5/o9O/XlbgPcD4NtonfrLPL4a5K2waKaREeDl+b9Bt/5yineHeqY9ZV4BEIuTDACPvHMvio5YB3p0/nc3aNlfjtHOG1WiqelMAh4I+UVb9eRLfPtnvb79eVw88QEQEa0d592BibkgmvvIAEjEA937y1UiJrD8myf6e/Cec0Cc039brZigkWVAfErFDJmfGADxeCimOMYpIHb1JWKO2/SMdfenQYxyk68GxOaFGOYDTWPZ/N1tWn85xE0B+1b/PazjSZEBHv7qvBiJ20IDE8kQQ01lITiAw3+ZmGsD2wH/01wrwgiwltGHf5fX7e/J3K/WvWK8LDL3e/gvEBscddpp3ZfpmWKHjbTupc5p9Yk1XhK817XfVLHJQ5r3yO82jxG7FCguB//kd93GG2KdAF8R+uPjZbFR7RfSdwo9E1udtv7GQMfa74xY7J71k3/pYbHagZDNR79zK1esF7Z3BNxaQ/4OZ5WdK4GiAO2j1tn40FDWLMJ3e+HaNferwnSi95Br00og9JjgvZWHLJkH6lcSu2/DbMjf4CN0vyYEHbPPAupeHpX/aXbE2AHgOsFyAv/fprCR8R31ahJxB8b/1TFsY8h1P7Dwi0V+qWvWzM+WX6y2lClDjn0nuJqccZlbr3181wnPIWT8AjVK52WfE1m7kIgJKgjruiCMvM0knxeyz7e5rmbbQ+r+fup7aG9Os0ZDILhkPsk8t3Bzgxb1f67lNm/S+O6q6IVV6un697gt5xYTKcn2nShqSrEVQfSvUXt2UWeQLL5+JaWuDpuOLGDSH2zVE2cqp25ITwRdv/x7zfNqagzVdODbsXMo/je9G9Wyff82Igz9KPA/O6oGbWUYHW6fCytnjOejTyHTRhXnrFLJP+erJ0svb1rE552q8krSlqxS37rvw3m1xHfU1j0jpgSm8RHrsWeU709bdre1yYlzJLh/rzPV8aqcNF9+Np+pnjK3LX96Z+TBssKKntPDj77v2//exq+YWZZTWVyyfAK7+WaZnJ1eHbg23O8b1+nSiKg3Ezt+WOHfNSk3dxZHOgAAAAAAAAAAAAAAAAAAAAAAAAAAAAAAAAAAAAAAAAAAAAAAAAAAAAAAAAAAAAAAAAAAAAAAGBS/AJwej1ELdZhYAAAAAElFTkSuQmCC;" parent="1" vertex="1">
                    <mxGeometry x="260" y="190" width="25" height="25" as="geometry"/>
                </mxCell>
                <mxCell id="203" value="" style="shape=image;verticalLabelPosition=bottom;labelBackgroundColor=default;verticalAlign=top;aspect=fixed;imageAspect=0;image=data:image/png,iVBORw0KGgoAAAANSUhEUgAAAgAAAAIACAMAAADDpiTIAAAACXBIWXMAAAsTAAALEwEAmpwYAAADAFBMVEVHcEwbluEnk+slluomk+YfjuYbkeYkku8gku4VlvIgk+sck+oejeUfjeYQkeQRessRi8silOkUedIkku8blekSjeoMkuwRaKUclukmkucvg8QZkuwglOkglukAgegejuEgku6NJyEnkOslj+Ugk+oikOYlluooiNgjlOogkuoghuQDjN4Ylekake4WlvElj+kfkukfjugckusRj+Elj+wgjugeluonj/cKkeAfjeYlj+kfk+shj+UgkukikOsgku4jk+odlOoek+sjlOsmkOwSkuEakukgjecbk+kfk+sjk+oik+okkesikOgVk+kfkusZl/IZku4Fh/Mkk+0il+0ckecljuYZg/Ufluskkuonk+sal+kKivMskegBk+Mgkuojkusjk+skk+8kk+oolOYRjucik+4fkuscjeIblfIdk+wkj+gWku0blekUj+gJleogi+omkewgkukIf+UhlOsQit0AlNIQj+Qkkuoikuskk+4gkewik+sXleokkeselukKitwZkOcclOofl+kikuokkuYllusdlOwhku4Aj9snkewWkeggkuohk+okl+ogk+sljucgluomlukjjeojku0gkOoSkOUPkeUllekfj+gkke4NjOclj+0eluosj+kakfAfleokk+kkkOkmkOokluokjegekuomkuofkOglkOsfk+wil+ofkuoeluoikuwek+kdlukfk+oblvAgk+ojkucgk+ggk+4elOkmi+obk+4alusak+odkuwlk+oglukbkeYnk+wfluskk+oKkOMZj+0lk+oakOkfleoal+kblucgk+okl+skluohluwAW+8kke4ekesbk+4jl+kek+ojl+kkkuglku4nkuogku0fjOoQjOQak+gfkesjlu4hlu4hluwjluwfk+4fk+kgk+sjkusgkusjlO4kkusek+sklukjluskluokkuomlushk+sfluokkukgkukjku0jk+sllukflushlO4jlu0flu4jk+ojle4el+kik+olk+ofk+omlOty4qXMAAAA3XRSTlMANdiDQnZBkqUZfYYxdz0HDFYJk2kVIQNoQwVVWOoOK6YBlCz8LoUMR8MdIzRRG2tzgmY4i0C/EB14gu9kO5+jTaSaj5o2U3V78fTfrmA2gh0kGc7XSncW3Ifazx4xG3ar65HkQEJkohoaWnxeYTInSZ5xDLAmETr23F1X7nC8uRgprvezjIyWpxKmTIX44X96tuaJVKhFP4d/qS+J0TNa7P7Bo+Ntx7p3Yt60ysvovv3iTdegZum3UZCPX23J5ULUx70tT8ZD9L5XjNy92gmPupKrzah+1cL5dj14iJG90wwAABBXSURBVHja7J0JkFTFHYfbRCReWViygIAcioCgAlERCAQVVFDxBlSEEAhgNKCACWppAiqeUaOClnfFo1KGlBU1Jim1jIkGo7HMWbkq3TtvZ9jNLocLBARNNtlF2JkF3Jnumdfdr+f7qiyrrPo77/3+377Xr9/RQgAAAAAAAAAAAAAAAAAAAAAAAAAAAAAAAAAAAAAAAAAAAAAAAAAAAAAAAAAAAAAAAAAAAAAAAAAAAAAAAAAAAAAAAAAAAAAAAOxF93sP0uDcK0gsKM6pV1ILVdeJ1AKiUekKIBtILRwWSM3+txhwFbkFwyhpwInkFgwdTAQ4gNwQABAAEAAQABAAEAAQABAAEAAQABAAEAAQABAAEAAQABAAEAAQABAAEAAQABAAEAAQABAAEAAQABAAEAAQABAAEAAQABAAEAAQABAAYuIrfCewvFlpIsAycguHGt3u18q3SS0glm2WSgcpbya0sOhz2P4arLmMxAAAAAAAAAAAAMxYcEKXjgXTZfwZe5Q/OFqjvGOXK99sW36j1q+fMI9+lZjKzVJWa6Dkhgdz65ukVFrl8jM51Us3K53q6mq55SR6VlJ26K7dqNSGnPLbtO/mKvXzbHm9/t3gJnpWSkZKgw6+lq3PGNzQH9FaPVkp/fLldK2EPGHQQDUgW29SflFrNSuHOmc/kw5+Nltv8BessoMAnglEAARAAARAAARAAARAAARAAARAAARAAN8EOPY5BChrATJy7TkIUL4C9G/52TkIUK4C3PvJLbD0eAQoSwEqol3bLTdejQBlKEBdzm8fjgBlJ8ArbZ6YqTkZAcpLgKpoj5//EwKUlQA7An8mDQHa59l97GDmZAQoGwEy+9zBUxCgTAQ45VO24SIEKAsBKqN9b8I2eSYClIMAkz59K9YiQPgCHNPeZnyAAMEL0P5XDOsQIHABxra/G3IjAoQtwLp8O9eEACEL8ET+12bXIkDAAkwqYFtuQIBgBehdyK6oCxEgVAHuLGhf1CoECFSAdIG7djUCBCnA0EL3ph4BghRgU4F7ptRmBAhQgCGF7458HAHCE2B+4dtTK3siQHACaH38qh4BQhNgqdYOJflpcQTYJ/dpblOv8hJgQPACpDW3qTGxAiw0acHo4gTIPlDn68qhT+h+PVU+klQBBho0UL5qOFjaxerW6tP1i2vlBfGnskjb66hTUg14Xrv/KvdRmC/o6xNVZcu3ave/1sbKkTX6Yn5fJNgAvbU7Gwbmlo+P9Nb+VI25HxuvyGj9urSzcugSk8Pii4k1oOpEncU7f3H+XpdMOuWH7fmljfPX6FQ/dIGNRN4xOK+lIgGh8G2DoW1Kdia4UNigTK5OthJcICyRRgLIKUQXBlOkGXVEFwYPmPVfyRlkFwRnGR4BctbCgSQTmQrAlWAQdJPG3Eh6AbCfuQCO3ha8Y3zfz2kw/+G25Q/P16nu+7uqtuULFmmVT7irTXXlrbfrlD89uu2PDyyufJ8sMBdAznTR/8na56yay7PVlzXqznhFbZZv3SR1r5r751Sf3rztH2rdiaq/qrjy8/PmeXARAkxw0P8KgzHLpmx5g/6sR1SRLb/TIKUcgTbqX2vlPoWd1i/PP1BbpYz7r1x8NcLooYrBu6u7mlTnrB+d1k9L/bK1urvJr79ZTHlK9skX6P2qiEPA+/YFMDpiPbq72sXKoZe2Vhe5cqhR+UN5rwKLEWByQgQ4pJghrzcPhR5qUv75fIHKYpiOAIkXoJgDgIu5IAQorQD9ijoCyOMRIOEC9C5OgKkIkHABqooTYDoCJFyAkcUJECFAwgUYUpwAsgcCJFuAy4oUYG72f9X1mKuvv3FAl9k775b0PaLLY8NenXLaYATwW4BpqeIEmChEn84DZt3TOkNfXV2dkp+8/rDrv9RPf+CKPggQ5lXArptO7eWianf+q+a+MSMRwD8BukmLREf3QoCgpoINSE89CQHKWYDm88XaVxHAHwEi6YD6VxDAFwFecND/5hijXyGAHwKMk46I/ogAPggwXDoj/V0EcC9AL+mQrZUI4FqAIS4FkOmXEcCxAEIqpwo8gwCOBah3KoBS63sggFMBfuD2CKDUhp4I4FKA59wK0HwGuhgBXAowUrpmCgK4FMDNZHDulQBjALcCHO1YgJsQwK0AnR0PAU5DALcC9FMuh4FqA/MAjgUQdU4F+AkCuBZgscP+fySXIIBrAYSsdWfAj5kKdi/Axw6HgGMRwL0Abzm7IaQauBvogQCi0dkw8DAE8EGA2a4E2MQDIV4I4Gw6+CgE8EOAR5wMAJTBGqQIEIsATg4BupOArgQo8jNxJRNgVJwC3OLiANDBQACjp5iP3F09w2Q7hxcnwF9aq4eZbPs/WsuNvpG5tNBgo5R1AxoM+i+eNLlk7be7usJkO1dmf327Qfmq1uq7TCZKTsopV/rlvQsNdpH1W0LpShMBRJ3+L72UrX5cpnQjbMr5ce3FX1NtdnOjvgBzcn59nf6uazxzW297PniY4cthTc2x6hDNz62+M9KqlnJH2/smGb0fT0XLi9h22dT2Dbr+uuXvaeTa3Wr3U3KS8fuhA487UIPz9iw/T6f6uL0OU1/X+fXjpu1RXVnctlcUV94+/7J6D4AFZ7zjJatXgJUE7hfj0zbPANFYEveJqj9HNm8IKjmKzD1iaJPtGaCnCN0bJq+zfPXX3P+/ErsfHHVryyJYlieAPpK/JnkPOG3x9Eg6eCBcseSsa3oc8/LqGumMp+mAs84feeyhX77f7auA0Zh8W9m118Q/dISSMvu2ay5O7z4CO3wLRMn0o3m6f/bO7UxVQylJST9Qm7/Vbvsr/yMhZPI8ATYmIqKQifJ8FvBHRBQw21Qmz+IhbyhSChelfptn8D9RVhNTuGzcP9/FH+f/kM/+K/LOUfyblEI9+Ocd/LfQSzICCJX15xQwSbmWnAKl/8JCJqnvIKggj/3RiJmF3aV4jbhCPPYfXPBtqlmkFdzA/77jNe5T/pDAgiEllYpGDNK7Uf0lcgvob/8I/a8+/I3Ywuj9dcOPN3pU5UyyS9T4vra25UXSln92P1QY3TOuwwHmL/twCkiWABt+87PvNLN6XN9TT+jwjUGHVBX7sNoNhJoo/lnqpxW/ykRwomZ4epdagOcRIFEzPCV/Xvl1BEjQAUC9VXIBXiDWBAnQWPo3Fs4i1gTxbukFuJRUEzQE7Fd6Aa4j1+RwbQwvrT1OrMlhbgwCvMdVQGL4II7XVmchQGJ4OA4BTiXXpBDP5/0eINikcE0sAkzlFJCUa8ADYxFgHgIkRID1sfRfrCTahDAoHgHWkGwyyMT09aJHiTYZLI5JgJFEm4gRQDqu75e9T7iJYEJsX7D7kHCTQEVsApBtEpgUW/+trlYCppNAC+MTYBP5+i9AXYxfsb2YfP0/AAyKUYBbCNh74jwAiBXcDPD+APBOnAKMQQDfaYiz/2IsAftO91gFmJYiYb+piXkxCxL2nIkxC/ABEXs9BMzE3H9xNCF7zSVxCzCcjH0+AKTj7r/oSco+CzAhdgH6kLLHxH8A4DLAa1ZYEIAFI/wlY6H/4nVy9paDbAgwjpx9pcZG/8X3uB3kK0OtCDCIoD1li5X+i94k7SlP2hGAy4AyngPgsUCPedGWAI+RtY+stdV/cSyXAf6h5FJrAixj7UgPuVbY478I4B1RN4sC1CCAdzxisf9iEQKU7wiwhesRwLcR4DCrAgwmcs8EqBN2YS7QM75mWYALidwrJlnuv3iWQYBPbLTdf/FNQveHlDzXugAMAryaA7Lff3ERsfvDXAcC8NFwfzjcQf/FQoUBnpARTliHAJ4wz40AdyOAH9S46b+4kuj9uAKodCRAV7L3gkuEKzKcAzygyVn/xdkI4MEJoJM7AQZxIeieg4VDuBAs1ymAXbxNA8r4BNDM3+mAU2rlaKf9F8vogUvUto+FY2rogksB/ue6/2I+XXDYf9XZuQDLaYNDAZ4R7uEc4I4tHvRfTKAPzq4AL/BBgCFMBrpiovCC9Qjghhv86L84AgHKdwDQwky+FFG+A4CdNCCA/QtAeYY3/Rfv0g/7zPGn/2Ia7bD+979d+MRWWmKZRq/6L75IRywPAK/ySwCRpidWGe1Z/8Xt9MTmAOA63/ovZtIWa6TkOuEfDAMtDgA87L/oxWygLTJLfBSAO0LW/v77eNl/MRoBrAwA1VDhKXwvyEr/n/K1/+Im2mNBgDeEv3AIiP/v/6ce91/8ng7Fzd0+919cToNingDcLvzmbpoUK3We91/M+H979xISVRQHYPxP5MIKcnpZTUo5CZVG9sACrSSowKzondAie9DDNpFGRQVZEUIvImgT9IBqU9QioogWLVq1bhX35pnRIjVtcrJoEalTiajlzNzROed8v50rZb5z7zn33LlXGiVTq6S8R1RKnuDo1B8APCWWxP4ZooEsQlndXzLYC7C6v8gZWlndX0TVkcv7/mO06S9jyeX5/o9O/XlbgPcD4NtonfrLPL4a5K2waKaREeDl+b9Bt/5yineHeqY9ZV4BEIuTDACPvHMvio5YB3p0/nc3aNlfjtHOG1WiqelMAh4I+UVb9eRLfPtnvb79eVw88QEQEa0d592BibkgmvvIAEjEA937y1UiJrD8myf6e/Cec0Cc039brZigkWVAfErFDJmfGADxeCimOMYpIHb1JWKO2/SMdfenQYxyk68GxOaFGOYDTWPZ/N1tWn85xE0B+1b/PazjSZEBHv7qvBiJ20IDE8kQQ01lITiAw3+ZmGsD2wH/01wrwgiwltGHf5fX7e/J3K/WvWK8LDL3e/gvEBscddpp3ZfpmWKHjbTupc5p9Yk1XhK817XfVLHJQ5r3yO82jxG7FCguB//kd93GG2KdAF8R+uPjZbFR7RfSdwo9E1udtv7GQMfa74xY7J71k3/pYbHagZDNR79zK1esF7Z3BNxaQ/4OZ5WdK4GiAO2j1tn40FDWLMJ3e+HaNferwnSi95Br00og9JjgvZWHLJkH6lcSu2/DbMjf4CN0vyYEHbPPAupeHpX/aXbE2AHgOsFyAv/fprCR8R31ahJxB8b/1TFsY8h1P7Dwi0V+qWvWzM+WX6y2lClDjn0nuJqccZlbr3181wnPIWT8AjVK52WfE1m7kIgJKgjruiCMvM0knxeyz7e5rmbbQ+r+fup7aG9Os0ZDILhkPsk8t3Bzgxb1f67lNm/S+O6q6IVV6un697gt5xYTKcn2nShqSrEVQfSvUXt2UWeQLL5+JaWuDpuOLGDSH2zVE2cqp25ITwRdv/x7zfNqagzVdODbsXMo/je9G9Wyff82Igz9KPA/O6oGbWUYHW6fCytnjOejTyHTRhXnrFLJP+erJ0svb1rE552q8krSlqxS37rvw3m1xHfU1j0jpgSm8RHrsWeU709bdre1yYlzJLh/rzPV8aqcNF9+Np+pnjK3LX96Z+TBssKKntPDj77v2//exq+YWZZTWVyyfAK7+WaZnJ1eHbg23O8b1+nSiKg3Ezt+WOHfNSk3dxZHOgAAAAAAAAAAAAAAAAAAAAAAAAAAAAAAAAAAAAAAAAAAAAAAAAAAAAAAAAAAAAAAAAAAAAAAGBS/AJwej1ELdZhYAAAAAElFTkSuQmCC;" parent="1" vertex="1">
                    <mxGeometry x="440" y="192" width="25" height="25" as="geometry"/>
                </mxCell>
                <mxCell id="204" value="" style="shape=image;verticalLabelPosition=bottom;labelBackgroundColor=default;verticalAlign=top;aspect=fixed;imageAspect=0;image=data:image/png,iVBORw0KGgoAAAANSUhEUgAAAgAAAAIACAMAAADDpiTIAAAACXBIWXMAAAsTAAALEwEAmpwYAAADAFBMVEVHcEwbluEnk+slluomk+YfjuYbkeYkku8gku4VlvIgk+sck+oejeUfjeYQkeQRessRi8silOkUedIkku8blekSjeoMkuwRaKUclukmkucvg8QZkuwglOkglukAgegejuEgku6NJyEnkOslj+Ugk+oikOYlluooiNgjlOogkuoghuQDjN4Ylekake4WlvElj+kfkukfjugckusRj+Elj+wgjugeluonj/cKkeAfjeYlj+kfk+shj+UgkukikOsgku4jk+odlOoek+sjlOsmkOwSkuEakukgjecbk+kfk+sjk+oik+okkesikOgVk+kfkusZl/IZku4Fh/Mkk+0il+0ckecljuYZg/Ufluskkuonk+sal+kKivMskegBk+Mgkuojkusjk+skk+8kk+oolOYRjucik+4fkuscjeIblfIdk+wkj+gWku0blekUj+gJleogi+omkewgkukIf+UhlOsQit0AlNIQj+Qkkuoikuskk+4gkewik+sXleokkeselukKitwZkOcclOofl+kikuokkuYllusdlOwhku4Aj9snkewWkeggkuohk+okl+ogk+sljucgluomlukjjeojku0gkOoSkOUPkeUllekfj+gkke4NjOclj+0eluosj+kakfAfleokk+kkkOkmkOokluokjegekuomkuofkOglkOsfk+wil+ofkuoeluoikuwek+kdlukfk+oblvAgk+ojkucgk+ggk+4elOkmi+obk+4alusak+odkuwlk+oglukbkeYnk+wfluskk+oKkOMZj+0lk+oakOkfleoal+kblucgk+okl+skluohluwAW+8kke4ekesbk+4jl+kek+ojl+kkkuglku4nkuogku0fjOoQjOQak+gfkesjlu4hlu4hluwjluwfk+4fk+kgk+sjkusgkusjlO4kkusek+sklukjluskluokkuomlushk+sfluokkukgkukjku0jk+sllukflushlO4jlu0flu4jk+ojle4el+kik+olk+ofk+omlOty4qXMAAAA3XRSTlMANdiDQnZBkqUZfYYxdz0HDFYJk2kVIQNoQwVVWOoOK6YBlCz8LoUMR8MdIzRRG2tzgmY4i0C/EB14gu9kO5+jTaSaj5o2U3V78fTfrmA2gh0kGc7XSncW3Ifazx4xG3ar65HkQEJkohoaWnxeYTInSZ5xDLAmETr23F1X7nC8uRgprvezjIyWpxKmTIX44X96tuaJVKhFP4d/qS+J0TNa7P7Bo+Ntx7p3Yt60ysvovv3iTdegZum3UZCPX23J5ULUx70tT8ZD9L5XjNy92gmPupKrzah+1cL5dj14iJG90wwAABBXSURBVHja7J0JkFTFHYfbRCReWViygIAcioCgAlERCAQVVFDxBlSEEAhgNKCACWppAiqeUaOClnfFo1KGlBU1Jim1jIkGo7HMWbkq3TtvZ9jNLocLBARNNtlF2JkF3Jnumdfdr+f7qiyrrPo77/3+377Xr9/RQgAAAAAAAAAAAAAAAAAAAAAAAAAAAAAAAAAAAAAAAAAAAAAAAAAAAAAAAAAAAAAAAAAAAAAAAAAAAAAAAAAAAAAAAAAAAAAAAOxF93sP0uDcK0gsKM6pV1ILVdeJ1AKiUekKIBtILRwWSM3+txhwFbkFwyhpwInkFgwdTAQ4gNwQABAAEAAQABAAEAAQABAAEAAQABAAEAAQABAAEAAQABAAEAAQABAAEAAQABAAEAAQABAAEAAQABAAEAAQABAAEAAQABAAEAAQABAAYuIrfCewvFlpIsAycguHGt3u18q3SS0glm2WSgcpbya0sOhz2P4arLmMxAAAAAAAAAAAAMxYcEKXjgXTZfwZe5Q/OFqjvGOXK99sW36j1q+fMI9+lZjKzVJWa6Dkhgdz65ukVFrl8jM51Us3K53q6mq55SR6VlJ26K7dqNSGnPLbtO/mKvXzbHm9/t3gJnpWSkZKgw6+lq3PGNzQH9FaPVkp/fLldK2EPGHQQDUgW29SflFrNSuHOmc/kw5+Nltv8BessoMAnglEAARAAARAAARAAARAAARAAARAAARAAN8EOPY5BChrATJy7TkIUL4C9G/52TkIUK4C3PvJLbD0eAQoSwEqol3bLTdejQBlKEBdzm8fjgBlJ8ArbZ6YqTkZAcpLgKpoj5//EwKUlQA7An8mDQHa59l97GDmZAQoGwEy+9zBUxCgTAQ45VO24SIEKAsBKqN9b8I2eSYClIMAkz59K9YiQPgCHNPeZnyAAMEL0P5XDOsQIHABxra/G3IjAoQtwLp8O9eEACEL8ET+12bXIkDAAkwqYFtuQIBgBehdyK6oCxEgVAHuLGhf1CoECFSAdIG7djUCBCnA0EL3ph4BghRgU4F7ptRmBAhQgCGF7458HAHCE2B+4dtTK3siQHACaH38qh4BQhNgqdYOJflpcQTYJ/dpblOv8hJgQPACpDW3qTGxAiw0acHo4gTIPlDn68qhT+h+PVU+klQBBho0UL5qOFjaxerW6tP1i2vlBfGnskjb66hTUg14Xrv/KvdRmC/o6xNVZcu3ave/1sbKkTX6Yn5fJNgAvbU7Gwbmlo+P9Nb+VI25HxuvyGj9urSzcugSk8Pii4k1oOpEncU7f3H+XpdMOuWH7fmljfPX6FQ/dIGNRN4xOK+lIgGh8G2DoW1Kdia4UNigTK5OthJcICyRRgLIKUQXBlOkGXVEFwYPmPVfyRlkFwRnGR4BctbCgSQTmQrAlWAQdJPG3Eh6AbCfuQCO3ha8Y3zfz2kw/+G25Q/P16nu+7uqtuULFmmVT7irTXXlrbfrlD89uu2PDyyufJ8sMBdAznTR/8na56yay7PVlzXqznhFbZZv3SR1r5r751Sf3rztH2rdiaq/qrjy8/PmeXARAkxw0P8KgzHLpmx5g/6sR1SRLb/TIKUcgTbqX2vlPoWd1i/PP1BbpYz7r1x8NcLooYrBu6u7mlTnrB+d1k9L/bK1urvJr79ZTHlK9skX6P2qiEPA+/YFMDpiPbq72sXKoZe2Vhe5cqhR+UN5rwKLEWByQgQ4pJghrzcPhR5qUv75fIHKYpiOAIkXoJgDgIu5IAQorQD9ijoCyOMRIOEC9C5OgKkIkHABqooTYDoCJFyAkcUJECFAwgUYUpwAsgcCJFuAy4oUYG72f9X1mKuvv3FAl9k775b0PaLLY8NenXLaYATwW4BpqeIEmChEn84DZt3TOkNfXV2dkp+8/rDrv9RPf+CKPggQ5lXArptO7eWianf+q+a+MSMRwD8BukmLREf3QoCgpoINSE89CQHKWYDm88XaVxHAHwEi6YD6VxDAFwFecND/5hijXyGAHwKMk46I/ogAPggwXDoj/V0EcC9AL+mQrZUI4FqAIS4FkOmXEcCxAEIqpwo8gwCOBah3KoBS63sggFMBfuD2CKDUhp4I4FKA59wK0HwGuhgBXAowUrpmCgK4FMDNZHDulQBjALcCHO1YgJsQwK0AnR0PAU5DALcC9FMuh4FqA/MAjgUQdU4F+AkCuBZgscP+fySXIIBrAYSsdWfAj5kKdi/Axw6HgGMRwL0Abzm7IaQauBvogQCi0dkw8DAE8EGA2a4E2MQDIV4I4Gw6+CgE8EOAR5wMAJTBGqQIEIsATg4BupOArgQo8jNxJRNgVJwC3OLiANDBQACjp5iP3F09w2Q7hxcnwF9aq4eZbPs/WsuNvpG5tNBgo5R1AxoM+i+eNLlk7be7usJkO1dmf327Qfmq1uq7TCZKTsopV/rlvQsNdpH1W0LpShMBRJ3+L72UrX5cpnQjbMr5ce3FX1NtdnOjvgBzcn59nf6uazxzW297PniY4cthTc2x6hDNz62+M9KqlnJH2/smGb0fT0XLi9h22dT2Dbr+uuXvaeTa3Wr3U3KS8fuhA487UIPz9iw/T6f6uL0OU1/X+fXjpu1RXVnctlcUV94+/7J6D4AFZ7zjJatXgJUE7hfj0zbPANFYEveJqj9HNm8IKjmKzD1iaJPtGaCnCN0bJq+zfPXX3P+/ErsfHHVryyJYlieAPpK/JnkPOG3x9Eg6eCBcseSsa3oc8/LqGumMp+mAs84feeyhX77f7auA0Zh8W9m118Q/dISSMvu2ay5O7z4CO3wLRMn0o3m6f/bO7UxVQylJST9Qm7/Vbvsr/yMhZPI8ATYmIqKQifJ8FvBHRBQw21Qmz+IhbyhSChelfptn8D9RVhNTuGzcP9/FH+f/kM/+K/LOUfyblEI9+Ocd/LfQSzICCJX15xQwSbmWnAKl/8JCJqnvIKggj/3RiJmF3aV4jbhCPPYfXPBtqlmkFdzA/77jNe5T/pDAgiEllYpGDNK7Uf0lcgvob/8I/a8+/I3Ywuj9dcOPN3pU5UyyS9T4vra25UXSln92P1QY3TOuwwHmL/twCkiWABt+87PvNLN6XN9TT+jwjUGHVBX7sNoNhJoo/lnqpxW/ykRwomZ4epdagOcRIFEzPCV/Xvl1BEjQAUC9VXIBXiDWBAnQWPo3Fs4i1gTxbukFuJRUEzQE7Fd6Aa4j1+RwbQwvrT1OrMlhbgwCvMdVQGL4II7XVmchQGJ4OA4BTiXXpBDP5/0eINikcE0sAkzlFJCUa8ADYxFgHgIkRID1sfRfrCTahDAoHgHWkGwyyMT09aJHiTYZLI5JgJFEm4gRQDqu75e9T7iJYEJsX7D7kHCTQEVsApBtEpgUW/+trlYCppNAC+MTYBP5+i9AXYxfsb2YfP0/AAyKUYBbCNh74jwAiBXcDPD+APBOnAKMQQDfaYiz/2IsAftO91gFmJYiYb+piXkxCxL2nIkxC/ABEXs9BMzE3H9xNCF7zSVxCzCcjH0+AKTj7r/oSco+CzAhdgH6kLLHxH8A4DLAa1ZYEIAFI/wlY6H/4nVy9paDbAgwjpx9pcZG/8X3uB3kK0OtCDCIoD1li5X+i94k7SlP2hGAy4AyngPgsUCPedGWAI+RtY+stdV/cSyXAf6h5FJrAixj7UgPuVbY478I4B1RN4sC1CCAdzxisf9iEQKU7wiwhesRwLcR4DCrAgwmcs8EqBN2YS7QM75mWYALidwrJlnuv3iWQYBPbLTdf/FNQveHlDzXugAMAryaA7Lff3ERsfvDXAcC8NFwfzjcQf/FQoUBnpARTliHAJ4wz40AdyOAH9S46b+4kuj9uAKodCRAV7L3gkuEKzKcAzygyVn/xdkI4MEJoJM7AQZxIeieg4VDuBAs1ymAXbxNA8r4BNDM3+mAU2rlaKf9F8vogUvUto+FY2rogksB/ue6/2I+XXDYf9XZuQDLaYNDAZ4R7uEc4I4tHvRfTKAPzq4AL/BBgCFMBrpiovCC9Qjghhv86L84AgHKdwDQwky+FFG+A4CdNCCA/QtAeYY3/Rfv0g/7zPGn/2Ia7bD+979d+MRWWmKZRq/6L75IRywPAK/ySwCRpidWGe1Z/8Xt9MTmAOA63/ovZtIWa6TkOuEfDAMtDgA87L/oxWygLTJLfBSAO0LW/v77eNl/MRoBrAwA1VDhKXwvyEr/n/K1/+Im2mNBgDeEv3AIiP/v/6ce91/8ng7Fzd0+919cToNingDcLvzmbpoUK3We91/M+H979xISVRQHYPxP5MIKcnpZTUo5CZVG9sACrSSowKzondAie9DDNpFGRQVZEUIvImgT9IBqU9QioogWLVq1bhX35pnRIjVtcrJoEalTiajlzNzROed8v50rZb5z7zn33LlXGiVTq6S8R1RKnuDo1B8APCWWxP4ZooEsQlndXzLYC7C6v8gZWlndX0TVkcv7/mO06S9jyeX5/o9O/XlbgPcD4NtonfrLPL4a5K2waKaREeDl+b9Bt/5yineHeqY9ZV4BEIuTDACPvHMvio5YB3p0/nc3aNlfjtHOG1WiqelMAh4I+UVb9eRLfPtnvb79eVw88QEQEa0d592BibkgmvvIAEjEA937y1UiJrD8myf6e/Cec0Cc039brZigkWVAfErFDJmfGADxeCimOMYpIHb1JWKO2/SMdfenQYxyk68GxOaFGOYDTWPZ/N1tWn85xE0B+1b/PazjSZEBHv7qvBiJ20IDE8kQQ01lITiAw3+ZmGsD2wH/01wrwgiwltGHf5fX7e/J3K/WvWK8LDL3e/gvEBscddpp3ZfpmWKHjbTupc5p9Yk1XhK817XfVLHJQ5r3yO82jxG7FCguB//kd93GG2KdAF8R+uPjZbFR7RfSdwo9E1udtv7GQMfa74xY7J71k3/pYbHagZDNR79zK1esF7Z3BNxaQ/4OZ5WdK4GiAO2j1tn40FDWLMJ3e+HaNferwnSi95Br00og9JjgvZWHLJkH6lcSu2/DbMjf4CN0vyYEHbPPAupeHpX/aXbE2AHgOsFyAv/fprCR8R31ahJxB8b/1TFsY8h1P7Dwi0V+qWvWzM+WX6y2lClDjn0nuJqccZlbr3181wnPIWT8AjVK52WfE1m7kIgJKgjruiCMvM0knxeyz7e5rmbbQ+r+fup7aG9Os0ZDILhkPsk8t3Bzgxb1f67lNm/S+O6q6IVV6un697gt5xYTKcn2nShqSrEVQfSvUXt2UWeQLL5+JaWuDpuOLGDSH2zVE2cqp25ITwRdv/x7zfNqagzVdODbsXMo/je9G9Wyff82Igz9KPA/O6oGbWUYHW6fCytnjOejTyHTRhXnrFLJP+erJ0svb1rE552q8krSlqxS37rvw3m1xHfU1j0jpgSm8RHrsWeU709bdre1yYlzJLh/rzPV8aqcNF9+Np+pnjK3LX96Z+TBssKKntPDj77v2//exq+YWZZTWVyyfAK7+WaZnJ1eHbg23O8b1+nSiKg3Ezt+WOHfNSk3dxZHOgAAAAAAAAAAAAAAAAAAAAAAAAAAAAAAAAAAAAAAAAAAAAAAAAAAAAAAAAAAAAAAAAAAAAAAGBS/AJwej1ELdZhYAAAAAElFTkSuQmCC;" parent="1" vertex="1">
                    <mxGeometry x="79.5" y="320" width="25" height="25" as="geometry"/>
                </mxCell>
                <mxCell id="205" value="" style="shape=image;verticalLabelPosition=bottom;labelBackgroundColor=default;verticalAlign=top;aspect=fixed;imageAspect=0;image=data:image/png,iVBORw0KGgoAAAANSUhEUgAAAgAAAAIACAMAAADDpiTIAAAACXBIWXMAAAsTAAALEwEAmpwYAAADAFBMVEVHcEwbluEnk+slluomk+YfjuYbkeYkku8gku4VlvIgk+sck+oejeUfjeYQkeQRessRi8silOkUedIkku8blekSjeoMkuwRaKUclukmkucvg8QZkuwglOkglukAgegejuEgku6NJyEnkOslj+Ugk+oikOYlluooiNgjlOogkuoghuQDjN4Ylekake4WlvElj+kfkukfjugckusRj+Elj+wgjugeluonj/cKkeAfjeYlj+kfk+shj+UgkukikOsgku4jk+odlOoek+sjlOsmkOwSkuEakukgjecbk+kfk+sjk+oik+okkesikOgVk+kfkusZl/IZku4Fh/Mkk+0il+0ckecljuYZg/Ufluskkuonk+sal+kKivMskegBk+Mgkuojkusjk+skk+8kk+oolOYRjucik+4fkuscjeIblfIdk+wkj+gWku0blekUj+gJleogi+omkewgkukIf+UhlOsQit0AlNIQj+Qkkuoikuskk+4gkewik+sXleokkeselukKitwZkOcclOofl+kikuokkuYllusdlOwhku4Aj9snkewWkeggkuohk+okl+ogk+sljucgluomlukjjeojku0gkOoSkOUPkeUllekfj+gkke4NjOclj+0eluosj+kakfAfleokk+kkkOkmkOokluokjegekuomkuofkOglkOsfk+wil+ofkuoeluoikuwek+kdlukfk+oblvAgk+ojkucgk+ggk+4elOkmi+obk+4alusak+odkuwlk+oglukbkeYnk+wfluskk+oKkOMZj+0lk+oakOkfleoal+kblucgk+okl+skluohluwAW+8kke4ekesbk+4jl+kek+ojl+kkkuglku4nkuogku0fjOoQjOQak+gfkesjlu4hlu4hluwjluwfk+4fk+kgk+sjkusgkusjlO4kkusek+sklukjluskluokkuomlushk+sfluokkukgkukjku0jk+sllukflushlO4jlu0flu4jk+ojle4el+kik+olk+ofk+omlOty4qXMAAAA3XRSTlMANdiDQnZBkqUZfYYxdz0HDFYJk2kVIQNoQwVVWOoOK6YBlCz8LoUMR8MdIzRRG2tzgmY4i0C/EB14gu9kO5+jTaSaj5o2U3V78fTfrmA2gh0kGc7XSncW3Ifazx4xG3ar65HkQEJkohoaWnxeYTInSZ5xDLAmETr23F1X7nC8uRgprvezjIyWpxKmTIX44X96tuaJVKhFP4d/qS+J0TNa7P7Bo+Ntx7p3Yt60ysvovv3iTdegZum3UZCPX23J5ULUx70tT8ZD9L5XjNy92gmPupKrzah+1cL5dj14iJG90wwAABBXSURBVHja7J0JkFTFHYfbRCReWViygIAcioCgAlERCAQVVFDxBlSEEAhgNKCACWppAiqeUaOClnfFo1KGlBU1Jim1jIkGo7HMWbkq3TtvZ9jNLocLBARNNtlF2JkF3Jnumdfdr+f7qiyrrPo77/3+377Xr9/RQgAAAAAAAAAAAAAAAAAAAAAAAAAAAAAAAAAAAAAAAAAAAAAAAAAAAAAAAAAAAAAAAAAAAAAAAAAAAAAAAAAAAAAAAAAAAAAAAOxF93sP0uDcK0gsKM6pV1ILVdeJ1AKiUekKIBtILRwWSM3+txhwFbkFwyhpwInkFgwdTAQ4gNwQABAAEAAQABAAEAAQABAAEAAQABAAEAAQABAAEAAQABAAEAAQABAAEAAQABAAEAAQABAAEAAQABAAEAAQABAAEAAQABAAEAAQABAAYuIrfCewvFlpIsAycguHGt3u18q3SS0glm2WSgcpbya0sOhz2P4arLmMxAAAAAAAAAAAAMxYcEKXjgXTZfwZe5Q/OFqjvGOXK99sW36j1q+fMI9+lZjKzVJWa6Dkhgdz65ukVFrl8jM51Us3K53q6mq55SR6VlJ26K7dqNSGnPLbtO/mKvXzbHm9/t3gJnpWSkZKgw6+lq3PGNzQH9FaPVkp/fLldK2EPGHQQDUgW29SflFrNSuHOmc/kw5+Nltv8BessoMAnglEAARAAARAAARAAARAAARAAARAAARAAN8EOPY5BChrATJy7TkIUL4C9G/52TkIUK4C3PvJLbD0eAQoSwEqol3bLTdejQBlKEBdzm8fjgBlJ8ArbZ6YqTkZAcpLgKpoj5//EwKUlQA7An8mDQHa59l97GDmZAQoGwEy+9zBUxCgTAQ45VO24SIEKAsBKqN9b8I2eSYClIMAkz59K9YiQPgCHNPeZnyAAMEL0P5XDOsQIHABxra/G3IjAoQtwLp8O9eEACEL8ET+12bXIkDAAkwqYFtuQIBgBehdyK6oCxEgVAHuLGhf1CoECFSAdIG7djUCBCnA0EL3ph4BghRgU4F7ptRmBAhQgCGF7458HAHCE2B+4dtTK3siQHACaH38qh4BQhNgqdYOJflpcQTYJ/dpblOv8hJgQPACpDW3qTGxAiw0acHo4gTIPlDn68qhT+h+PVU+klQBBho0UL5qOFjaxerW6tP1i2vlBfGnskjb66hTUg14Xrv/KvdRmC/o6xNVZcu3ave/1sbKkTX6Yn5fJNgAvbU7Gwbmlo+P9Nb+VI25HxuvyGj9urSzcugSk8Pii4k1oOpEncU7f3H+XpdMOuWH7fmljfPX6FQ/dIGNRN4xOK+lIgGh8G2DoW1Kdia4UNigTK5OthJcICyRRgLIKUQXBlOkGXVEFwYPmPVfyRlkFwRnGR4BctbCgSQTmQrAlWAQdJPG3Eh6AbCfuQCO3ha8Y3zfz2kw/+G25Q/P16nu+7uqtuULFmmVT7irTXXlrbfrlD89uu2PDyyufJ8sMBdAznTR/8na56yay7PVlzXqznhFbZZv3SR1r5r751Sf3rztH2rdiaq/qrjy8/PmeXARAkxw0P8KgzHLpmx5g/6sR1SRLb/TIKUcgTbqX2vlPoWd1i/PP1BbpYz7r1x8NcLooYrBu6u7mlTnrB+d1k9L/bK1urvJr79ZTHlK9skX6P2qiEPA+/YFMDpiPbq72sXKoZe2Vhe5cqhR+UN5rwKLEWByQgQ4pJghrzcPhR5qUv75fIHKYpiOAIkXoJgDgIu5IAQorQD9ijoCyOMRIOEC9C5OgKkIkHABqooTYDoCJFyAkcUJECFAwgUYUpwAsgcCJFuAy4oUYG72f9X1mKuvv3FAl9k775b0PaLLY8NenXLaYATwW4BpqeIEmChEn84DZt3TOkNfXV2dkp+8/rDrv9RPf+CKPggQ5lXArptO7eWianf+q+a+MSMRwD8BukmLREf3QoCgpoINSE89CQHKWYDm88XaVxHAHwEi6YD6VxDAFwFecND/5hijXyGAHwKMk46I/ogAPggwXDoj/V0EcC9AL+mQrZUI4FqAIS4FkOmXEcCxAEIqpwo8gwCOBah3KoBS63sggFMBfuD2CKDUhp4I4FKA59wK0HwGuhgBXAowUrpmCgK4FMDNZHDulQBjALcCHO1YgJsQwK0AnR0PAU5DALcC9FMuh4FqA/MAjgUQdU4F+AkCuBZgscP+fySXIIBrAYSsdWfAj5kKdi/Axw6HgGMRwL0Abzm7IaQauBvogQCi0dkw8DAE8EGA2a4E2MQDIV4I4Gw6+CgE8EOAR5wMAJTBGqQIEIsATg4BupOArgQo8jNxJRNgVJwC3OLiANDBQACjp5iP3F09w2Q7hxcnwF9aq4eZbPs/WsuNvpG5tNBgo5R1AxoM+i+eNLlk7be7usJkO1dmf327Qfmq1uq7TCZKTsopV/rlvQsNdpH1W0LpShMBRJ3+L72UrX5cpnQjbMr5ce3FX1NtdnOjvgBzcn59nf6uazxzW297PniY4cthTc2x6hDNz62+M9KqlnJH2/smGb0fT0XLi9h22dT2Dbr+uuXvaeTa3Wr3U3KS8fuhA487UIPz9iw/T6f6uL0OU1/X+fXjpu1RXVnctlcUV94+/7J6D4AFZ7zjJatXgJUE7hfj0zbPANFYEveJqj9HNm8IKjmKzD1iaJPtGaCnCN0bJq+zfPXX3P+/ErsfHHVryyJYlieAPpK/JnkPOG3x9Eg6eCBcseSsa3oc8/LqGumMp+mAs84feeyhX77f7auA0Zh8W9m118Q/dISSMvu2ay5O7z4CO3wLRMn0o3m6f/bO7UxVQylJST9Qm7/Vbvsr/yMhZPI8ATYmIqKQifJ8FvBHRBQw21Qmz+IhbyhSChelfptn8D9RVhNTuGzcP9/FH+f/kM/+K/LOUfyblEI9+Ocd/LfQSzICCJX15xQwSbmWnAKl/8JCJqnvIKggj/3RiJmF3aV4jbhCPPYfXPBtqlmkFdzA/77jNe5T/pDAgiEllYpGDNK7Uf0lcgvob/8I/a8+/I3Ywuj9dcOPN3pU5UyyS9T4vra25UXSln92P1QY3TOuwwHmL/twCkiWABt+87PvNLN6XN9TT+jwjUGHVBX7sNoNhJoo/lnqpxW/ykRwomZ4epdagOcRIFEzPCV/Xvl1BEjQAUC9VXIBXiDWBAnQWPo3Fs4i1gTxbukFuJRUEzQE7Fd6Aa4j1+RwbQwvrT1OrMlhbgwCvMdVQGL4II7XVmchQGJ4OA4BTiXXpBDP5/0eINikcE0sAkzlFJCUa8ADYxFgHgIkRID1sfRfrCTahDAoHgHWkGwyyMT09aJHiTYZLI5JgJFEm4gRQDqu75e9T7iJYEJsX7D7kHCTQEVsApBtEpgUW/+trlYCppNAC+MTYBP5+i9AXYxfsb2YfP0/AAyKUYBbCNh74jwAiBXcDPD+APBOnAKMQQDfaYiz/2IsAftO91gFmJYiYb+piXkxCxL2nIkxC/ABEXs9BMzE3H9xNCF7zSVxCzCcjH0+AKTj7r/oSco+CzAhdgH6kLLHxH8A4DLAa1ZYEIAFI/wlY6H/4nVy9paDbAgwjpx9pcZG/8X3uB3kK0OtCDCIoD1li5X+i94k7SlP2hGAy4AyngPgsUCPedGWAI+RtY+stdV/cSyXAf6h5FJrAixj7UgPuVbY478I4B1RN4sC1CCAdzxisf9iEQKU7wiwhesRwLcR4DCrAgwmcs8EqBN2YS7QM75mWYALidwrJlnuv3iWQYBPbLTdf/FNQveHlDzXugAMAryaA7Lff3ERsfvDXAcC8NFwfzjcQf/FQoUBnpARTliHAJ4wz40AdyOAH9S46b+4kuj9uAKodCRAV7L3gkuEKzKcAzygyVn/xdkI4MEJoJM7AQZxIeieg4VDuBAs1ymAXbxNA8r4BNDM3+mAU2rlaKf9F8vogUvUto+FY2rogksB/ue6/2I+XXDYf9XZuQDLaYNDAZ4R7uEc4I4tHvRfTKAPzq4AL/BBgCFMBrpiovCC9Qjghhv86L84AgHKdwDQwky+FFG+A4CdNCCA/QtAeYY3/Rfv0g/7zPGn/2Ia7bD+979d+MRWWmKZRq/6L75IRywPAK/ySwCRpidWGe1Z/8Xt9MTmAOA63/ovZtIWa6TkOuEfDAMtDgA87L/oxWygLTJLfBSAO0LW/v77eNl/MRoBrAwA1VDhKXwvyEr/n/K1/+Im2mNBgDeEv3AIiP/v/6ce91/8ng7Fzd0+919cToNingDcLvzmbpoUK3We91/M+H979xISVRQHYPxP5MIKcnpZTUo5CZVG9sACrSSowKzondAie9DDNpFGRQVZEUIvImgT9IBqU9QioogWLVq1bhX35pnRIjVtcrJoEalTiajlzNzROed8v50rZb5z7zn33LlXGiVTq6S8R1RKnuDo1B8APCWWxP4ZooEsQlndXzLYC7C6v8gZWlndX0TVkcv7/mO06S9jyeX5/o9O/XlbgPcD4NtonfrLPL4a5K2waKaREeDl+b9Bt/5yineHeqY9ZV4BEIuTDACPvHMvio5YB3p0/nc3aNlfjtHOG1WiqelMAh4I+UVb9eRLfPtnvb79eVw88QEQEa0d592BibkgmvvIAEjEA937y1UiJrD8myf6e/Cec0Cc039brZigkWVAfErFDJmfGADxeCimOMYpIHb1JWKO2/SMdfenQYxyk68GxOaFGOYDTWPZ/N1tWn85xE0B+1b/PazjSZEBHv7qvBiJ20IDE8kQQ01lITiAw3+ZmGsD2wH/01wrwgiwltGHf5fX7e/J3K/WvWK8LDL3e/gvEBscddpp3ZfpmWKHjbTupc5p9Yk1XhK817XfVLHJQ5r3yO82jxG7FCguB//kd93GG2KdAF8R+uPjZbFR7RfSdwo9E1udtv7GQMfa74xY7J71k3/pYbHagZDNR79zK1esF7Z3BNxaQ/4OZ5WdK4GiAO2j1tn40FDWLMJ3e+HaNferwnSi95Br00og9JjgvZWHLJkH6lcSu2/DbMjf4CN0vyYEHbPPAupeHpX/aXbE2AHgOsFyAv/fprCR8R31ahJxB8b/1TFsY8h1P7Dwi0V+qWvWzM+WX6y2lClDjn0nuJqccZlbr3181wnPIWT8AjVK52WfE1m7kIgJKgjruiCMvM0knxeyz7e5rmbbQ+r+fup7aG9Os0ZDILhkPsk8t3Bzgxb1f67lNm/S+O6q6IVV6un697gt5xYTKcn2nShqSrEVQfSvUXt2UWeQLL5+JaWuDpuOLGDSH2zVE2cqp25ITwRdv/x7zfNqagzVdODbsXMo/je9G9Wyff82Igz9KPA/O6oGbWUYHW6fCytnjOejTyHTRhXnrFLJP+erJ0svb1rE552q8krSlqxS37rvw3m1xHfU1j0jpgSm8RHrsWeU709bdre1yYlzJLh/rzPV8aqcNF9+Np+pnjK3LX96Z+TBssKKntPDj77v2//exq+YWZZTWVyyfAK7+WaZnJ1eHbg23O8b1+nSiKg3Ezt+WOHfNSk3dxZHOgAAAAAAAAAAAAAAAAAAAAAAAAAAAAAAAAAAAAAAAAAAAAAAAAAAAAAAAAAAAAAAAAAAAAAAGBS/AJwej1ELdZhYAAAAAElFTkSuQmCC;" parent="1" vertex="1">
                    <mxGeometry x="262" y="325" width="25" height="25" as="geometry"/>
                </mxCell>
                <mxCell id="206" value="" style="shape=image;verticalLabelPosition=bottom;labelBackgroundColor=default;verticalAlign=top;aspect=fixed;imageAspect=0;image=data:image/png,iVBORw0KGgoAAAANSUhEUgAAAgAAAAIACAMAAADDpiTIAAAACXBIWXMAAAsTAAALEwEAmpwYAAADAFBMVEVHcEwbluEnk+slluomk+YfjuYbkeYkku8gku4VlvIgk+sck+oejeUfjeYQkeQRessRi8silOkUedIkku8blekSjeoMkuwRaKUclukmkucvg8QZkuwglOkglukAgegejuEgku6NJyEnkOslj+Ugk+oikOYlluooiNgjlOogkuoghuQDjN4Ylekake4WlvElj+kfkukfjugckusRj+Elj+wgjugeluonj/cKkeAfjeYlj+kfk+shj+UgkukikOsgku4jk+odlOoek+sjlOsmkOwSkuEakukgjecbk+kfk+sjk+oik+okkesikOgVk+kfkusZl/IZku4Fh/Mkk+0il+0ckecljuYZg/Ufluskkuonk+sal+kKivMskegBk+Mgkuojkusjk+skk+8kk+oolOYRjucik+4fkuscjeIblfIdk+wkj+gWku0blekUj+gJleogi+omkewgkukIf+UhlOsQit0AlNIQj+Qkkuoikuskk+4gkewik+sXleokkeselukKitwZkOcclOofl+kikuokkuYllusdlOwhku4Aj9snkewWkeggkuohk+okl+ogk+sljucgluomlukjjeojku0gkOoSkOUPkeUllekfj+gkke4NjOclj+0eluosj+kakfAfleokk+kkkOkmkOokluokjegekuomkuofkOglkOsfk+wil+ofkuoeluoikuwek+kdlukfk+oblvAgk+ojkucgk+ggk+4elOkmi+obk+4alusak+odkuwlk+oglukbkeYnk+wfluskk+oKkOMZj+0lk+oakOkfleoal+kblucgk+okl+skluohluwAW+8kke4ekesbk+4jl+kek+ojl+kkkuglku4nkuogku0fjOoQjOQak+gfkesjlu4hlu4hluwjluwfk+4fk+kgk+sjkusgkusjlO4kkusek+sklukjluskluokkuomlushk+sfluokkukgkukjku0jk+sllukflushlO4jlu0flu4jk+ojle4el+kik+olk+ofk+omlOty4qXMAAAA3XRSTlMANdiDQnZBkqUZfYYxdz0HDFYJk2kVIQNoQwVVWOoOK6YBlCz8LoUMR8MdIzRRG2tzgmY4i0C/EB14gu9kO5+jTaSaj5o2U3V78fTfrmA2gh0kGc7XSncW3Ifazx4xG3ar65HkQEJkohoaWnxeYTInSZ5xDLAmETr23F1X7nC8uRgprvezjIyWpxKmTIX44X96tuaJVKhFP4d/qS+J0TNa7P7Bo+Ntx7p3Yt60ysvovv3iTdegZum3UZCPX23J5ULUx70tT8ZD9L5XjNy92gmPupKrzah+1cL5dj14iJG90wwAABBXSURBVHja7J0JkFTFHYfbRCReWViygIAcioCgAlERCAQVVFDxBlSEEAhgNKCACWppAiqeUaOClnfFo1KGlBU1Jim1jIkGo7HMWbkq3TtvZ9jNLocLBARNNtlF2JkF3Jnumdfdr+f7qiyrrPo77/3+377Xr9/RQgAAAAAAAAAAAAAAAAAAAAAAAAAAAAAAAAAAAAAAAAAAAAAAAAAAAAAAAAAAAAAAAAAAAAAAAAAAAAAAAAAAAAAAAAAAAAAAAOxF93sP0uDcK0gsKM6pV1ILVdeJ1AKiUekKIBtILRwWSM3+txhwFbkFwyhpwInkFgwdTAQ4gNwQABAAEAAQABAAEAAQABAAEAAQABAAEAAQABAAEAAQABAAEAAQABAAEAAQABAAEAAQABAAEAAQABAAEAAQABAAEAAQABAAEAAQABAAYuIrfCewvFlpIsAycguHGt3u18q3SS0glm2WSgcpbya0sOhz2P4arLmMxAAAAAAAAAAAAMxYcEKXjgXTZfwZe5Q/OFqjvGOXK99sW36j1q+fMI9+lZjKzVJWa6Dkhgdz65ukVFrl8jM51Us3K53q6mq55SR6VlJ26K7dqNSGnPLbtO/mKvXzbHm9/t3gJnpWSkZKgw6+lq3PGNzQH9FaPVkp/fLldK2EPGHQQDUgW29SflFrNSuHOmc/kw5+Nltv8BessoMAnglEAARAAARAAARAAARAAARAAARAAARAAN8EOPY5BChrATJy7TkIUL4C9G/52TkIUK4C3PvJLbD0eAQoSwEqol3bLTdejQBlKEBdzm8fjgBlJ8ArbZ6YqTkZAcpLgKpoj5//EwKUlQA7An8mDQHa59l97GDmZAQoGwEy+9zBUxCgTAQ45VO24SIEKAsBKqN9b8I2eSYClIMAkz59K9YiQPgCHNPeZnyAAMEL0P5XDOsQIHABxra/G3IjAoQtwLp8O9eEACEL8ET+12bXIkDAAkwqYFtuQIBgBehdyK6oCxEgVAHuLGhf1CoECFSAdIG7djUCBCnA0EL3ph4BghRgU4F7ptRmBAhQgCGF7458HAHCE2B+4dtTK3siQHACaH38qh4BQhNgqdYOJflpcQTYJ/dpblOv8hJgQPACpDW3qTGxAiw0acHo4gTIPlDn68qhT+h+PVU+klQBBho0UL5qOFjaxerW6tP1i2vlBfGnskjb66hTUg14Xrv/KvdRmC/o6xNVZcu3ave/1sbKkTX6Yn5fJNgAvbU7Gwbmlo+P9Nb+VI25HxuvyGj9urSzcugSk8Pii4k1oOpEncU7f3H+XpdMOuWH7fmljfPX6FQ/dIGNRN4xOK+lIgGh8G2DoW1Kdia4UNigTK5OthJcICyRRgLIKUQXBlOkGXVEFwYPmPVfyRlkFwRnGR4BctbCgSQTmQrAlWAQdJPG3Eh6AbCfuQCO3ha8Y3zfz2kw/+G25Q/P16nu+7uqtuULFmmVT7irTXXlrbfrlD89uu2PDyyufJ8sMBdAznTR/8na56yay7PVlzXqznhFbZZv3SR1r5r751Sf3rztH2rdiaq/qrjy8/PmeXARAkxw0P8KgzHLpmx5g/6sR1SRLb/TIKUcgTbqX2vlPoWd1i/PP1BbpYz7r1x8NcLooYrBu6u7mlTnrB+d1k9L/bK1urvJr79ZTHlK9skX6P2qiEPA+/YFMDpiPbq72sXKoZe2Vhe5cqhR+UN5rwKLEWByQgQ4pJghrzcPhR5qUv75fIHKYpiOAIkXoJgDgIu5IAQorQD9ijoCyOMRIOEC9C5OgKkIkHABqooTYDoCJFyAkcUJECFAwgUYUpwAsgcCJFuAy4oUYG72f9X1mKuvv3FAl9k775b0PaLLY8NenXLaYATwW4BpqeIEmChEn84DZt3TOkNfXV2dkp+8/rDrv9RPf+CKPggQ5lXArptO7eWianf+q+a+MSMRwD8BukmLREf3QoCgpoINSE89CQHKWYDm88XaVxHAHwEi6YD6VxDAFwFecND/5hijXyGAHwKMk46I/ogAPggwXDoj/V0EcC9AL+mQrZUI4FqAIS4FkOmXEcCxAEIqpwo8gwCOBah3KoBS63sggFMBfuD2CKDUhp4I4FKA59wK0HwGuhgBXAowUrpmCgK4FMDNZHDulQBjALcCHO1YgJsQwK0AnR0PAU5DALcC9FMuh4FqA/MAjgUQdU4F+AkCuBZgscP+fySXIIBrAYSsdWfAj5kKdi/Axw6HgGMRwL0Abzm7IaQauBvogQCi0dkw8DAE8EGA2a4E2MQDIV4I4Gw6+CgE8EOAR5wMAJTBGqQIEIsATg4BupOArgQo8jNxJRNgVJwC3OLiANDBQACjp5iP3F09w2Q7hxcnwF9aq4eZbPs/WsuNvpG5tNBgo5R1AxoM+i+eNLlk7be7usJkO1dmf327Qfmq1uq7TCZKTsopV/rlvQsNdpH1W0LpShMBRJ3+L72UrX5cpnQjbMr5ce3FX1NtdnOjvgBzcn59nf6uazxzW297PniY4cthTc2x6hDNz62+M9KqlnJH2/smGb0fT0XLi9h22dT2Dbr+uuXvaeTa3Wr3U3KS8fuhA487UIPz9iw/T6f6uL0OU1/X+fXjpu1RXVnctlcUV94+/7J6D4AFZ7zjJatXgJUE7hfj0zbPANFYEveJqj9HNm8IKjmKzD1iaJPtGaCnCN0bJq+zfPXX3P+/ErsfHHVryyJYlieAPpK/JnkPOG3x9Eg6eCBcseSsa3oc8/LqGumMp+mAs84feeyhX77f7auA0Zh8W9m118Q/dISSMvu2ay5O7z4CO3wLRMn0o3m6f/bO7UxVQylJST9Qm7/Vbvsr/yMhZPI8ATYmIqKQifJ8FvBHRBQw21Qmz+IhbyhSChelfptn8D9RVhNTuGzcP9/FH+f/kM/+K/LOUfyblEI9+Ocd/LfQSzICCJX15xQwSbmWnAKl/8JCJqnvIKggj/3RiJmF3aV4jbhCPPYfXPBtqlmkFdzA/77jNe5T/pDAgiEllYpGDNK7Uf0lcgvob/8I/a8+/I3Ywuj9dcOPN3pU5UyyS9T4vra25UXSln92P1QY3TOuwwHmL/twCkiWABt+87PvNLN6XN9TT+jwjUGHVBX7sNoNhJoo/lnqpxW/ykRwomZ4epdagOcRIFEzPCV/Xvl1BEjQAUC9VXIBXiDWBAnQWPo3Fs4i1gTxbukFuJRUEzQE7Fd6Aa4j1+RwbQwvrT1OrMlhbgwCvMdVQGL4II7XVmchQGJ4OA4BTiXXpBDP5/0eINikcE0sAkzlFJCUa8ADYxFgHgIkRID1sfRfrCTahDAoHgHWkGwyyMT09aJHiTYZLI5JgJFEm4gRQDqu75e9T7iJYEJsX7D7kHCTQEVsApBtEpgUW/+trlYCppNAC+MTYBP5+i9AXYxfsb2YfP0/AAyKUYBbCNh74jwAiBXcDPD+APBOnAKMQQDfaYiz/2IsAftO91gFmJYiYb+piXkxCxL2nIkxC/ABEXs9BMzE3H9xNCF7zSVxCzCcjH0+AKTj7r/oSco+CzAhdgH6kLLHxH8A4DLAa1ZYEIAFI/wlY6H/4nVy9paDbAgwjpx9pcZG/8X3uB3kK0OtCDCIoD1li5X+i94k7SlP2hGAy4AyngPgsUCPedGWAI+RtY+stdV/cSyXAf6h5FJrAixj7UgPuVbY478I4B1RN4sC1CCAdzxisf9iEQKU7wiwhesRwLcR4DCrAgwmcs8EqBN2YS7QM75mWYALidwrJlnuv3iWQYBPbLTdf/FNQveHlDzXugAMAryaA7Lff3ERsfvDXAcC8NFwfzjcQf/FQoUBnpARTliHAJ4wz40AdyOAH9S46b+4kuj9uAKodCRAV7L3gkuEKzKcAzygyVn/xdkI4MEJoJM7AQZxIeieg4VDuBAs1ymAXbxNA8r4BNDM3+mAU2rlaKf9F8vogUvUto+FY2rogksB/ue6/2I+XXDYf9XZuQDLaYNDAZ4R7uEc4I4tHvRfTKAPzq4AL/BBgCFMBrpiovCC9Qjghhv86L84AgHKdwDQwky+FFG+A4CdNCCA/QtAeYY3/Rfv0g/7zPGn/2Ia7bD+979d+MRWWmKZRq/6L75IRywPAK/ySwCRpidWGe1Z/8Xt9MTmAOA63/ovZtIWa6TkOuEfDAMtDgA87L/oxWygLTJLfBSAO0LW/v77eNl/MRoBrAwA1VDhKXwvyEr/n/K1/+Im2mNBgDeEv3AIiP/v/6ce91/8ng7Fzd0+919cToNingDcLvzmbpoUK3We91/M+H979xISVRQHYPxP5MIKcnpZTUo5CZVG9sACrSSowKzondAie9DDNpFGRQVZEUIvImgT9IBqU9QioogWLVq1bhX35pnRIjVtcrJoEalTiajlzNzROed8v50rZb5z7zn33LlXGiVTq6S8R1RKnuDo1B8APCWWxP4ZooEsQlndXzLYC7C6v8gZWlndX0TVkcv7/mO06S9jyeX5/o9O/XlbgPcD4NtonfrLPL4a5K2waKaREeDl+b9Bt/5yineHeqY9ZV4BEIuTDACPvHMvio5YB3p0/nc3aNlfjtHOG1WiqelMAh4I+UVb9eRLfPtnvb79eVw88QEQEa0d592BibkgmvvIAEjEA937y1UiJrD8myf6e/Cec0Cc039brZigkWVAfErFDJmfGADxeCimOMYpIHb1JWKO2/SMdfenQYxyk68GxOaFGOYDTWPZ/N1tWn85xE0B+1b/PazjSZEBHv7qvBiJ20IDE8kQQ01lITiAw3+ZmGsD2wH/01wrwgiwltGHf5fX7e/J3K/WvWK8LDL3e/gvEBscddpp3ZfpmWKHjbTupc5p9Yk1XhK817XfVLHJQ5r3yO82jxG7FCguB//kd93GG2KdAF8R+uPjZbFR7RfSdwo9E1udtv7GQMfa74xY7J71k3/pYbHagZDNR79zK1esF7Z3BNxaQ/4OZ5WdK4GiAO2j1tn40FDWLMJ3e+HaNferwnSi95Br00og9JjgvZWHLJkH6lcSu2/DbMjf4CN0vyYEHbPPAupeHpX/aXbE2AHgOsFyAv/fprCR8R31ahJxB8b/1TFsY8h1P7Dwi0V+qWvWzM+WX6y2lClDjn0nuJqccZlbr3181wnPIWT8AjVK52WfE1m7kIgJKgjruiCMvM0knxeyz7e5rmbbQ+r+fup7aG9Os0ZDILhkPsk8t3Bzgxb1f67lNm/S+O6q6IVV6un697gt5xYTKcn2nShqSrEVQfSvUXt2UWeQLL5+JaWuDpuOLGDSH2zVE2cqp25ITwRdv/x7zfNqagzVdODbsXMo/je9G9Wyff82Igz9KPA/O6oGbWUYHW6fCytnjOejTyHTRhXnrFLJP+erJ0svb1rE552q8krSlqxS37rvw3m1xHfU1j0jpgSm8RHrsWeU709bdre1yYlzJLh/rzPV8aqcNF9+Np+pnjK3LX96Z+TBssKKntPDj77v2//exq+YWZZTWVyyfAK7+WaZnJ1eHbg23O8b1+nSiKg3Ezt+WOHfNSk3dxZHOgAAAAAAAAAAAAAAAAAAAAAAAAAAAAAAAAAAAAAAAAAAAAAAAAAAAAAAAAAAAAAAAAAAAAAAGBS/AJwej1ELdZhYAAAAAElFTkSuQmCC;" parent="1" vertex="1">
                    <mxGeometry x="442" y="323" width="25" height="25" as="geometry"/>
                </mxCell>
                <mxCell id="207" value="" style="shape=image;verticalLabelPosition=bottom;labelBackgroundColor=default;verticalAlign=top;aspect=fixed;imageAspect=0;image=data:image/png,iVBORw0KGgoAAAANSUhEUgAAAgAAAAIACAMAAADDpiTIAAAACXBIWXMAAAsTAAALEwEAmpwYAAADAFBMVEVHcEwbluEnk+slluomk+YfjuYbkeYkku8gku4VlvIgk+sck+oejeUfjeYQkeQRessRi8silOkUedIkku8blekSjeoMkuwRaKUclukmkucvg8QZkuwglOkglukAgegejuEgku6NJyEnkOslj+Ugk+oikOYlluooiNgjlOogkuoghuQDjN4Ylekake4WlvElj+kfkukfjugckusRj+Elj+wgjugeluonj/cKkeAfjeYlj+kfk+shj+UgkukikOsgku4jk+odlOoek+sjlOsmkOwSkuEakukgjecbk+kfk+sjk+oik+okkesikOgVk+kfkusZl/IZku4Fh/Mkk+0il+0ckecljuYZg/Ufluskkuonk+sal+kKivMskegBk+Mgkuojkusjk+skk+8kk+oolOYRjucik+4fkuscjeIblfIdk+wkj+gWku0blekUj+gJleogi+omkewgkukIf+UhlOsQit0AlNIQj+Qkkuoikuskk+4gkewik+sXleokkeselukKitwZkOcclOofl+kikuokkuYllusdlOwhku4Aj9snkewWkeggkuohk+okl+ogk+sljucgluomlukjjeojku0gkOoSkOUPkeUllekfj+gkke4NjOclj+0eluosj+kakfAfleokk+kkkOkmkOokluokjegekuomkuofkOglkOsfk+wil+ofkuoeluoikuwek+kdlukfk+oblvAgk+ojkucgk+ggk+4elOkmi+obk+4alusak+odkuwlk+oglukbkeYnk+wfluskk+oKkOMZj+0lk+oakOkfleoal+kblucgk+okl+skluohluwAW+8kke4ekesbk+4jl+kek+ojl+kkkuglku4nkuogku0fjOoQjOQak+gfkesjlu4hlu4hluwjluwfk+4fk+kgk+sjkusgkusjlO4kkusek+sklukjluskluokkuomlushk+sfluokkukgkukjku0jk+sllukflushlO4jlu0flu4jk+ojle4el+kik+olk+ofk+omlOty4qXMAAAA3XRSTlMANdiDQnZBkqUZfYYxdz0HDFYJk2kVIQNoQwVVWOoOK6YBlCz8LoUMR8MdIzRRG2tzgmY4i0C/EB14gu9kO5+jTaSaj5o2U3V78fTfrmA2gh0kGc7XSncW3Ifazx4xG3ar65HkQEJkohoaWnxeYTInSZ5xDLAmETr23F1X7nC8uRgprvezjIyWpxKmTIX44X96tuaJVKhFP4d/qS+J0TNa7P7Bo+Ntx7p3Yt60ysvovv3iTdegZum3UZCPX23J5ULUx70tT8ZD9L5XjNy92gmPupKrzah+1cL5dj14iJG90wwAABBXSURBVHja7J0JkFTFHYfbRCReWViygIAcioCgAlERCAQVVFDxBlSEEAhgNKCACWppAiqeUaOClnfFo1KGlBU1Jim1jIkGo7HMWbkq3TtvZ9jNLocLBARNNtlF2JkF3Jnumdfdr+f7qiyrrPo77/3+377Xr9/RQgAAAAAAAAAAAAAAAAAAAAAAAAAAAAAAAAAAAAAAAAAAAAAAAAAAAAAAAAAAAAAAAAAAAAAAAAAAAAAAAAAAAAAAAAAAAAAAAOxF93sP0uDcK0gsKM6pV1ILVdeJ1AKiUekKIBtILRwWSM3+txhwFbkFwyhpwInkFgwdTAQ4gNwQABAAEAAQABAAEAAQABAAEAAQABAAEAAQABAAEAAQABAAEAAQABAAEAAQABAAEAAQABAAEAAQABAAEAAQABAAEAAQABAAEAAQABAAYuIrfCewvFlpIsAycguHGt3u18q3SS0glm2WSgcpbya0sOhz2P4arLmMxAAAAAAAAAAAAMxYcEKXjgXTZfwZe5Q/OFqjvGOXK99sW36j1q+fMI9+lZjKzVJWa6Dkhgdz65ukVFrl8jM51Us3K53q6mq55SR6VlJ26K7dqNSGnPLbtO/mKvXzbHm9/t3gJnpWSkZKgw6+lq3PGNzQH9FaPVkp/fLldK2EPGHQQDUgW29SflFrNSuHOmc/kw5+Nltv8BessoMAnglEAARAAARAAARAAARAAARAAARAAARAAN8EOPY5BChrATJy7TkIUL4C9G/52TkIUK4C3PvJLbD0eAQoSwEqol3bLTdejQBlKEBdzm8fjgBlJ8ArbZ6YqTkZAcpLgKpoj5//EwKUlQA7An8mDQHa59l97GDmZAQoGwEy+9zBUxCgTAQ45VO24SIEKAsBKqN9b8I2eSYClIMAkz59K9YiQPgCHNPeZnyAAMEL0P5XDOsQIHABxra/G3IjAoQtwLp8O9eEACEL8ET+12bXIkDAAkwqYFtuQIBgBehdyK6oCxEgVAHuLGhf1CoECFSAdIG7djUCBCnA0EL3ph4BghRgU4F7ptRmBAhQgCGF7458HAHCE2B+4dtTK3siQHACaH38qh4BQhNgqdYOJflpcQTYJ/dpblOv8hJgQPACpDW3qTGxAiw0acHo4gTIPlDn68qhT+h+PVU+klQBBho0UL5qOFjaxerW6tP1i2vlBfGnskjb66hTUg14Xrv/KvdRmC/o6xNVZcu3ave/1sbKkTX6Yn5fJNgAvbU7Gwbmlo+P9Nb+VI25HxuvyGj9urSzcugSk8Pii4k1oOpEncU7f3H+XpdMOuWH7fmljfPX6FQ/dIGNRN4xOK+lIgGh8G2DoW1Kdia4UNigTK5OthJcICyRRgLIKUQXBlOkGXVEFwYPmPVfyRlkFwRnGR4BctbCgSQTmQrAlWAQdJPG3Eh6AbCfuQCO3ha8Y3zfz2kw/+G25Q/P16nu+7uqtuULFmmVT7irTXXlrbfrlD89uu2PDyyufJ8sMBdAznTR/8na56yay7PVlzXqznhFbZZv3SR1r5r751Sf3rztH2rdiaq/qrjy8/PmeXARAkxw0P8KgzHLpmx5g/6sR1SRLb/TIKUcgTbqX2vlPoWd1i/PP1BbpYz7r1x8NcLooYrBu6u7mlTnrB+d1k9L/bK1urvJr79ZTHlK9skX6P2qiEPA+/YFMDpiPbq72sXKoZe2Vhe5cqhR+UN5rwKLEWByQgQ4pJghrzcPhR5qUv75fIHKYpiOAIkXoJgDgIu5IAQorQD9ijoCyOMRIOEC9C5OgKkIkHABqooTYDoCJFyAkcUJECFAwgUYUpwAsgcCJFuAy4oUYG72f9X1mKuvv3FAl9k775b0PaLLY8NenXLaYATwW4BpqeIEmChEn84DZt3TOkNfXV2dkp+8/rDrv9RPf+CKPggQ5lXArptO7eWianf+q+a+MSMRwD8BukmLREf3QoCgpoINSE89CQHKWYDm88XaVxHAHwEi6YD6VxDAFwFecND/5hijXyGAHwKMk46I/ogAPggwXDoj/V0EcC9AL+mQrZUI4FqAIS4FkOmXEcCxAEIqpwo8gwCOBah3KoBS63sggFMBfuD2CKDUhp4I4FKA59wK0HwGuhgBXAowUrpmCgK4FMDNZHDulQBjALcCHO1YgJsQwK0AnR0PAU5DALcC9FMuh4FqA/MAjgUQdU4F+AkCuBZgscP+fySXIIBrAYSsdWfAj5kKdi/Axw6HgGMRwL0Abzm7IaQauBvogQCi0dkw8DAE8EGA2a4E2MQDIV4I4Gw6+CgE8EOAR5wMAJTBGqQIEIsATg4BupOArgQo8jNxJRNgVJwC3OLiANDBQACjp5iP3F09w2Q7hxcnwF9aq4eZbPs/WsuNvpG5tNBgo5R1AxoM+i+eNLlk7be7usJkO1dmf327Qfmq1uq7TCZKTsopV/rlvQsNdpH1W0LpShMBRJ3+L72UrX5cpnQjbMr5ce3FX1NtdnOjvgBzcn59nf6uazxzW297PniY4cthTc2x6hDNz62+M9KqlnJH2/smGb0fT0XLi9h22dT2Dbr+uuXvaeTa3Wr3U3KS8fuhA487UIPz9iw/T6f6uL0OU1/X+fXjpu1RXVnctlcUV94+/7J6D4AFZ7zjJatXgJUE7hfj0zbPANFYEveJqj9HNm8IKjmKzD1iaJPtGaCnCN0bJq+zfPXX3P+/ErsfHHVryyJYlieAPpK/JnkPOG3x9Eg6eCBcseSsa3oc8/LqGumMp+mAs84feeyhX77f7auA0Zh8W9m118Q/dISSMvu2ay5O7z4CO3wLRMn0o3m6f/bO7UxVQylJST9Qm7/Vbvsr/yMhZPI8ATYmIqKQifJ8FvBHRBQw21Qmz+IhbyhSChelfptn8D9RVhNTuGzcP9/FH+f/kM/+K/LOUfyblEI9+Ocd/LfQSzICCJX15xQwSbmWnAKl/8JCJqnvIKggj/3RiJmF3aV4jbhCPPYfXPBtqlmkFdzA/77jNe5T/pDAgiEllYpGDNK7Uf0lcgvob/8I/a8+/I3Ywuj9dcOPN3pU5UyyS9T4vra25UXSln92P1QY3TOuwwHmL/twCkiWABt+87PvNLN6XN9TT+jwjUGHVBX7sNoNhJoo/lnqpxW/ykRwomZ4epdagOcRIFEzPCV/Xvl1BEjQAUC9VXIBXiDWBAnQWPo3Fs4i1gTxbukFuJRUEzQE7Fd6Aa4j1+RwbQwvrT1OrMlhbgwCvMdVQGL4II7XVmchQGJ4OA4BTiXXpBDP5/0eINikcE0sAkzlFJCUa8ADYxFgHgIkRID1sfRfrCTahDAoHgHWkGwyyMT09aJHiTYZLI5JgJFEm4gRQDqu75e9T7iJYEJsX7D7kHCTQEVsApBtEpgUW/+trlYCppNAC+MTYBP5+i9AXYxfsb2YfP0/AAyKUYBbCNh74jwAiBXcDPD+APBOnAKMQQDfaYiz/2IsAftO91gFmJYiYb+piXkxCxL2nIkxC/ABEXs9BMzE3H9xNCF7zSVxCzCcjH0+AKTj7r/oSco+CzAhdgH6kLLHxH8A4DLAa1ZYEIAFI/wlY6H/4nVy9paDbAgwjpx9pcZG/8X3uB3kK0OtCDCIoD1li5X+i94k7SlP2hGAy4AyngPgsUCPedGWAI+RtY+stdV/cSyXAf6h5FJrAixj7UgPuVbY478I4B1RN4sC1CCAdzxisf9iEQKU7wiwhesRwLcR4DCrAgwmcs8EqBN2YS7QM75mWYALidwrJlnuv3iWQYBPbLTdf/FNQveHlDzXugAMAryaA7Lff3ERsfvDXAcC8NFwfzjcQf/FQoUBnpARTliHAJ4wz40AdyOAH9S46b+4kuj9uAKodCRAV7L3gkuEKzKcAzygyVn/xdkI4MEJoJM7AQZxIeieg4VDuBAs1ymAXbxNA8r4BNDM3+mAU2rlaKf9F8vogUvUto+FY2rogksB/ue6/2I+XXDYf9XZuQDLaYNDAZ4R7uEc4I4tHvRfTKAPzq4AL/BBgCFMBrpiovCC9Qjghhv86L84AgHKdwDQwky+FFG+A4CdNCCA/QtAeYY3/Rfv0g/7zPGn/2Ia7bD+979d+MRWWmKZRq/6L75IRywPAK/ySwCRpidWGe1Z/8Xt9MTmAOA63/ovZtIWa6TkOuEfDAMtDgA87L/oxWygLTJLfBSAO0LW/v77eNl/MRoBrAwA1VDhKXwvyEr/n/K1/+Im2mNBgDeEv3AIiP/v/6ce91/8ng7Fzd0+919cToNingDcLvzmbpoUK3We91/M+H979xISVRQHYPxP5MIKcnpZTUo5CZVG9sACrSSowKzondAie9DDNpFGRQVZEUIvImgT9IBqU9QioogWLVq1bhX35pnRIjVtcrJoEalTiajlzNzROed8v50rZb5z7zn33LlXGiVTq6S8R1RKnuDo1B8APCWWxP4ZooEsQlndXzLYC7C6v8gZWlndX0TVkcv7/mO06S9jyeX5/o9O/XlbgPcD4NtonfrLPL4a5K2waKaREeDl+b9Bt/5yineHeqY9ZV4BEIuTDACPvHMvio5YB3p0/nc3aNlfjtHOG1WiqelMAh4I+UVb9eRLfPtnvb79eVw88QEQEa0d592BibkgmvvIAEjEA937y1UiJrD8myf6e/Cec0Cc039brZigkWVAfErFDJmfGADxeCimOMYpIHb1JWKO2/SMdfenQYxyk68GxOaFGOYDTWPZ/N1tWn85xE0B+1b/PazjSZEBHv7qvBiJ20IDE8kQQ01lITiAw3+ZmGsD2wH/01wrwgiwltGHf5fX7e/J3K/WvWK8LDL3e/gvEBscddpp3ZfpmWKHjbTupc5p9Yk1XhK817XfVLHJQ5r3yO82jxG7FCguB//kd93GG2KdAF8R+uPjZbFR7RfSdwo9E1udtv7GQMfa74xY7J71k3/pYbHagZDNR79zK1esF7Z3BNxaQ/4OZ5WdK4GiAO2j1tn40FDWLMJ3e+HaNferwnSi95Br00og9JjgvZWHLJkH6lcSu2/DbMjf4CN0vyYEHbPPAupeHpX/aXbE2AHgOsFyAv/fprCR8R31ahJxB8b/1TFsY8h1P7Dwi0V+qWvWzM+WX6y2lClDjn0nuJqccZlbr3181wnPIWT8AjVK52WfE1m7kIgJKgjruiCMvM0knxeyz7e5rmbbQ+r+fup7aG9Os0ZDILhkPsk8t3Bzgxb1f67lNm/S+O6q6IVV6un697gt5xYTKcn2nShqSrEVQfSvUXt2UWeQLL5+JaWuDpuOLGDSH2zVE2cqp25ITwRdv/x7zfNqagzVdODbsXMo/je9G9Wyff82Igz9KPA/O6oGbWUYHW6fCytnjOejTyHTRhXnrFLJP+erJ0svb1rE552q8krSlqxS37rvw3m1xHfU1j0jpgSm8RHrsWeU709bdre1yYlzJLh/rzPV8aqcNF9+Np+pnjK3LX96Z+TBssKKntPDj77v2//exq+YWZZTWVyyfAK7+WaZnJ1eHbg23O8b1+nSiKg3Ezt+WOHfNSk3dxZHOgAAAAAAAAAAAAAAAAAAAAAAAAAAAAAAAAAAAAAAAAAAAAAAAAAAAAAAAAAAAAAAAAAAAAAAGBS/AJwej1ELdZhYAAAAAElFTkSuQmCC;" parent="1" vertex="1">
                    <mxGeometry x="620" y="324" width="25" height="25" as="geometry"/>
                </mxCell>
                <mxCell id="208" value="" style="shape=image;verticalLabelPosition=bottom;labelBackgroundColor=default;verticalAlign=top;aspect=fixed;imageAspect=0;image=data:image/png,iVBORw0KGgoAAAANSUhEUgAAAgAAAAIACAMAAADDpiTIAAAACXBIWXMAAAsTAAALEwEAmpwYAAADAFBMVEVHcEwbluEnk+slluomk+YfjuYbkeYkku8gku4VlvIgk+sck+oejeUfjeYQkeQRessRi8silOkUedIkku8blekSjeoMkuwRaKUclukmkucvg8QZkuwglOkglukAgegejuEgku6NJyEnkOslj+Ugk+oikOYlluooiNgjlOogkuoghuQDjN4Ylekake4WlvElj+kfkukfjugckusRj+Elj+wgjugeluonj/cKkeAfjeYlj+kfk+shj+UgkukikOsgku4jk+odlOoek+sjlOsmkOwSkuEakukgjecbk+kfk+sjk+oik+okkesikOgVk+kfkusZl/IZku4Fh/Mkk+0il+0ckecljuYZg/Ufluskkuonk+sal+kKivMskegBk+Mgkuojkusjk+skk+8kk+oolOYRjucik+4fkuscjeIblfIdk+wkj+gWku0blekUj+gJleogi+omkewgkukIf+UhlOsQit0AlNIQj+Qkkuoikuskk+4gkewik+sXleokkeselukKitwZkOcclOofl+kikuokkuYllusdlOwhku4Aj9snkewWkeggkuohk+okl+ogk+sljucgluomlukjjeojku0gkOoSkOUPkeUllekfj+gkke4NjOclj+0eluosj+kakfAfleokk+kkkOkmkOokluokjegekuomkuofkOglkOsfk+wil+ofkuoeluoikuwek+kdlukfk+oblvAgk+ojkucgk+ggk+4elOkmi+obk+4alusak+odkuwlk+oglukbkeYnk+wfluskk+oKkOMZj+0lk+oakOkfleoal+kblucgk+okl+skluohluwAW+8kke4ekesbk+4jl+kek+ojl+kkkuglku4nkuogku0fjOoQjOQak+gfkesjlu4hlu4hluwjluwfk+4fk+kgk+sjkusgkusjlO4kkusek+sklukjluskluokkuomlushk+sfluokkukgkukjku0jk+sllukflushlO4jlu0flu4jk+ojle4el+kik+olk+ofk+omlOty4qXMAAAA3XRSTlMANdiDQnZBkqUZfYYxdz0HDFYJk2kVIQNoQwVVWOoOK6YBlCz8LoUMR8MdIzRRG2tzgmY4i0C/EB14gu9kO5+jTaSaj5o2U3V78fTfrmA2gh0kGc7XSncW3Ifazx4xG3ar65HkQEJkohoaWnxeYTInSZ5xDLAmETr23F1X7nC8uRgprvezjIyWpxKmTIX44X96tuaJVKhFP4d/qS+J0TNa7P7Bo+Ntx7p3Yt60ysvovv3iTdegZum3UZCPX23J5ULUx70tT8ZD9L5XjNy92gmPupKrzah+1cL5dj14iJG90wwAABBXSURBVHja7J0JkFTFHYfbRCReWViygIAcioCgAlERCAQVVFDxBlSEEAhgNKCACWppAiqeUaOClnfFo1KGlBU1Jim1jIkGo7HMWbkq3TtvZ9jNLocLBARNNtlF2JkF3Jnumdfdr+f7qiyrrPo77/3+377Xr9/RQgAAAAAAAAAAAAAAAAAAAAAAAAAAAAAAAAAAAAAAAAAAAAAAAAAAAAAAAAAAAAAAAAAAAAAAAAAAAAAAAAAAAAAAAAAAAAAAAOxF93sP0uDcK0gsKM6pV1ILVdeJ1AKiUekKIBtILRwWSM3+txhwFbkFwyhpwInkFgwdTAQ4gNwQABAAEAAQABAAEAAQABAAEAAQABAAEAAQABAAEAAQABAAEAAQABAAEAAQABAAEAAQABAAEAAQABAAEAAQABAAEAAQABAAEAAQABAAYuIrfCewvFlpIsAycguHGt3u18q3SS0glm2WSgcpbya0sOhz2P4arLmMxAAAAAAAAAAAAMxYcEKXjgXTZfwZe5Q/OFqjvGOXK99sW36j1q+fMI9+lZjKzVJWa6Dkhgdz65ukVFrl8jM51Us3K53q6mq55SR6VlJ26K7dqNSGnPLbtO/mKvXzbHm9/t3gJnpWSkZKgw6+lq3PGNzQH9FaPVkp/fLldK2EPGHQQDUgW29SflFrNSuHOmc/kw5+Nltv8BessoMAnglEAARAAARAAARAAARAAARAAARAAARAAN8EOPY5BChrATJy7TkIUL4C9G/52TkIUK4C3PvJLbD0eAQoSwEqol3bLTdejQBlKEBdzm8fjgBlJ8ArbZ6YqTkZAcpLgKpoj5//EwKUlQA7An8mDQHa59l97GDmZAQoGwEy+9zBUxCgTAQ45VO24SIEKAsBKqN9b8I2eSYClIMAkz59K9YiQPgCHNPeZnyAAMEL0P5XDOsQIHABxra/G3IjAoQtwLp8O9eEACEL8ET+12bXIkDAAkwqYFtuQIBgBehdyK6oCxEgVAHuLGhf1CoECFSAdIG7djUCBCnA0EL3ph4BghRgU4F7ptRmBAhQgCGF7458HAHCE2B+4dtTK3siQHACaH38qh4BQhNgqdYOJflpcQTYJ/dpblOv8hJgQPACpDW3qTGxAiw0acHo4gTIPlDn68qhT+h+PVU+klQBBho0UL5qOFjaxerW6tP1i2vlBfGnskjb66hTUg14Xrv/KvdRmC/o6xNVZcu3ave/1sbKkTX6Yn5fJNgAvbU7Gwbmlo+P9Nb+VI25HxuvyGj9urSzcugSk8Pii4k1oOpEncU7f3H+XpdMOuWH7fmljfPX6FQ/dIGNRN4xOK+lIgGh8G2DoW1Kdia4UNigTK5OthJcICyRRgLIKUQXBlOkGXVEFwYPmPVfyRlkFwRnGR4BctbCgSQTmQrAlWAQdJPG3Eh6AbCfuQCO3ha8Y3zfz2kw/+G25Q/P16nu+7uqtuULFmmVT7irTXXlrbfrlD89uu2PDyyufJ8sMBdAznTR/8na56yay7PVlzXqznhFbZZv3SR1r5r751Sf3rztH2rdiaq/qrjy8/PmeXARAkxw0P8KgzHLpmx5g/6sR1SRLb/TIKUcgTbqX2vlPoWd1i/PP1BbpYz7r1x8NcLooYrBu6u7mlTnrB+d1k9L/bK1urvJr79ZTHlK9skX6P2qiEPA+/YFMDpiPbq72sXKoZe2Vhe5cqhR+UN5rwKLEWByQgQ4pJghrzcPhR5qUv75fIHKYpiOAIkXoJgDgIu5IAQorQD9ijoCyOMRIOEC9C5OgKkIkHABqooTYDoCJFyAkcUJECFAwgUYUpwAsgcCJFuAy4oUYG72f9X1mKuvv3FAl9k775b0PaLLY8NenXLaYATwW4BpqeIEmChEn84DZt3TOkNfXV2dkp+8/rDrv9RPf+CKPggQ5lXArptO7eWianf+q+a+MSMRwD8BukmLREf3QoCgpoINSE89CQHKWYDm88XaVxHAHwEi6YD6VxDAFwFecND/5hijXyGAHwKMk46I/ogAPggwXDoj/V0EcC9AL+mQrZUI4FqAIS4FkOmXEcCxAEIqpwo8gwCOBah3KoBS63sggFMBfuD2CKDUhp4I4FKA59wK0HwGuhgBXAowUrpmCgK4FMDNZHDulQBjALcCHO1YgJsQwK0AnR0PAU5DALcC9FMuh4FqA/MAjgUQdU4F+AkCuBZgscP+fySXIIBrAYSsdWfAj5kKdi/Axw6HgGMRwL0Abzm7IaQauBvogQCi0dkw8DAE8EGA2a4E2MQDIV4I4Gw6+CgE8EOAR5wMAJTBGqQIEIsATg4BupOArgQo8jNxJRNgVJwC3OLiANDBQACjp5iP3F09w2Q7hxcnwF9aq4eZbPs/WsuNvpG5tNBgo5R1AxoM+i+eNLlk7be7usJkO1dmf327Qfmq1uq7TCZKTsopV/rlvQsNdpH1W0LpShMBRJ3+L72UrX5cpnQjbMr5ce3FX1NtdnOjvgBzcn59nf6uazxzW297PniY4cthTc2x6hDNz62+M9KqlnJH2/smGb0fT0XLi9h22dT2Dbr+uuXvaeTa3Wr3U3KS8fuhA487UIPz9iw/T6f6uL0OU1/X+fXjpu1RXVnctlcUV94+/7J6D4AFZ7zjJatXgJUE7hfj0zbPANFYEveJqj9HNm8IKjmKzD1iaJPtGaCnCN0bJq+zfPXX3P+/ErsfHHVryyJYlieAPpK/JnkPOG3x9Eg6eCBcseSsa3oc8/LqGumMp+mAs84feeyhX77f7auA0Zh8W9m118Q/dISSMvu2ay5O7z4CO3wLRMn0o3m6f/bO7UxVQylJST9Qm7/Vbvsr/yMhZPI8ATYmIqKQifJ8FvBHRBQw21Qmz+IhbyhSChelfptn8D9RVhNTuGzcP9/FH+f/kM/+K/LOUfyblEI9+Ocd/LfQSzICCJX15xQwSbmWnAKl/8JCJqnvIKggj/3RiJmF3aV4jbhCPPYfXPBtqlmkFdzA/77jNe5T/pDAgiEllYpGDNK7Uf0lcgvob/8I/a8+/I3Ywuj9dcOPN3pU5UyyS9T4vra25UXSln92P1QY3TOuwwHmL/twCkiWABt+87PvNLN6XN9TT+jwjUGHVBX7sNoNhJoo/lnqpxW/ykRwomZ4epdagOcRIFEzPCV/Xvl1BEjQAUC9VXIBXiDWBAnQWPo3Fs4i1gTxbukFuJRUEzQE7Fd6Aa4j1+RwbQwvrT1OrMlhbgwCvMdVQGL4II7XVmchQGJ4OA4BTiXXpBDP5/0eINikcE0sAkzlFJCUa8ADYxFgHgIkRID1sfRfrCTahDAoHgHWkGwyyMT09aJHiTYZLI5JgJFEm4gRQDqu75e9T7iJYEJsX7D7kHCTQEVsApBtEpgUW/+trlYCppNAC+MTYBP5+i9AXYxfsb2YfP0/AAyKUYBbCNh74jwAiBXcDPD+APBOnAKMQQDfaYiz/2IsAftO91gFmJYiYb+piXkxCxL2nIkxC/ABEXs9BMzE3H9xNCF7zSVxCzCcjH0+AKTj7r/oSco+CzAhdgH6kLLHxH8A4DLAa1ZYEIAFI/wlY6H/4nVy9paDbAgwjpx9pcZG/8X3uB3kK0OtCDCIoD1li5X+i94k7SlP2hGAy4AyngPgsUCPedGWAI+RtY+stdV/cSyXAf6h5FJrAixj7UgPuVbY478I4B1RN4sC1CCAdzxisf9iEQKU7wiwhesRwLcR4DCrAgwmcs8EqBN2YS7QM75mWYALidwrJlnuv3iWQYBPbLTdf/FNQveHlDzXugAMAryaA7Lff3ERsfvDXAcC8NFwfzjcQf/FQoUBnpARTliHAJ4wz40AdyOAH9S46b+4kuj9uAKodCRAV7L3gkuEKzKcAzygyVn/xdkI4MEJoJM7AQZxIeieg4VDuBAs1ymAXbxNA8r4BNDM3+mAU2rlaKf9F8vogUvUto+FY2rogksB/ue6/2I+XXDYf9XZuQDLaYNDAZ4R7uEc4I4tHvRfTKAPzq4AL/BBgCFMBrpiovCC9Qjghhv86L84AgHKdwDQwky+FFG+A4CdNCCA/QtAeYY3/Rfv0g/7zPGn/2Ia7bD+979d+MRWWmKZRq/6L75IRywPAK/ySwCRpidWGe1Z/8Xt9MTmAOA63/ovZtIWa6TkOuEfDAMtDgA87L/oxWygLTJLfBSAO0LW/v77eNl/MRoBrAwA1VDhKXwvyEr/n/K1/+Im2mNBgDeEv3AIiP/v/6ce91/8ng7Fzd0+919cToNingDcLvzmbpoUK3We91/M+H979xISVRQHYPxP5MIKcnpZTUo5CZVG9sACrSSowKzondAie9DDNpFGRQVZEUIvImgT9IBqU9QioogWLVq1bhX35pnRIjVtcrJoEalTiajlzNzROed8v50rZb5z7zn33LlXGiVTq6S8R1RKnuDo1B8APCWWxP4ZooEsQlndXzLYC7C6v8gZWlndX0TVkcv7/mO06S9jyeX5/o9O/XlbgPcD4NtonfrLPL4a5K2waKaREeDl+b9Bt/5yineHeqY9ZV4BEIuTDACPvHMvio5YB3p0/nc3aNlfjtHOG1WiqelMAh4I+UVb9eRLfPtnvb79eVw88QEQEa0d592BibkgmvvIAEjEA937y1UiJrD8myf6e/Cec0Cc039brZigkWVAfErFDJmfGADxeCimOMYpIHb1JWKO2/SMdfenQYxyk68GxOaFGOYDTWPZ/N1tWn85xE0B+1b/PazjSZEBHv7qvBiJ20IDE8kQQ01lITiAw3+ZmGsD2wH/01wrwgiwltGHf5fX7e/J3K/WvWK8LDL3e/gvEBscddpp3ZfpmWKHjbTupc5p9Yk1XhK817XfVLHJQ5r3yO82jxG7FCguB//kd93GG2KdAF8R+uPjZbFR7RfSdwo9E1udtv7GQMfa74xY7J71k3/pYbHagZDNR79zK1esF7Z3BNxaQ/4OZ5WdK4GiAO2j1tn40FDWLMJ3e+HaNferwnSi95Br00og9JjgvZWHLJkH6lcSu2/DbMjf4CN0vyYEHbPPAupeHpX/aXbE2AHgOsFyAv/fprCR8R31ahJxB8b/1TFsY8h1P7Dwi0V+qWvWzM+WX6y2lClDjn0nuJqccZlbr3181wnPIWT8AjVK52WfE1m7kIgJKgjruiCMvM0knxeyz7e5rmbbQ+r+fup7aG9Os0ZDILhkPsk8t3Bzgxb1f67lNm/S+O6q6IVV6un697gt5xYTKcn2nShqSrEVQfSvUXt2UWeQLL5+JaWuDpuOLGDSH2zVE2cqp25ITwRdv/x7zfNqagzVdODbsXMo/je9G9Wyff82Igz9KPA/O6oGbWUYHW6fCytnjOejTyHTRhXnrFLJP+erJ0svb1rE552q8krSlqxS37rvw3m1xHfU1j0jpgSm8RHrsWeU709bdre1yYlzJLh/rzPV8aqcNF9+Np+pnjK3LX96Z+TBssKKntPDj77v2//exq+YWZZTWVyyfAK7+WaZnJ1eHbg23O8b1+nSiKg3Ezt+WOHfNSk3dxZHOgAAAAAAAAAAAAAAAAAAAAAAAAAAAAAAAAAAAAAAAAAAAAAAAAAAAAAAAAAAAAAAAAAAAAAAGBS/AJwej1ELdZhYAAAAAElFTkSuQmCC;" parent="1" vertex="1">
                    <mxGeometry x="910" y="102" width="25" height="25" as="geometry"/>
                </mxCell>
                <mxCell id="209" value="" style="shape=image;verticalLabelPosition=bottom;labelBackgroundColor=default;verticalAlign=top;aspect=fixed;imageAspect=0;image=data:image/png,iVBORw0KGgoAAAANSUhEUgAAAgAAAAIACAMAAADDpiTIAAAACXBIWXMAAAsTAAALEwEAmpwYAAADAFBMVEVHcEwbluEnk+slluomk+YfjuYbkeYkku8gku4VlvIgk+sck+oejeUfjeYQkeQRessRi8silOkUedIkku8blekSjeoMkuwRaKUclukmkucvg8QZkuwglOkglukAgegejuEgku6NJyEnkOslj+Ugk+oikOYlluooiNgjlOogkuoghuQDjN4Ylekake4WlvElj+kfkukfjugckusRj+Elj+wgjugeluonj/cKkeAfjeYlj+kfk+shj+UgkukikOsgku4jk+odlOoek+sjlOsmkOwSkuEakukgjecbk+kfk+sjk+oik+okkesikOgVk+kfkusZl/IZku4Fh/Mkk+0il+0ckecljuYZg/Ufluskkuonk+sal+kKivMskegBk+Mgkuojkusjk+skk+8kk+oolOYRjucik+4fkuscjeIblfIdk+wkj+gWku0blekUj+gJleogi+omkewgkukIf+UhlOsQit0AlNIQj+Qkkuoikuskk+4gkewik+sXleokkeselukKitwZkOcclOofl+kikuokkuYllusdlOwhku4Aj9snkewWkeggkuohk+okl+ogk+sljucgluomlukjjeojku0gkOoSkOUPkeUllekfj+gkke4NjOclj+0eluosj+kakfAfleokk+kkkOkmkOokluokjegekuomkuofkOglkOsfk+wil+ofkuoeluoikuwek+kdlukfk+oblvAgk+ojkucgk+ggk+4elOkmi+obk+4alusak+odkuwlk+oglukbkeYnk+wfluskk+oKkOMZj+0lk+oakOkfleoal+kblucgk+okl+skluohluwAW+8kke4ekesbk+4jl+kek+ojl+kkkuglku4nkuogku0fjOoQjOQak+gfkesjlu4hlu4hluwjluwfk+4fk+kgk+sjkusgkusjlO4kkusek+sklukjluskluokkuomlushk+sfluokkukgkukjku0jk+sllukflushlO4jlu0flu4jk+ojle4el+kik+olk+ofk+omlOty4qXMAAAA3XRSTlMANdiDQnZBkqUZfYYxdz0HDFYJk2kVIQNoQwVVWOoOK6YBlCz8LoUMR8MdIzRRG2tzgmY4i0C/EB14gu9kO5+jTaSaj5o2U3V78fTfrmA2gh0kGc7XSncW3Ifazx4xG3ar65HkQEJkohoaWnxeYTInSZ5xDLAmETr23F1X7nC8uRgprvezjIyWpxKmTIX44X96tuaJVKhFP4d/qS+J0TNa7P7Bo+Ntx7p3Yt60ysvovv3iTdegZum3UZCPX23J5ULUx70tT8ZD9L5XjNy92gmPupKrzah+1cL5dj14iJG90wwAABBXSURBVHja7J0JkFTFHYfbRCReWViygIAcioCgAlERCAQVVFDxBlSEEAhgNKCACWppAiqeUaOClnfFo1KGlBU1Jim1jIkGo7HMWbkq3TtvZ9jNLocLBARNNtlF2JkF3Jnumdfdr+f7qiyrrPo77/3+377Xr9/RQgAAAAAAAAAAAAAAAAAAAAAAAAAAAAAAAAAAAAAAAAAAAAAAAAAAAAAAAAAAAAAAAAAAAAAAAAAAAAAAAAAAAAAAAAAAAAAAAOxF93sP0uDcK0gsKM6pV1ILVdeJ1AKiUekKIBtILRwWSM3+txhwFbkFwyhpwInkFgwdTAQ4gNwQABAAEAAQABAAEAAQABAAEAAQABAAEAAQABAAEAAQABAAEAAQABAAEAAQABAAEAAQABAAEAAQABAAEAAQABAAEAAQABAAEAAQABAAYuIrfCewvFlpIsAycguHGt3u18q3SS0glm2WSgcpbya0sOhz2P4arLmMxAAAAAAAAAAAAMxYcEKXjgXTZfwZe5Q/OFqjvGOXK99sW36j1q+fMI9+lZjKzVJWa6Dkhgdz65ukVFrl8jM51Us3K53q6mq55SR6VlJ26K7dqNSGnPLbtO/mKvXzbHm9/t3gJnpWSkZKgw6+lq3PGNzQH9FaPVkp/fLldK2EPGHQQDUgW29SflFrNSuHOmc/kw5+Nltv8BessoMAnglEAARAAARAAARAAARAAARAAARAAARAAN8EOPY5BChrATJy7TkIUL4C9G/52TkIUK4C3PvJLbD0eAQoSwEqol3bLTdejQBlKEBdzm8fjgBlJ8ArbZ6YqTkZAcpLgKpoj5//EwKUlQA7An8mDQHa59l97GDmZAQoGwEy+9zBUxCgTAQ45VO24SIEKAsBKqN9b8I2eSYClIMAkz59K9YiQPgCHNPeZnyAAMEL0P5XDOsQIHABxra/G3IjAoQtwLp8O9eEACEL8ET+12bXIkDAAkwqYFtuQIBgBehdyK6oCxEgVAHuLGhf1CoECFSAdIG7djUCBCnA0EL3ph4BghRgU4F7ptRmBAhQgCGF7458HAHCE2B+4dtTK3siQHACaH38qh4BQhNgqdYOJflpcQTYJ/dpblOv8hJgQPACpDW3qTGxAiw0acHo4gTIPlDn68qhT+h+PVU+klQBBho0UL5qOFjaxerW6tP1i2vlBfGnskjb66hTUg14Xrv/KvdRmC/o6xNVZcu3ave/1sbKkTX6Yn5fJNgAvbU7Gwbmlo+P9Nb+VI25HxuvyGj9urSzcugSk8Pii4k1oOpEncU7f3H+XpdMOuWH7fmljfPX6FQ/dIGNRN4xOK+lIgGh8G2DoW1Kdia4UNigTK5OthJcICyRRgLIKUQXBlOkGXVEFwYPmPVfyRlkFwRnGR4BctbCgSQTmQrAlWAQdJPG3Eh6AbCfuQCO3ha8Y3zfz2kw/+G25Q/P16nu+7uqtuULFmmVT7irTXXlrbfrlD89uu2PDyyufJ8sMBdAznTR/8na56yay7PVlzXqznhFbZZv3SR1r5r751Sf3rztH2rdiaq/qrjy8/PmeXARAkxw0P8KgzHLpmx5g/6sR1SRLb/TIKUcgTbqX2vlPoWd1i/PP1BbpYz7r1x8NcLooYrBu6u7mlTnrB+d1k9L/bK1urvJr79ZTHlK9skX6P2qiEPA+/YFMDpiPbq72sXKoZe2Vhe5cqhR+UN5rwKLEWByQgQ4pJghrzcPhR5qUv75fIHKYpiOAIkXoJgDgIu5IAQorQD9ijoCyOMRIOEC9C5OgKkIkHABqooTYDoCJFyAkcUJECFAwgUYUpwAsgcCJFuAy4oUYG72f9X1mKuvv3FAl9k775b0PaLLY8NenXLaYATwW4BpqeIEmChEn84DZt3TOkNfXV2dkp+8/rDrv9RPf+CKPggQ5lXArptO7eWianf+q+a+MSMRwD8BukmLREf3QoCgpoINSE89CQHKWYDm88XaVxHAHwEi6YD6VxDAFwFecND/5hijXyGAHwKMk46I/ogAPggwXDoj/V0EcC9AL+mQrZUI4FqAIS4FkOmXEcCxAEIqpwo8gwCOBah3KoBS63sggFMBfuD2CKDUhp4I4FKA59wK0HwGuhgBXAowUrpmCgK4FMDNZHDulQBjALcCHO1YgJsQwK0AnR0PAU5DALcC9FMuh4FqA/MAjgUQdU4F+AkCuBZgscP+fySXIIBrAYSsdWfAj5kKdi/Axw6HgGMRwL0Abzm7IaQauBvogQCi0dkw8DAE8EGA2a4E2MQDIV4I4Gw6+CgE8EOAR5wMAJTBGqQIEIsATg4BupOArgQo8jNxJRNgVJwC3OLiANDBQACjp5iP3F09w2Q7hxcnwF9aq4eZbPs/WsuNvpG5tNBgo5R1AxoM+i+eNLlk7be7usJkO1dmf327Qfmq1uq7TCZKTsopV/rlvQsNdpH1W0LpShMBRJ3+L72UrX5cpnQjbMr5ce3FX1NtdnOjvgBzcn59nf6uazxzW297PniY4cthTc2x6hDNz62+M9KqlnJH2/smGb0fT0XLi9h22dT2Dbr+uuXvaeTa3Wr3U3KS8fuhA487UIPz9iw/T6f6uL0OU1/X+fXjpu1RXVnctlcUV94+/7J6D4AFZ7zjJatXgJUE7hfj0zbPANFYEveJqj9HNm8IKjmKzD1iaJPtGaCnCN0bJq+zfPXX3P+/ErsfHHVryyJYlieAPpK/JnkPOG3x9Eg6eCBcseSsa3oc8/LqGumMp+mAs84feeyhX77f7auA0Zh8W9m118Q/dISSMvu2ay5O7z4CO3wLRMn0o3m6f/bO7UxVQylJST9Qm7/Vbvsr/yMhZPI8ATYmIqKQifJ8FvBHRBQw21Qmz+IhbyhSChelfptn8D9RVhNTuGzcP9/FH+f/kM/+K/LOUfyblEI9+Ocd/LfQSzICCJX15xQwSbmWnAKl/8JCJqnvIKggj/3RiJmF3aV4jbhCPPYfXPBtqlmkFdzA/77jNe5T/pDAgiEllYpGDNK7Uf0lcgvob/8I/a8+/I3Ywuj9dcOPN3pU5UyyS9T4vra25UXSln92P1QY3TOuwwHmL/twCkiWABt+87PvNLN6XN9TT+jwjUGHVBX7sNoNhJoo/lnqpxW/ykRwomZ4epdagOcRIFEzPCV/Xvl1BEjQAUC9VXIBXiDWBAnQWPo3Fs4i1gTxbukFuJRUEzQE7Fd6Aa4j1+RwbQwvrT1OrMlhbgwCvMdVQGL4II7XVmchQGJ4OA4BTiXXpBDP5/0eINikcE0sAkzlFJCUa8ADYxFgHgIkRID1sfRfrCTahDAoHgHWkGwyyMT09aJHiTYZLI5JgJFEm4gRQDqu75e9T7iJYEJsX7D7kHCTQEVsApBtEpgUW/+trlYCppNAC+MTYBP5+i9AXYxfsb2YfP0/AAyKUYBbCNh74jwAiBXcDPD+APBOnAKMQQDfaYiz/2IsAftO91gFmJYiYb+piXkxCxL2nIkxC/ABEXs9BMzE3H9xNCF7zSVxCzCcjH0+AKTj7r/oSco+CzAhdgH6kLLHxH8A4DLAa1ZYEIAFI/wlY6H/4nVy9paDbAgwjpx9pcZG/8X3uB3kK0OtCDCIoD1li5X+i94k7SlP2hGAy4AyngPgsUCPedGWAI+RtY+stdV/cSyXAf6h5FJrAixj7UgPuVbY478I4B1RN4sC1CCAdzxisf9iEQKU7wiwhesRwLcR4DCrAgwmcs8EqBN2YS7QM75mWYALidwrJlnuv3iWQYBPbLTdf/FNQveHlDzXugAMAryaA7Lff3ERsfvDXAcC8NFwfzjcQf/FQoUBnpARTliHAJ4wz40AdyOAH9S46b+4kuj9uAKodCRAV7L3gkuEKzKcAzygyVn/xdkI4MEJoJM7AQZxIeieg4VDuBAs1ymAXbxNA8r4BNDM3+mAU2rlaKf9F8vogUvUto+FY2rogksB/ue6/2I+XXDYf9XZuQDLaYNDAZ4R7uEc4I4tHvRfTKAPzq4AL/BBgCFMBrpiovCC9Qjghhv86L84AgHKdwDQwky+FFG+A4CdNCCA/QtAeYY3/Rfv0g/7zPGn/2Ia7bD+979d+MRWWmKZRq/6L75IRywPAK/ySwCRpidWGe1Z/8Xt9MTmAOA63/ovZtIWa6TkOuEfDAMtDgA87L/oxWygLTJLfBSAO0LW/v77eNl/MRoBrAwA1VDhKXwvyEr/n/K1/+Im2mNBgDeEv3AIiP/v/6ce91/8ng7Fzd0+919cToNingDcLvzmbpoUK3We91/M+H979xISVRQHYPxP5MIKcnpZTUo5CZVG9sACrSSowKzondAie9DDNpFGRQVZEUIvImgT9IBqU9QioogWLVq1bhX35pnRIjVtcrJoEalTiajlzNzROed8v50rZb5z7zn33LlXGiVTq6S8R1RKnuDo1B8APCWWxP4ZooEsQlndXzLYC7C6v8gZWlndX0TVkcv7/mO06S9jyeX5/o9O/XlbgPcD4NtonfrLPL4a5K2waKaREeDl+b9Bt/5yineHeqY9ZV4BEIuTDACPvHMvio5YB3p0/nc3aNlfjtHOG1WiqelMAh4I+UVb9eRLfPtnvb79eVw88QEQEa0d592BibkgmvvIAEjEA937y1UiJrD8myf6e/Cec0Cc039brZigkWVAfErFDJmfGADxeCimOMYpIHb1JWKO2/SMdfenQYxyk68GxOaFGOYDTWPZ/N1tWn85xE0B+1b/PazjSZEBHv7qvBiJ20IDE8kQQ01lITiAw3+ZmGsD2wH/01wrwgiwltGHf5fX7e/J3K/WvWK8LDL3e/gvEBscddpp3ZfpmWKHjbTupc5p9Yk1XhK817XfVLHJQ5r3yO82jxG7FCguB//kd93GG2KdAF8R+uPjZbFR7RfSdwo9E1udtv7GQMfa74xY7J71k3/pYbHagZDNR79zK1esF7Z3BNxaQ/4OZ5WdK4GiAO2j1tn40FDWLMJ3e+HaNferwnSi95Br00og9JjgvZWHLJkH6lcSu2/DbMjf4CN0vyYEHbPPAupeHpX/aXbE2AHgOsFyAv/fprCR8R31ahJxB8b/1TFsY8h1P7Dwi0V+qWvWzM+WX6y2lClDjn0nuJqccZlbr3181wnPIWT8AjVK52WfE1m7kIgJKgjruiCMvM0knxeyz7e5rmbbQ+r+fup7aG9Os0ZDILhkPsk8t3Bzgxb1f67lNm/S+O6q6IVV6un697gt5xYTKcn2nShqSrEVQfSvUXt2UWeQLL5+JaWuDpuOLGDSH2zVE2cqp25ITwRdv/x7zfNqagzVdODbsXMo/je9G9Wyff82Igz9KPA/O6oGbWUYHW6fCytnjOejTyHTRhXnrFLJP+erJ0svb1rE552q8krSlqxS37rvw3m1xHfU1j0jpgSm8RHrsWeU709bdre1yYlzJLh/rzPV8aqcNF9+Np+pnjK3LX96Z+TBssKKntPDj77v2//exq+YWZZTWVyyfAK7+WaZnJ1eHbg23O8b1+nSiKg3Ezt+WOHfNSk3dxZHOgAAAAAAAAAAAAAAAAAAAAAAAAAAAAAAAAAAAAAAAAAAAAAAAAAAAAAAAAAAAAAAAAAAAAAAGBS/AJwej1ELdZhYAAAAAElFTkSuQmCC;" parent="1" vertex="1">
                    <mxGeometry x="1000" y="210" width="25" height="25" as="geometry"/>
                </mxCell>
                <mxCell id="210" value="" style="shape=image;verticalLabelPosition=bottom;labelBackgroundColor=default;verticalAlign=top;aspect=fixed;imageAspect=0;image=data:image/png,iVBORw0KGgoAAAANSUhEUgAAAgAAAAIACAMAAADDpiTIAAAACXBIWXMAAAsTAAALEwEAmpwYAAADAFBMVEVHcEwbluEnk+slluomk+YfjuYbkeYkku8gku4VlvIgk+sck+oejeUfjeYQkeQRessRi8silOkUedIkku8blekSjeoMkuwRaKUclukmkucvg8QZkuwglOkglukAgegejuEgku6NJyEnkOslj+Ugk+oikOYlluooiNgjlOogkuoghuQDjN4Ylekake4WlvElj+kfkukfjugckusRj+Elj+wgjugeluonj/cKkeAfjeYlj+kfk+shj+UgkukikOsgku4jk+odlOoek+sjlOsmkOwSkuEakukgjecbk+kfk+sjk+oik+okkesikOgVk+kfkusZl/IZku4Fh/Mkk+0il+0ckecljuYZg/Ufluskkuonk+sal+kKivMskegBk+Mgkuojkusjk+skk+8kk+oolOYRjucik+4fkuscjeIblfIdk+wkj+gWku0blekUj+gJleogi+omkewgkukIf+UhlOsQit0AlNIQj+Qkkuoikuskk+4gkewik+sXleokkeselukKitwZkOcclOofl+kikuokkuYllusdlOwhku4Aj9snkewWkeggkuohk+okl+ogk+sljucgluomlukjjeojku0gkOoSkOUPkeUllekfj+gkke4NjOclj+0eluosj+kakfAfleokk+kkkOkmkOokluokjegekuomkuofkOglkOsfk+wil+ofkuoeluoikuwek+kdlukfk+oblvAgk+ojkucgk+ggk+4elOkmi+obk+4alusak+odkuwlk+oglukbkeYnk+wfluskk+oKkOMZj+0lk+oakOkfleoal+kblucgk+okl+skluohluwAW+8kke4ekesbk+4jl+kek+ojl+kkkuglku4nkuogku0fjOoQjOQak+gfkesjlu4hlu4hluwjluwfk+4fk+kgk+sjkusgkusjlO4kkusek+sklukjluskluokkuomlushk+sfluokkukgkukjku0jk+sllukflushlO4jlu0flu4jk+ojle4el+kik+olk+ofk+omlOty4qXMAAAA3XRSTlMANdiDQnZBkqUZfYYxdz0HDFYJk2kVIQNoQwVVWOoOK6YBlCz8LoUMR8MdIzRRG2tzgmY4i0C/EB14gu9kO5+jTaSaj5o2U3V78fTfrmA2gh0kGc7XSncW3Ifazx4xG3ar65HkQEJkohoaWnxeYTInSZ5xDLAmETr23F1X7nC8uRgprvezjIyWpxKmTIX44X96tuaJVKhFP4d/qS+J0TNa7P7Bo+Ntx7p3Yt60ysvovv3iTdegZum3UZCPX23J5ULUx70tT8ZD9L5XjNy92gmPupKrzah+1cL5dj14iJG90wwAABBXSURBVHja7J0JkFTFHYfbRCReWViygIAcioCgAlERCAQVVFDxBlSEEAhgNKCACWppAiqeUaOClnfFo1KGlBU1Jim1jIkGo7HMWbkq3TtvZ9jNLocLBARNNtlF2JkF3Jnumdfdr+f7qiyrrPo77/3+377Xr9/RQgAAAAAAAAAAAAAAAAAAAAAAAAAAAAAAAAAAAAAAAAAAAAAAAAAAAAAAAAAAAAAAAAAAAAAAAAAAAAAAAAAAAAAAAAAAAAAAAOxF93sP0uDcK0gsKM6pV1ILVdeJ1AKiUekKIBtILRwWSM3+txhwFbkFwyhpwInkFgwdTAQ4gNwQABAAEAAQABAAEAAQABAAEAAQABAAEAAQABAAEAAQABAAEAAQABAAEAAQABAAEAAQABAAEAAQABAAEAAQABAAEAAQABAAEAAQABAAYuIrfCewvFlpIsAycguHGt3u18q3SS0glm2WSgcpbya0sOhz2P4arLmMxAAAAAAAAAAAAMxYcEKXjgXTZfwZe5Q/OFqjvGOXK99sW36j1q+fMI9+lZjKzVJWa6Dkhgdz65ukVFrl8jM51Us3K53q6mq55SR6VlJ26K7dqNSGnPLbtO/mKvXzbHm9/t3gJnpWSkZKgw6+lq3PGNzQH9FaPVkp/fLldK2EPGHQQDUgW29SflFrNSuHOmc/kw5+Nltv8BessoMAnglEAARAAARAAARAAARAAARAAARAAARAAN8EOPY5BChrATJy7TkIUL4C9G/52TkIUK4C3PvJLbD0eAQoSwEqol3bLTdejQBlKEBdzm8fjgBlJ8ArbZ6YqTkZAcpLgKpoj5//EwKUlQA7An8mDQHa59l97GDmZAQoGwEy+9zBUxCgTAQ45VO24SIEKAsBKqN9b8I2eSYClIMAkz59K9YiQPgCHNPeZnyAAMEL0P5XDOsQIHABxra/G3IjAoQtwLp8O9eEACEL8ET+12bXIkDAAkwqYFtuQIBgBehdyK6oCxEgVAHuLGhf1CoECFSAdIG7djUCBCnA0EL3ph4BghRgU4F7ptRmBAhQgCGF7458HAHCE2B+4dtTK3siQHACaH38qh4BQhNgqdYOJflpcQTYJ/dpblOv8hJgQPACpDW3qTGxAiw0acHo4gTIPlDn68qhT+h+PVU+klQBBho0UL5qOFjaxerW6tP1i2vlBfGnskjb66hTUg14Xrv/KvdRmC/o6xNVZcu3ave/1sbKkTX6Yn5fJNgAvbU7Gwbmlo+P9Nb+VI25HxuvyGj9urSzcugSk8Pii4k1oOpEncU7f3H+XpdMOuWH7fmljfPX6FQ/dIGNRN4xOK+lIgGh8G2DoW1Kdia4UNigTK5OthJcICyRRgLIKUQXBlOkGXVEFwYPmPVfyRlkFwRnGR4BctbCgSQTmQrAlWAQdJPG3Eh6AbCfuQCO3ha8Y3zfz2kw/+G25Q/P16nu+7uqtuULFmmVT7irTXXlrbfrlD89uu2PDyyufJ8sMBdAznTR/8na56yay7PVlzXqznhFbZZv3SR1r5r751Sf3rztH2rdiaq/qrjy8/PmeXARAkxw0P8KgzHLpmx5g/6sR1SRLb/TIKUcgTbqX2vlPoWd1i/PP1BbpYz7r1x8NcLooYrBu6u7mlTnrB+d1k9L/bK1urvJr79ZTHlK9skX6P2qiEPA+/YFMDpiPbq72sXKoZe2Vhe5cqhR+UN5rwKLEWByQgQ4pJghrzcPhR5qUv75fIHKYpiOAIkXoJgDgIu5IAQorQD9ijoCyOMRIOEC9C5OgKkIkHABqooTYDoCJFyAkcUJECFAwgUYUpwAsgcCJFuAy4oUYG72f9X1mKuvv3FAl9k775b0PaLLY8NenXLaYATwW4BpqeIEmChEn84DZt3TOkNfXV2dkp+8/rDrv9RPf+CKPggQ5lXArptO7eWianf+q+a+MSMRwD8BukmLREf3QoCgpoINSE89CQHKWYDm88XaVxHAHwEi6YD6VxDAFwFecND/5hijXyGAHwKMk46I/ogAPggwXDoj/V0EcC9AL+mQrZUI4FqAIS4FkOmXEcCxAEIqpwo8gwCOBah3KoBS63sggFMBfuD2CKDUhp4I4FKA59wK0HwGuhgBXAowUrpmCgK4FMDNZHDulQBjALcCHO1YgJsQwK0AnR0PAU5DALcC9FMuh4FqA/MAjgUQdU4F+AkCuBZgscP+fySXIIBrAYSsdWfAj5kKdi/Axw6HgGMRwL0Abzm7IaQauBvogQCi0dkw8DAE8EGA2a4E2MQDIV4I4Gw6+CgE8EOAR5wMAJTBGqQIEIsATg4BupOArgQo8jNxJRNgVJwC3OLiANDBQACjp5iP3F09w2Q7hxcnwF9aq4eZbPs/WsuNvpG5tNBgo5R1AxoM+i+eNLlk7be7usJkO1dmf327Qfmq1uq7TCZKTsopV/rlvQsNdpH1W0LpShMBRJ3+L72UrX5cpnQjbMr5ce3FX1NtdnOjvgBzcn59nf6uazxzW297PniY4cthTc2x6hDNz62+M9KqlnJH2/smGb0fT0XLi9h22dT2Dbr+uuXvaeTa3Wr3U3KS8fuhA487UIPz9iw/T6f6uL0OU1/X+fXjpu1RXVnctlcUV94+/7J6D4AFZ7zjJatXgJUE7hfj0zbPANFYEveJqj9HNm8IKjmKzD1iaJPtGaCnCN0bJq+zfPXX3P+/ErsfHHVryyJYlieAPpK/JnkPOG3x9Eg6eCBcseSsa3oc8/LqGumMp+mAs84feeyhX77f7auA0Zh8W9m118Q/dISSMvu2ay5O7z4CO3wLRMn0o3m6f/bO7UxVQylJST9Qm7/Vbvsr/yMhZPI8ATYmIqKQifJ8FvBHRBQw21Qmz+IhbyhSChelfptn8D9RVhNTuGzcP9/FH+f/kM/+K/LOUfyblEI9+Ocd/LfQSzICCJX15xQwSbmWnAKl/8JCJqnvIKggj/3RiJmF3aV4jbhCPPYfXPBtqlmkFdzA/77jNe5T/pDAgiEllYpGDNK7Uf0lcgvob/8I/a8+/I3Ywuj9dcOPN3pU5UyyS9T4vra25UXSln92P1QY3TOuwwHmL/twCkiWABt+87PvNLN6XN9TT+jwjUGHVBX7sNoNhJoo/lnqpxW/ykRwomZ4epdagOcRIFEzPCV/Xvl1BEjQAUC9VXIBXiDWBAnQWPo3Fs4i1gTxbukFuJRUEzQE7Fd6Aa4j1+RwbQwvrT1OrMlhbgwCvMdVQGL4II7XVmchQGJ4OA4BTiXXpBDP5/0eINikcE0sAkzlFJCUa8ADYxFgHgIkRID1sfRfrCTahDAoHgHWkGwyyMT09aJHiTYZLI5JgJFEm4gRQDqu75e9T7iJYEJsX7D7kHCTQEVsApBtEpgUW/+trlYCppNAC+MTYBP5+i9AXYxfsb2YfP0/AAyKUYBbCNh74jwAiBXcDPD+APBOnAKMQQDfaYiz/2IsAftO91gFmJYiYb+piXkxCxL2nIkxC/ABEXs9BMzE3H9xNCF7zSVxCzCcjH0+AKTj7r/oSco+CzAhdgH6kLLHxH8A4DLAa1ZYEIAFI/wlY6H/4nVy9paDbAgwjpx9pcZG/8X3uB3kK0OtCDCIoD1li5X+i94k7SlP2hGAy4AyngPgsUCPedGWAI+RtY+stdV/cSyXAf6h5FJrAixj7UgPuVbY478I4B1RN4sC1CCAdzxisf9iEQKU7wiwhesRwLcR4DCrAgwmcs8EqBN2YS7QM75mWYALidwrJlnuv3iWQYBPbLTdf/FNQveHlDzXugAMAryaA7Lff3ERsfvDXAcC8NFwfzjcQf/FQoUBnpARTliHAJ4wz40AdyOAH9S46b+4kuj9uAKodCRAV7L3gkuEKzKcAzygyVn/xdkI4MEJoJM7AQZxIeieg4VDuBAs1ymAXbxNA8r4BNDM3+mAU2rlaKf9F8vogUvUto+FY2rogksB/ue6/2I+XXDYf9XZuQDLaYNDAZ4R7uEc4I4tHvRfTKAPzq4AL/BBgCFMBrpiovCC9Qjghhv86L84AgHKdwDQwky+FFG+A4CdNCCA/QtAeYY3/Rfv0g/7zPGn/2Ia7bD+979d+MRWWmKZRq/6L75IRywPAK/ySwCRpidWGe1Z/8Xt9MTmAOA63/ovZtIWa6TkOuEfDAMtDgA87L/oxWygLTJLfBSAO0LW/v77eNl/MRoBrAwA1VDhKXwvyEr/n/K1/+Im2mNBgDeEv3AIiP/v/6ce91/8ng7Fzd0+919cToNingDcLvzmbpoUK3We91/M+H979xISVRQHYPxP5MIKcnpZTUo5CZVG9sACrSSowKzondAie9DDNpFGRQVZEUIvImgT9IBqU9QioogWLVq1bhX35pnRIjVtcrJoEalTiajlzNzROed8v50rZb5z7zn33LlXGiVTq6S8R1RKnuDo1B8APCWWxP4ZooEsQlndXzLYC7C6v8gZWlndX0TVkcv7/mO06S9jyeX5/o9O/XlbgPcD4NtonfrLPL4a5K2waKaREeDl+b9Bt/5yineHeqY9ZV4BEIuTDACPvHMvio5YB3p0/nc3aNlfjtHOG1WiqelMAh4I+UVb9eRLfPtnvb79eVw88QEQEa0d592BibkgmvvIAEjEA937y1UiJrD8myf6e/Cec0Cc039brZigkWVAfErFDJmfGADxeCimOMYpIHb1JWKO2/SMdfenQYxyk68GxOaFGOYDTWPZ/N1tWn85xE0B+1b/PazjSZEBHv7qvBiJ20IDE8kQQ01lITiAw3+ZmGsD2wH/01wrwgiwltGHf5fX7e/J3K/WvWK8LDL3e/gvEBscddpp3ZfpmWKHjbTupc5p9Yk1XhK817XfVLHJQ5r3yO82jxG7FCguB//kd93GG2KdAF8R+uPjZbFR7RfSdwo9E1udtv7GQMfa74xY7J71k3/pYbHagZDNR79zK1esF7Z3BNxaQ/4OZ5WdK4GiAO2j1tn40FDWLMJ3e+HaNferwnSi95Br00og9JjgvZWHLJkH6lcSu2/DbMjf4CN0vyYEHbPPAupeHpX/aXbE2AHgOsFyAv/fprCR8R31ahJxB8b/1TFsY8h1P7Dwi0V+qWvWzM+WX6y2lClDjn0nuJqccZlbr3181wnPIWT8AjVK52WfE1m7kIgJKgjruiCMvM0knxeyz7e5rmbbQ+r+fup7aG9Os0ZDILhkPsk8t3Bzgxb1f67lNm/S+O6q6IVV6un697gt5xYTKcn2nShqSrEVQfSvUXt2UWeQLL5+JaWuDpuOLGDSH2zVE2cqp25ITwRdv/x7zfNqagzVdODbsXMo/je9G9Wyff82Igz9KPA/O6oGbWUYHW6fCytnjOejTyHTRhXnrFLJP+erJ0svb1rE552q8krSlqxS37rvw3m1xHfU1j0jpgSm8RHrsWeU709bdre1yYlzJLh/rzPV8aqcNF9+Np+pnjK3LX96Z+TBssKKntPDj77v2//exq+YWZZTWVyyfAK7+WaZnJ1eHbg23O8b1+nSiKg3Ezt+WOHfNSk3dxZHOgAAAAAAAAAAAAAAAAAAAAAAAAAAAAAAAAAAAAAAAAAAAAAAAAAAAAAAAAAAAAAAAAAAAAAAGBS/AJwej1ELdZhYAAAAAElFTkSuQmCC;" parent="1" vertex="1">
                    <mxGeometry x="999" y="524" width="25" height="25" as="geometry"/>
                </mxCell>
                <mxCell id="211" value="" style="shape=image;verticalLabelPosition=bottom;labelBackgroundColor=default;verticalAlign=top;aspect=fixed;imageAspect=0;image=data:image/png,iVBORw0KGgoAAAANSUhEUgAAAgAAAAIACAMAAADDpiTIAAAACXBIWXMAAAsTAAALEwEAmpwYAAADAFBMVEVHcEwbluEnk+slluomk+YfjuYbkeYkku8gku4VlvIgk+sck+oejeUfjeYQkeQRessRi8silOkUedIkku8blekSjeoMkuwRaKUclukmkucvg8QZkuwglOkglukAgegejuEgku6NJyEnkOslj+Ugk+oikOYlluooiNgjlOogkuoghuQDjN4Ylekake4WlvElj+kfkukfjugckusRj+Elj+wgjugeluonj/cKkeAfjeYlj+kfk+shj+UgkukikOsgku4jk+odlOoek+sjlOsmkOwSkuEakukgjecbk+kfk+sjk+oik+okkesikOgVk+kfkusZl/IZku4Fh/Mkk+0il+0ckecljuYZg/Ufluskkuonk+sal+kKivMskegBk+Mgkuojkusjk+skk+8kk+oolOYRjucik+4fkuscjeIblfIdk+wkj+gWku0blekUj+gJleogi+omkewgkukIf+UhlOsQit0AlNIQj+Qkkuoikuskk+4gkewik+sXleokkeselukKitwZkOcclOofl+kikuokkuYllusdlOwhku4Aj9snkewWkeggkuohk+okl+ogk+sljucgluomlukjjeojku0gkOoSkOUPkeUllekfj+gkke4NjOclj+0eluosj+kakfAfleokk+kkkOkmkOokluokjegekuomkuofkOglkOsfk+wil+ofkuoeluoikuwek+kdlukfk+oblvAgk+ojkucgk+ggk+4elOkmi+obk+4alusak+odkuwlk+oglukbkeYnk+wfluskk+oKkOMZj+0lk+oakOkfleoal+kblucgk+okl+skluohluwAW+8kke4ekesbk+4jl+kek+ojl+kkkuglku4nkuogku0fjOoQjOQak+gfkesjlu4hlu4hluwjluwfk+4fk+kgk+sjkusgkusjlO4kkusek+sklukjluskluokkuomlushk+sfluokkukgkukjku0jk+sllukflushlO4jlu0flu4jk+ojle4el+kik+olk+ofk+omlOty4qXMAAAA3XRSTlMANdiDQnZBkqUZfYYxdz0HDFYJk2kVIQNoQwVVWOoOK6YBlCz8LoUMR8MdIzRRG2tzgmY4i0C/EB14gu9kO5+jTaSaj5o2U3V78fTfrmA2gh0kGc7XSncW3Ifazx4xG3ar65HkQEJkohoaWnxeYTInSZ5xDLAmETr23F1X7nC8uRgprvezjIyWpxKmTIX44X96tuaJVKhFP4d/qS+J0TNa7P7Bo+Ntx7p3Yt60ysvovv3iTdegZum3UZCPX23J5ULUx70tT8ZD9L5XjNy92gmPupKrzah+1cL5dj14iJG90wwAABBXSURBVHja7J0JkFTFHYfbRCReWViygIAcioCgAlERCAQVVFDxBlSEEAhgNKCACWppAiqeUaOClnfFo1KGlBU1Jim1jIkGo7HMWbkq3TtvZ9jNLocLBARNNtlF2JkF3Jnumdfdr+f7qiyrrPo77/3+377Xr9/RQgAAAAAAAAAAAAAAAAAAAAAAAAAAAAAAAAAAAAAAAAAAAAAAAAAAAAAAAAAAAAAAAAAAAAAAAAAAAAAAAAAAAAAAAAAAAAAAAOxF93sP0uDcK0gsKM6pV1ILVdeJ1AKiUekKIBtILRwWSM3+txhwFbkFwyhpwInkFgwdTAQ4gNwQABAAEAAQABAAEAAQABAAEAAQABAAEAAQABAAEAAQABAAEAAQABAAEAAQABAAEAAQABAAEAAQABAAEAAQABAAEAAQABAAEAAQABAAYuIrfCewvFlpIsAycguHGt3u18q3SS0glm2WSgcpbya0sOhz2P4arLmMxAAAAAAAAAAAAMxYcEKXjgXTZfwZe5Q/OFqjvGOXK99sW36j1q+fMI9+lZjKzVJWa6Dkhgdz65ukVFrl8jM51Us3K53q6mq55SR6VlJ26K7dqNSGnPLbtO/mKvXzbHm9/t3gJnpWSkZKgw6+lq3PGNzQH9FaPVkp/fLldK2EPGHQQDUgW29SflFrNSuHOmc/kw5+Nltv8BessoMAnglEAARAAARAAARAAARAAARAAARAAARAAN8EOPY5BChrATJy7TkIUL4C9G/52TkIUK4C3PvJLbD0eAQoSwEqol3bLTdejQBlKEBdzm8fjgBlJ8ArbZ6YqTkZAcpLgKpoj5//EwKUlQA7An8mDQHa59l97GDmZAQoGwEy+9zBUxCgTAQ45VO24SIEKAsBKqN9b8I2eSYClIMAkz59K9YiQPgCHNPeZnyAAMEL0P5XDOsQIHABxra/G3IjAoQtwLp8O9eEACEL8ET+12bXIkDAAkwqYFtuQIBgBehdyK6oCxEgVAHuLGhf1CoECFSAdIG7djUCBCnA0EL3ph4BghRgU4F7ptRmBAhQgCGF7458HAHCE2B+4dtTK3siQHACaH38qh4BQhNgqdYOJflpcQTYJ/dpblOv8hJgQPACpDW3qTGxAiw0acHo4gTIPlDn68qhT+h+PVU+klQBBho0UL5qOFjaxerW6tP1i2vlBfGnskjb66hTUg14Xrv/KvdRmC/o6xNVZcu3ave/1sbKkTX6Yn5fJNgAvbU7Gwbmlo+P9Nb+VI25HxuvyGj9urSzcugSk8Pii4k1oOpEncU7f3H+XpdMOuWH7fmljfPX6FQ/dIGNRN4xOK+lIgGh8G2DoW1Kdia4UNigTK5OthJcICyRRgLIKUQXBlOkGXVEFwYPmPVfyRlkFwRnGR4BctbCgSQTmQrAlWAQdJPG3Eh6AbCfuQCO3ha8Y3zfz2kw/+G25Q/P16nu+7uqtuULFmmVT7irTXXlrbfrlD89uu2PDyyufJ8sMBdAznTR/8na56yay7PVlzXqznhFbZZv3SR1r5r751Sf3rztH2rdiaq/qrjy8/PmeXARAkxw0P8KgzHLpmx5g/6sR1SRLb/TIKUcgTbqX2vlPoWd1i/PP1BbpYz7r1x8NcLooYrBu6u7mlTnrB+d1k9L/bK1urvJr79ZTHlK9skX6P2qiEPA+/YFMDpiPbq72sXKoZe2Vhe5cqhR+UN5rwKLEWByQgQ4pJghrzcPhR5qUv75fIHKYpiOAIkXoJgDgIu5IAQorQD9ijoCyOMRIOEC9C5OgKkIkHABqooTYDoCJFyAkcUJECFAwgUYUpwAsgcCJFuAy4oUYG72f9X1mKuvv3FAl9k775b0PaLLY8NenXLaYATwW4BpqeIEmChEn84DZt3TOkNfXV2dkp+8/rDrv9RPf+CKPggQ5lXArptO7eWianf+q+a+MSMRwD8BukmLREf3QoCgpoINSE89CQHKWYDm88XaVxHAHwEi6YD6VxDAFwFecND/5hijXyGAHwKMk46I/ogAPggwXDoj/V0EcC9AL+mQrZUI4FqAIS4FkOmXEcCxAEIqpwo8gwCOBah3KoBS63sggFMBfuD2CKDUhp4I4FKA59wK0HwGuhgBXAowUrpmCgK4FMDNZHDulQBjALcCHO1YgJsQwK0AnR0PAU5DALcC9FMuh4FqA/MAjgUQdU4F+AkCuBZgscP+fySXIIBrAYSsdWfAj5kKdi/Axw6HgGMRwL0Abzm7IaQauBvogQCi0dkw8DAE8EGA2a4E2MQDIV4I4Gw6+CgE8EOAR5wMAJTBGqQIEIsATg4BupOArgQo8jNxJRNgVJwC3OLiANDBQACjp5iP3F09w2Q7hxcnwF9aq4eZbPs/WsuNvpG5tNBgo5R1AxoM+i+eNLlk7be7usJkO1dmf327Qfmq1uq7TCZKTsopV/rlvQsNdpH1W0LpShMBRJ3+L72UrX5cpnQjbMr5ce3FX1NtdnOjvgBzcn59nf6uazxzW297PniY4cthTc2x6hDNz62+M9KqlnJH2/smGb0fT0XLi9h22dT2Dbr+uuXvaeTa3Wr3U3KS8fuhA487UIPz9iw/T6f6uL0OU1/X+fXjpu1RXVnctlcUV94+/7J6D4AFZ7zjJatXgJUE7hfj0zbPANFYEveJqj9HNm8IKjmKzD1iaJPtGaCnCN0bJq+zfPXX3P+/ErsfHHVryyJYlieAPpK/JnkPOG3x9Eg6eCBcseSsa3oc8/LqGumMp+mAs84feeyhX77f7auA0Zh8W9m118Q/dISSMvu2ay5O7z4CO3wLRMn0o3m6f/bO7UxVQylJST9Qm7/Vbvsr/yMhZPI8ATYmIqKQifJ8FvBHRBQw21Qmz+IhbyhSChelfptn8D9RVhNTuGzcP9/FH+f/kM/+K/LOUfyblEI9+Ocd/LfQSzICCJX15xQwSbmWnAKl/8JCJqnvIKggj/3RiJmF3aV4jbhCPPYfXPBtqlmkFdzA/77jNe5T/pDAgiEllYpGDNK7Uf0lcgvob/8I/a8+/I3Ywuj9dcOPN3pU5UyyS9T4vra25UXSln92P1QY3TOuwwHmL/twCkiWABt+87PvNLN6XN9TT+jwjUGHVBX7sNoNhJoo/lnqpxW/ykRwomZ4epdagOcRIFEzPCV/Xvl1BEjQAUC9VXIBXiDWBAnQWPo3Fs4i1gTxbukFuJRUEzQE7Fd6Aa4j1+RwbQwvrT1OrMlhbgwCvMdVQGL4II7XVmchQGJ4OA4BTiXXpBDP5/0eINikcE0sAkzlFJCUa8ADYxFgHgIkRID1sfRfrCTahDAoHgHWkGwyyMT09aJHiTYZLI5JgJFEm4gRQDqu75e9T7iJYEJsX7D7kHCTQEVsApBtEpgUW/+trlYCppNAC+MTYBP5+i9AXYxfsb2YfP0/AAyKUYBbCNh74jwAiBXcDPD+APBOnAKMQQDfaYiz/2IsAftO91gFmJYiYb+piXkxCxL2nIkxC/ABEXs9BMzE3H9xNCF7zSVxCzCcjH0+AKTj7r/oSco+CzAhdgH6kLLHxH8A4DLAa1ZYEIAFI/wlY6H/4nVy9paDbAgwjpx9pcZG/8X3uB3kK0OtCDCIoD1li5X+i94k7SlP2hGAy4AyngPgsUCPedGWAI+RtY+stdV/cSyXAf6h5FJrAixj7UgPuVbY478I4B1RN4sC1CCAdzxisf9iEQKU7wiwhesRwLcR4DCrAgwmcs8EqBN2YS7QM75mWYALidwrJlnuv3iWQYBPbLTdf/FNQveHlDzXugAMAryaA7Lff3ERsfvDXAcC8NFwfzjcQf/FQoUBnpARTliHAJ4wz40AdyOAH9S46b+4kuj9uAKodCRAV7L3gkuEKzKcAzygyVn/xdkI4MEJoJM7AQZxIeieg4VDuBAs1ymAXbxNA8r4BNDM3+mAU2rlaKf9F8vogUvUto+FY2rogksB/ue6/2I+XXDYf9XZuQDLaYNDAZ4R7uEc4I4tHvRfTKAPzq4AL/BBgCFMBrpiovCC9Qjghhv86L84AgHKdwDQwky+FFG+A4CdNCCA/QtAeYY3/Rfv0g/7zPGn/2Ia7bD+979d+MRWWmKZRq/6L75IRywPAK/ySwCRpidWGe1Z/8Xt9MTmAOA63/ovZtIWa6TkOuEfDAMtDgA87L/oxWygLTJLfBSAO0LW/v77eNl/MRoBrAwA1VDhKXwvyEr/n/K1/+Im2mNBgDeEv3AIiP/v/6ce91/8ng7Fzd0+919cToNingDcLvzmbpoUK3We91/M+H979xISVRQHYPxP5MIKcnpZTUo5CZVG9sACrSSowKzondAie9DDNpFGRQVZEUIvImgT9IBqU9QioogWLVq1bhX35pnRIjVtcrJoEalTiajlzNzROed8v50rZb5z7zn33LlXGiVTq6S8R1RKnuDo1B8APCWWxP4ZooEsQlndXzLYC7C6v8gZWlndX0TVkcv7/mO06S9jyeX5/o9O/XlbgPcD4NtonfrLPL4a5K2waKaREeDl+b9Bt/5yineHeqY9ZV4BEIuTDACPvHMvio5YB3p0/nc3aNlfjtHOG1WiqelMAh4I+UVb9eRLfPtnvb79eVw88QEQEa0d592BibkgmvvIAEjEA937y1UiJrD8myf6e/Cec0Cc039brZigkWVAfErFDJmfGADxeCimOMYpIHb1JWKO2/SMdfenQYxyk68GxOaFGOYDTWPZ/N1tWn85xE0B+1b/PazjSZEBHv7qvBiJ20IDE8kQQ01lITiAw3+ZmGsD2wH/01wrwgiwltGHf5fX7e/J3K/WvWK8LDL3e/gvEBscddpp3ZfpmWKHjbTupc5p9Yk1XhK817XfVLHJQ5r3yO82jxG7FCguB//kd93GG2KdAF8R+uPjZbFR7RfSdwo9E1udtv7GQMfa74xY7J71k3/pYbHagZDNR79zK1esF7Z3BNxaQ/4OZ5WdK4GiAO2j1tn40FDWLMJ3e+HaNferwnSi95Br00og9JjgvZWHLJkH6lcSu2/DbMjf4CN0vyYEHbPPAupeHpX/aXbE2AHgOsFyAv/fprCR8R31ahJxB8b/1TFsY8h1P7Dwi0V+qWvWzM+WX6y2lClDjn0nuJqccZlbr3181wnPIWT8AjVK52WfE1m7kIgJKgjruiCMvM0knxeyz7e5rmbbQ+r+fup7aG9Os0ZDILhkPsk8t3Bzgxb1f67lNm/S+O6q6IVV6un697gt5xYTKcn2nShqSrEVQfSvUXt2UWeQLL5+JaWuDpuOLGDSH2zVE2cqp25ITwRdv/x7zfNqagzVdODbsXMo/je9G9Wyff82Igz9KPA/O6oGbWUYHW6fCytnjOejTyHTRhXnrFLJP+erJ0svb1rE552q8krSlqxS37rvw3m1xHfU1j0jpgSm8RHrsWeU709bdre1yYlzJLh/rzPV8aqcNF9+Np+pnjK3LX96Z+TBssKKntPDj77v2//exq+YWZZTWVyyfAK7+WaZnJ1eHbg23O8b1+nSiKg3Ezt+WOHfNSk3dxZHOgAAAAAAAAAAAAAAAAAAAAAAAAAAAAAAAAAAAAAAAAAAAAAAAAAAAAAAAAAAAAAAAAAAAAAAGBS/AJwej1ELdZhYAAAAAElFTkSuQmCC;" parent="1" vertex="1">
                    <mxGeometry x="-147.5" y="1180" width="30" height="30" as="geometry"/>
                </mxCell>
                <mxCell id="214" value="" style="rounded=1;whiteSpace=wrap;html=1;strokeColor=#FFC249;" parent="1" vertex="1">
                    <mxGeometry x="-160" y="1150" width="50" height="22" as="geometry"/>
                </mxCell>
                <mxCell id="215" value="MVP" style="text;strokeColor=none;align=left;fillColor=none;html=1;verticalAlign=middle;whiteSpace=wrap;rounded=0;" parent="1" vertex="1">
                    <mxGeometry x="-100" y="1118" width="70" height="24" as="geometry"/>
                </mxCell>
                <mxCell id="217" value="Post-MVP" style="text;strokeColor=none;align=left;fillColor=none;html=1;verticalAlign=middle;whiteSpace=wrap;rounded=0;" parent="1" vertex="1">
                    <mxGeometry x="-100" y="1150" width="80" height="24" as="geometry"/>
                </mxCell>
                <mxCell id="218" value="Dockerize" style="text;strokeColor=none;align=left;fillColor=none;html=1;verticalAlign=middle;whiteSpace=wrap;rounded=0;" parent="1" vertex="1">
                    <mxGeometry x="-100" y="1183" width="80" height="24" as="geometry"/>
                </mxCell>
                <mxCell id="219" value="" style="ellipse;whiteSpace=wrap;html=1;aspect=fixed;fillColor=#33FF33;strokeColor=none;" parent="1" vertex="1">
                    <mxGeometry x="6.5" y="1120" width="20" height="20" as="geometry"/>
                </mxCell>
                <mxCell id="220" value="Completed" style="text;strokeColor=none;align=left;fillColor=none;html=1;verticalAlign=middle;whiteSpace=wrap;rounded=0;" parent="1" vertex="1">
                    <mxGeometry x="43" y="1121" width="80" height="24" as="geometry"/>
                </mxCell>
                <mxCell id="221" value="" style="ellipse;whiteSpace=wrap;html=1;aspect=fixed;fillColor=#FFFF00;strokeColor=none;" parent="1" vertex="1">
                    <mxGeometry x="6.5" y="1151" width="20" height="20" as="geometry"/>
                </mxCell>
                <mxCell id="222" value="In Development" style="text;strokeColor=none;align=left;fillColor=none;html=1;verticalAlign=middle;whiteSpace=wrap;rounded=0;" parent="1" vertex="1">
                    <mxGeometry x="43" y="1152" width="97" height="24" as="geometry"/>
                </mxCell>
                <mxCell id="224" value="" style="html=1;verticalLabelPosition=bottom;labelBackgroundColor=#ffffff;verticalAlign=top;shadow=0;dashed=0;strokeWidth=2;shape=mxgraph.ios7.misc.star;fillColor=#FF33FF;strokeColor=none;sketch=0;" parent="1" vertex="1">
                    <mxGeometry x="8.5" y="1182" width="20" height="20" as="geometry"/>
                </mxCell>
                <mxCell id="226" value="Core module" style="text;strokeColor=none;align=left;fillColor=none;html=1;verticalAlign=middle;whiteSpace=wrap;rounded=0;" parent="1" vertex="1">
                    <mxGeometry x="43" y="1182" width="97" height="24" as="geometry"/>
                </mxCell>
                <mxCell id="228" value="" style="html=1;verticalLabelPosition=bottom;labelBackgroundColor=#ffffff;verticalAlign=top;shadow=0;dashed=0;strokeWidth=2;shape=mxgraph.ios7.misc.star;fillColor=#FF33FF;strokeColor=none;sketch=0;" parent="1" vertex="1">
                    <mxGeometry x="363.5" y="982" width="20" height="20" as="geometry"/>
                </mxCell>
                <mxCell id="229" value="" style="html=1;verticalLabelPosition=bottom;labelBackgroundColor=#ffffff;verticalAlign=top;shadow=0;dashed=0;strokeWidth=2;shape=mxgraph.ios7.misc.star;fillColor=#FF33FF;strokeColor=none;sketch=0;" parent="1" vertex="1">
                    <mxGeometry x="364.5" y="852" width="20" height="20" as="geometry"/>
                </mxCell>
                <mxCell id="230" value="" style="html=1;verticalLabelPosition=bottom;labelBackgroundColor=#ffffff;verticalAlign=top;shadow=0;dashed=0;strokeWidth=2;shape=mxgraph.ios7.misc.star;fillColor=#FF33FF;strokeColor=none;sketch=0;" parent="1" vertex="1">
                    <mxGeometry x="366.5" y="752" width="20" height="20" as="geometry"/>
                </mxCell>
                <mxCell id="231" value="" style="html=1;verticalLabelPosition=bottom;labelBackgroundColor=#ffffff;verticalAlign=top;shadow=0;dashed=0;strokeWidth=2;shape=mxgraph.ios7.misc.star;fillColor=#FF33FF;strokeColor=none;sketch=0;" parent="1" vertex="1">
                    <mxGeometry x="365.5" y="632" width="20" height="20" as="geometry"/>
                </mxCell>
                <mxCell id="232" value="" style="html=1;verticalLabelPosition=bottom;labelBackgroundColor=#ffffff;verticalAlign=top;shadow=0;dashed=0;strokeWidth=2;shape=mxgraph.ios7.misc.star;fillColor=#FF33FF;strokeColor=none;sketch=0;" parent="1" vertex="1">
                    <mxGeometry x="355.5" y="522" width="20" height="20" as="geometry"/>
                </mxCell>
                <mxCell id="233" value="" style="html=1;verticalLabelPosition=bottom;labelBackgroundColor=#ffffff;verticalAlign=top;shadow=0;dashed=0;strokeWidth=2;shape=mxgraph.ios7.misc.star;fillColor=#FF33FF;strokeColor=none;sketch=0;" parent="1" vertex="1">
                    <mxGeometry x="355.5" y="422" width="20" height="20" as="geometry"/>
                </mxCell>
                <mxCell id="234" value="" style="html=1;verticalLabelPosition=bottom;labelBackgroundColor=#ffffff;verticalAlign=top;shadow=0;dashed=0;strokeWidth=2;shape=mxgraph.ios7.misc.star;fillColor=#FF33FF;strokeColor=none;sketch=0;" parent="1" vertex="1">
                    <mxGeometry x="555.5" y="522" width="20" height="20" as="geometry"/>
                </mxCell>
                <mxCell id="235" value="" style="html=1;verticalLabelPosition=bottom;labelBackgroundColor=#ffffff;verticalAlign=top;shadow=0;dashed=0;strokeWidth=2;shape=mxgraph.ios7.misc.star;fillColor=#FF33FF;strokeColor=none;sketch=0;" parent="1" vertex="1">
                    <mxGeometry x="355.5" y="-35" width="20" height="20" as="geometry"/>
                </mxCell>
                <mxCell id="236" value="" style="html=1;verticalLabelPosition=bottom;labelBackgroundColor=#ffffff;verticalAlign=top;shadow=0;dashed=0;strokeWidth=2;shape=mxgraph.ios7.misc.star;fillColor=#FF33FF;strokeColor=none;sketch=0;" parent="1" vertex="1">
                    <mxGeometry x="1005.5" y="305" width="20" height="20" as="geometry"/>
                </mxCell>
                <mxCell id="237" value="" style="html=1;verticalLabelPosition=bottom;labelBackgroundColor=#ffffff;verticalAlign=top;shadow=0;dashed=0;strokeWidth=2;shape=mxgraph.ios7.misc.star;fillColor=#FF33FF;strokeColor=none;sketch=0;" parent="1" vertex="1">
                    <mxGeometry x="1006.5" y="405" width="20" height="20" as="geometry"/>
                </mxCell>
                <mxCell id="238" value="" style="html=1;verticalLabelPosition=bottom;labelBackgroundColor=#ffffff;verticalAlign=top;shadow=0;dashed=0;strokeWidth=2;shape=mxgraph.ios7.misc.star;fillColor=#FF33FF;strokeColor=none;sketch=0;" parent="1" vertex="1">
                    <mxGeometry x="1007.5" y="635" width="20" height="20" as="geometry"/>
                </mxCell>
                <mxCell id="240" value="" style="shape=image;verticalLabelPosition=bottom;labelBackgroundColor=default;verticalAlign=top;aspect=fixed;imageAspect=0;image=data:image/png,iVBORw0KGgoAAAANSUhEUgAAAgAAAAIACAMAAADDpiTIAAAACXBIWXMAAAsTAAALEwEAmpwYAAADAFBMVEVHcEwbluEnk+slluomk+YfjuYbkeYkku8gku4VlvIgk+sck+oejeUfjeYQkeQRessRi8silOkUedIkku8blekSjeoMkuwRaKUclukmkucvg8QZkuwglOkglukAgegejuEgku6NJyEnkOslj+Ugk+oikOYlluooiNgjlOogkuoghuQDjN4Ylekake4WlvElj+kfkukfjugckusRj+Elj+wgjugeluonj/cKkeAfjeYlj+kfk+shj+UgkukikOsgku4jk+odlOoek+sjlOsmkOwSkuEakukgjecbk+kfk+sjk+oik+okkesikOgVk+kfkusZl/IZku4Fh/Mkk+0il+0ckecljuYZg/Ufluskkuonk+sal+kKivMskegBk+Mgkuojkusjk+skk+8kk+oolOYRjucik+4fkuscjeIblfIdk+wkj+gWku0blekUj+gJleogi+omkewgkukIf+UhlOsQit0AlNIQj+Qkkuoikuskk+4gkewik+sXleokkeselukKitwZkOcclOofl+kikuokkuYllusdlOwhku4Aj9snkewWkeggkuohk+okl+ogk+sljucgluomlukjjeojku0gkOoSkOUPkeUllekfj+gkke4NjOclj+0eluosj+kakfAfleokk+kkkOkmkOokluokjegekuomkuofkOglkOsfk+wil+ofkuoeluoikuwek+kdlukfk+oblvAgk+ojkucgk+ggk+4elOkmi+obk+4alusak+odkuwlk+oglukbkeYnk+wfluskk+oKkOMZj+0lk+oakOkfleoal+kblucgk+okl+skluohluwAW+8kke4ekesbk+4jl+kek+ojl+kkkuglku4nkuogku0fjOoQjOQak+gfkesjlu4hlu4hluwjluwfk+4fk+kgk+sjkusgkusjlO4kkusek+sklukjluskluokkuomlushk+sfluokkukgkukjku0jk+sllukflushlO4jlu0flu4jk+ojle4el+kik+olk+ofk+omlOty4qXMAAAA3XRSTlMANdiDQnZBkqUZfYYxdz0HDFYJk2kVIQNoQwVVWOoOK6YBlCz8LoUMR8MdIzRRG2tzgmY4i0C/EB14gu9kO5+jTaSaj5o2U3V78fTfrmA2gh0kGc7XSncW3Ifazx4xG3ar65HkQEJkohoaWnxeYTInSZ5xDLAmETr23F1X7nC8uRgprvezjIyWpxKmTIX44X96tuaJVKhFP4d/qS+J0TNa7P7Bo+Ntx7p3Yt60ysvovv3iTdegZum3UZCPX23J5ULUx70tT8ZD9L5XjNy92gmPupKrzah+1cL5dj14iJG90wwAABBXSURBVHja7J0JkFTFHYfbRCReWViygIAcioCgAlERCAQVVFDxBlSEEAhgNKCACWppAiqeUaOClnfFo1KGlBU1Jim1jIkGo7HMWbkq3TtvZ9jNLocLBARNNtlF2JkF3Jnumdfdr+f7qiyrrPo77/3+377Xr9/RQgAAAAAAAAAAAAAAAAAAAAAAAAAAAAAAAAAAAAAAAAAAAAAAAAAAAAAAAAAAAAAAAAAAAAAAAAAAAAAAAAAAAAAAAAAAAAAAAOxF93sP0uDcK0gsKM6pV1ILVdeJ1AKiUekKIBtILRwWSM3+txhwFbkFwyhpwInkFgwdTAQ4gNwQABAAEAAQABAAEAAQABAAEAAQABAAEAAQABAAEAAQABAAEAAQABAAEAAQABAAEAAQABAAEAAQABAAEAAQABAAEAAQABAAEAAQABAAYuIrfCewvFlpIsAycguHGt3u18q3SS0glm2WSgcpbya0sOhz2P4arLmMxAAAAAAAAAAAAMxYcEKXjgXTZfwZe5Q/OFqjvGOXK99sW36j1q+fMI9+lZjKzVJWa6Dkhgdz65ukVFrl8jM51Us3K53q6mq55SR6VlJ26K7dqNSGnPLbtO/mKvXzbHm9/t3gJnpWSkZKgw6+lq3PGNzQH9FaPVkp/fLldK2EPGHQQDUgW29SflFrNSuHOmc/kw5+Nltv8BessoMAnglEAARAAARAAARAAARAAARAAARAAARAAN8EOPY5BChrATJy7TkIUL4C9G/52TkIUK4C3PvJLbD0eAQoSwEqol3bLTdejQBlKEBdzm8fjgBlJ8ArbZ6YqTkZAcpLgKpoj5//EwKUlQA7An8mDQHa59l97GDmZAQoGwEy+9zBUxCgTAQ45VO24SIEKAsBKqN9b8I2eSYClIMAkz59K9YiQPgCHNPeZnyAAMEL0P5XDOsQIHABxra/G3IjAoQtwLp8O9eEACEL8ET+12bXIkDAAkwqYFtuQIBgBehdyK6oCxEgVAHuLGhf1CoECFSAdIG7djUCBCnA0EL3ph4BghRgU4F7ptRmBAhQgCGF7458HAHCE2B+4dtTK3siQHACaH38qh4BQhNgqdYOJflpcQTYJ/dpblOv8hJgQPACpDW3qTGxAiw0acHo4gTIPlDn68qhT+h+PVU+klQBBho0UL5qOFjaxerW6tP1i2vlBfGnskjb66hTUg14Xrv/KvdRmC/o6xNVZcu3ave/1sbKkTX6Yn5fJNgAvbU7Gwbmlo+P9Nb+VI25HxuvyGj9urSzcugSk8Pii4k1oOpEncU7f3H+XpdMOuWH7fmljfPX6FQ/dIGNRN4xOK+lIgGh8G2DoW1Kdia4UNigTK5OthJcICyRRgLIKUQXBlOkGXVEFwYPmPVfyRlkFwRnGR4BctbCgSQTmQrAlWAQdJPG3Eh6AbCfuQCO3ha8Y3zfz2kw/+G25Q/P16nu+7uqtuULFmmVT7irTXXlrbfrlD89uu2PDyyufJ8sMBdAznTR/8na56yay7PVlzXqznhFbZZv3SR1r5r751Sf3rztH2rdiaq/qrjy8/PmeXARAkxw0P8KgzHLpmx5g/6sR1SRLb/TIKUcgTbqX2vlPoWd1i/PP1BbpYz7r1x8NcLooYrBu6u7mlTnrB+d1k9L/bK1urvJr79ZTHlK9skX6P2qiEPA+/YFMDpiPbq72sXKoZe2Vhe5cqhR+UN5rwKLEWByQgQ4pJghrzcPhR5qUv75fIHKYpiOAIkXoJgDgIu5IAQorQD9ijoCyOMRIOEC9C5OgKkIkHABqooTYDoCJFyAkcUJECFAwgUYUpwAsgcCJFuAy4oUYG72f9X1mKuvv3FAl9k775b0PaLLY8NenXLaYATwW4BpqeIEmChEn84DZt3TOkNfXV2dkp+8/rDrv9RPf+CKPggQ5lXArptO7eWianf+q+a+MSMRwD8BukmLREf3QoCgpoINSE89CQHKWYDm88XaVxHAHwEi6YD6VxDAFwFecND/5hijXyGAHwKMk46I/ogAPggwXDoj/V0EcC9AL+mQrZUI4FqAIS4FkOmXEcCxAEIqpwo8gwCOBah3KoBS63sggFMBfuD2CKDUhp4I4FKA59wK0HwGuhgBXAowUrpmCgK4FMDNZHDulQBjALcCHO1YgJsQwK0AnR0PAU5DALcC9FMuh4FqA/MAjgUQdU4F+AkCuBZgscP+fySXIIBrAYSsdWfAj5kKdi/Axw6HgGMRwL0Abzm7IaQauBvogQCi0dkw8DAE8EGA2a4E2MQDIV4I4Gw6+CgE8EOAR5wMAJTBGqQIEIsATg4BupOArgQo8jNxJRNgVJwC3OLiANDBQACjp5iP3F09w2Q7hxcnwF9aq4eZbPs/WsuNvpG5tNBgo5R1AxoM+i+eNLlk7be7usJkO1dmf327Qfmq1uq7TCZKTsopV/rlvQsNdpH1W0LpShMBRJ3+L72UrX5cpnQjbMr5ce3FX1NtdnOjvgBzcn59nf6uazxzW297PniY4cthTc2x6hDNz62+M9KqlnJH2/smGb0fT0XLi9h22dT2Dbr+uuXvaeTa3Wr3U3KS8fuhA487UIPz9iw/T6f6uL0OU1/X+fXjpu1RXVnctlcUV94+/7J6D4AFZ7zjJatXgJUE7hfj0zbPANFYEveJqj9HNm8IKjmKzD1iaJPtGaCnCN0bJq+zfPXX3P+/ErsfHHVryyJYlieAPpK/JnkPOG3x9Eg6eCBcseSsa3oc8/LqGumMp+mAs84feeyhX77f7auA0Zh8W9m118Q/dISSMvu2ay5O7z4CO3wLRMn0o3m6f/bO7UxVQylJST9Qm7/Vbvsr/yMhZPI8ATYmIqKQifJ8FvBHRBQw21Qmz+IhbyhSChelfptn8D9RVhNTuGzcP9/FH+f/kM/+K/LOUfyblEI9+Ocd/LfQSzICCJX15xQwSbmWnAKl/8JCJqnvIKggj/3RiJmF3aV4jbhCPPYfXPBtqlmkFdzA/77jNe5T/pDAgiEllYpGDNK7Uf0lcgvob/8I/a8+/I3Ywuj9dcOPN3pU5UyyS9T4vra25UXSln92P1QY3TOuwwHmL/twCkiWABt+87PvNLN6XN9TT+jwjUGHVBX7sNoNhJoo/lnqpxW/ykRwomZ4epdagOcRIFEzPCV/Xvl1BEjQAUC9VXIBXiDWBAnQWPo3Fs4i1gTxbukFuJRUEzQE7Fd6Aa4j1+RwbQwvrT1OrMlhbgwCvMdVQGL4II7XVmchQGJ4OA4BTiXXpBDP5/0eINikcE0sAkzlFJCUa8ADYxFgHgIkRID1sfRfrCTahDAoHgHWkGwyyMT09aJHiTYZLI5JgJFEm4gRQDqu75e9T7iJYEJsX7D7kHCTQEVsApBtEpgUW/+trlYCppNAC+MTYBP5+i9AXYxfsb2YfP0/AAyKUYBbCNh74jwAiBXcDPD+APBOnAKMQQDfaYiz/2IsAftO91gFmJYiYb+piXkxCxL2nIkxC/ABEXs9BMzE3H9xNCF7zSVxCzCcjH0+AKTj7r/oSco+CzAhdgH6kLLHxH8A4DLAa1ZYEIAFI/wlY6H/4nVy9paDbAgwjpx9pcZG/8X3uB3kK0OtCDCIoD1li5X+i94k7SlP2hGAy4AyngPgsUCPedGWAI+RtY+stdV/cSyXAf6h5FJrAixj7UgPuVbY478I4B1RN4sC1CCAdzxisf9iEQKU7wiwhesRwLcR4DCrAgwmcs8EqBN2YS7QM75mWYALidwrJlnuv3iWQYBPbLTdf/FNQveHlDzXugAMAryaA7Lff3ERsfvDXAcC8NFwfzjcQf/FQoUBnpARTliHAJ4wz40AdyOAH9S46b+4kuj9uAKodCRAV7L3gkuEKzKcAzygyVn/xdkI4MEJoJM7AQZxIeieg4VDuBAs1ymAXbxNA8r4BNDM3+mAU2rlaKf9F8vogUvUto+FY2rogksB/ue6/2I+XXDYf9XZuQDLaYNDAZ4R7uEc4I4tHvRfTKAPzq4AL/BBgCFMBrpiovCC9Qjghhv86L84AgHKdwDQwky+FFG+A4CdNCCA/QtAeYY3/Rfv0g/7zPGn/2Ia7bD+979d+MRWWmKZRq/6L75IRywPAK/ySwCRpidWGe1Z/8Xt9MTmAOA63/ovZtIWa6TkOuEfDAMtDgA87L/oxWygLTJLfBSAO0LW/v77eNl/MRoBrAwA1VDhKXwvyEr/n/K1/+Im2mNBgDeEv3AIiP/v/6ce91/8ng7Fzd0+919cToNingDcLvzmbpoUK3We91/M+H979xISVRQHYPxP5MIKcnpZTUo5CZVG9sACrSSowKzondAie9DDNpFGRQVZEUIvImgT9IBqU9QioogWLVq1bhX35pnRIjVtcrJoEalTiajlzNzROed8v50rZb5z7zn33LlXGiVTq6S8R1RKnuDo1B8APCWWxP4ZooEsQlndXzLYC7C6v8gZWlndX0TVkcv7/mO06S9jyeX5/o9O/XlbgPcD4NtonfrLPL4a5K2waKaREeDl+b9Bt/5yineHeqY9ZV4BEIuTDACPvHMvio5YB3p0/nc3aNlfjtHOG1WiqelMAh4I+UVb9eRLfPtnvb79eVw88QEQEa0d592BibkgmvvIAEjEA937y1UiJrD8myf6e/Cec0Cc039brZigkWVAfErFDJmfGADxeCimOMYpIHb1JWKO2/SMdfenQYxyk68GxOaFGOYDTWPZ/N1tWn85xE0B+1b/PazjSZEBHv7qvBiJ20IDE8kQQ01lITiAw3+ZmGsD2wH/01wrwgiwltGHf5fX7e/J3K/WvWK8LDL3e/gvEBscddpp3ZfpmWKHjbTupc5p9Yk1XhK817XfVLHJQ5r3yO82jxG7FCguB//kd93GG2KdAF8R+uPjZbFR7RfSdwo9E1udtv7GQMfa74xY7J71k3/pYbHagZDNR79zK1esF7Z3BNxaQ/4OZ5WdK4GiAO2j1tn40FDWLMJ3e+HaNferwnSi95Br00og9JjgvZWHLJkH6lcSu2/DbMjf4CN0vyYEHbPPAupeHpX/aXbE2AHgOsFyAv/fprCR8R31ahJxB8b/1TFsY8h1P7Dwi0V+qWvWzM+WX6y2lClDjn0nuJqccZlbr3181wnPIWT8AjVK52WfE1m7kIgJKgjruiCMvM0knxeyz7e5rmbbQ+r+fup7aG9Os0ZDILhkPsk8t3Bzgxb1f67lNm/S+O6q6IVV6un697gt5xYTKcn2nShqSrEVQfSvUXt2UWeQLL5+JaWuDpuOLGDSH2zVE2cqp25ITwRdv/x7zfNqagzVdODbsXMo/je9G9Wyff82Igz9KPA/O6oGbWUYHW6fCytnjOejTyHTRhXnrFLJP+erJ0svb1rE552q8krSlqxS37rvw3m1xHfU1j0jpgSm8RHrsWeU709bdre1yYlzJLh/rzPV8aqcNF9+Np+pnjK3LX96Z+TBssKKntPDj77v2//exq+YWZZTWVyyfAK7+WaZnJ1eHbg23O8b1+nSiKg3Ezt+WOHfNSk3dxZHOgAAAAAAAAAAAAAAAAAAAAAAAAAAAAAAAAAAAAAAAAAAAAAAAAAAAAAAAAAAAAAAAAAAAAAAGBS/AJwej1ELdZhYAAAAAElFTkSuQmCC;" parent="1" vertex="1">
                    <mxGeometry x="1281" y="60" width="25" height="25" as="geometry"/>
                </mxCell>
                <mxCell id="241" value="" style="shape=image;verticalLabelPosition=bottom;labelBackgroundColor=default;verticalAlign=top;aspect=fixed;imageAspect=0;image=data:image/png,iVBORw0KGgoAAAANSUhEUgAAAgAAAAIACAMAAADDpiTIAAAACXBIWXMAAAsTAAALEwEAmpwYAAADAFBMVEVHcEwbluEnk+slluomk+YfjuYbkeYkku8gku4VlvIgk+sck+oejeUfjeYQkeQRessRi8silOkUedIkku8blekSjeoMkuwRaKUclukmkucvg8QZkuwglOkglukAgegejuEgku6NJyEnkOslj+Ugk+oikOYlluooiNgjlOogkuoghuQDjN4Ylekake4WlvElj+kfkukfjugckusRj+Elj+wgjugeluonj/cKkeAfjeYlj+kfk+shj+UgkukikOsgku4jk+odlOoek+sjlOsmkOwSkuEakukgjecbk+kfk+sjk+oik+okkesikOgVk+kfkusZl/IZku4Fh/Mkk+0il+0ckecljuYZg/Ufluskkuonk+sal+kKivMskegBk+Mgkuojkusjk+skk+8kk+oolOYRjucik+4fkuscjeIblfIdk+wkj+gWku0blekUj+gJleogi+omkewgkukIf+UhlOsQit0AlNIQj+Qkkuoikuskk+4gkewik+sXleokkeselukKitwZkOcclOofl+kikuokkuYllusdlOwhku4Aj9snkewWkeggkuohk+okl+ogk+sljucgluomlukjjeojku0gkOoSkOUPkeUllekfj+gkke4NjOclj+0eluosj+kakfAfleokk+kkkOkmkOokluokjegekuomkuofkOglkOsfk+wil+ofkuoeluoikuwek+kdlukfk+oblvAgk+ojkucgk+ggk+4elOkmi+obk+4alusak+odkuwlk+oglukbkeYnk+wfluskk+oKkOMZj+0lk+oakOkfleoal+kblucgk+okl+skluohluwAW+8kke4ekesbk+4jl+kek+ojl+kkkuglku4nkuogku0fjOoQjOQak+gfkesjlu4hlu4hluwjluwfk+4fk+kgk+sjkusgkusjlO4kkusek+sklukjluskluokkuomlushk+sfluokkukgkukjku0jk+sllukflushlO4jlu0flu4jk+ojle4el+kik+olk+ofk+omlOty4qXMAAAA3XRSTlMANdiDQnZBkqUZfYYxdz0HDFYJk2kVIQNoQwVVWOoOK6YBlCz8LoUMR8MdIzRRG2tzgmY4i0C/EB14gu9kO5+jTaSaj5o2U3V78fTfrmA2gh0kGc7XSncW3Ifazx4xG3ar65HkQEJkohoaWnxeYTInSZ5xDLAmETr23F1X7nC8uRgprvezjIyWpxKmTIX44X96tuaJVKhFP4d/qS+J0TNa7P7Bo+Ntx7p3Yt60ysvovv3iTdegZum3UZCPX23J5ULUx70tT8ZD9L5XjNy92gmPupKrzah+1cL5dj14iJG90wwAABBXSURBVHja7J0JkFTFHYfbRCReWViygIAcioCgAlERCAQVVFDxBlSEEAhgNKCACWppAiqeUaOClnfFo1KGlBU1Jim1jIkGo7HMWbkq3TtvZ9jNLocLBARNNtlF2JkF3Jnumdfdr+f7qiyrrPo77/3+377Xr9/RQgAAAAAAAAAAAAAAAAAAAAAAAAAAAAAAAAAAAAAAAAAAAAAAAAAAAAAAAAAAAAAAAAAAAAAAAAAAAAAAAAAAAAAAAAAAAAAAAOxF93sP0uDcK0gsKM6pV1ILVdeJ1AKiUekKIBtILRwWSM3+txhwFbkFwyhpwInkFgwdTAQ4gNwQABAAEAAQABAAEAAQABAAEAAQABAAEAAQABAAEAAQABAAEAAQABAAEAAQABAAEAAQABAAEAAQABAAEAAQABAAEAAQABAAEAAQABAAYuIrfCewvFlpIsAycguHGt3u18q3SS0glm2WSgcpbya0sOhz2P4arLmMxAAAAAAAAAAAAMxYcEKXjgXTZfwZe5Q/OFqjvGOXK99sW36j1q+fMI9+lZjKzVJWa6Dkhgdz65ukVFrl8jM51Us3K53q6mq55SR6VlJ26K7dqNSGnPLbtO/mKvXzbHm9/t3gJnpWSkZKgw6+lq3PGNzQH9FaPVkp/fLldK2EPGHQQDUgW29SflFrNSuHOmc/kw5+Nltv8BessoMAnglEAARAAARAAARAAARAAARAAARAAARAAN8EOPY5BChrATJy7TkIUL4C9G/52TkIUK4C3PvJLbD0eAQoSwEqol3bLTdejQBlKEBdzm8fjgBlJ8ArbZ6YqTkZAcpLgKpoj5//EwKUlQA7An8mDQHa59l97GDmZAQoGwEy+9zBUxCgTAQ45VO24SIEKAsBKqN9b8I2eSYClIMAkz59K9YiQPgCHNPeZnyAAMEL0P5XDOsQIHABxra/G3IjAoQtwLp8O9eEACEL8ET+12bXIkDAAkwqYFtuQIBgBehdyK6oCxEgVAHuLGhf1CoECFSAdIG7djUCBCnA0EL3ph4BghRgU4F7ptRmBAhQgCGF7458HAHCE2B+4dtTK3siQHACaH38qh4BQhNgqdYOJflpcQTYJ/dpblOv8hJgQPACpDW3qTGxAiw0acHo4gTIPlDn68qhT+h+PVU+klQBBho0UL5qOFjaxerW6tP1i2vlBfGnskjb66hTUg14Xrv/KvdRmC/o6xNVZcu3ave/1sbKkTX6Yn5fJNgAvbU7Gwbmlo+P9Nb+VI25HxuvyGj9urSzcugSk8Pii4k1oOpEncU7f3H+XpdMOuWH7fmljfPX6FQ/dIGNRN4xOK+lIgGh8G2DoW1Kdia4UNigTK5OthJcICyRRgLIKUQXBlOkGXVEFwYPmPVfyRlkFwRnGR4BctbCgSQTmQrAlWAQdJPG3Eh6AbCfuQCO3ha8Y3zfz2kw/+G25Q/P16nu+7uqtuULFmmVT7irTXXlrbfrlD89uu2PDyyufJ8sMBdAznTR/8na56yay7PVlzXqznhFbZZv3SR1r5r751Sf3rztH2rdiaq/qrjy8/PmeXARAkxw0P8KgzHLpmx5g/6sR1SRLb/TIKUcgTbqX2vlPoWd1i/PP1BbpYz7r1x8NcLooYrBu6u7mlTnrB+d1k9L/bK1urvJr79ZTHlK9skX6P2qiEPA+/YFMDpiPbq72sXKoZe2Vhe5cqhR+UN5rwKLEWByQgQ4pJghrzcPhR5qUv75fIHKYpiOAIkXoJgDgIu5IAQorQD9ijoCyOMRIOEC9C5OgKkIkHABqooTYDoCJFyAkcUJECFAwgUYUpwAsgcCJFuAy4oUYG72f9X1mKuvv3FAl9k775b0PaLLY8NenXLaYATwW4BpqeIEmChEn84DZt3TOkNfXV2dkp+8/rDrv9RPf+CKPggQ5lXArptO7eWianf+q+a+MSMRwD8BukmLREf3QoCgpoINSE89CQHKWYDm88XaVxHAHwEi6YD6VxDAFwFecND/5hijXyGAHwKMk46I/ogAPggwXDoj/V0EcC9AL+mQrZUI4FqAIS4FkOmXEcCxAEIqpwo8gwCOBah3KoBS63sggFMBfuD2CKDUhp4I4FKA59wK0HwGuhgBXAowUrpmCgK4FMDNZHDulQBjALcCHO1YgJsQwK0AnR0PAU5DALcC9FMuh4FqA/MAjgUQdU4F+AkCuBZgscP+fySXIIBrAYSsdWfAj5kKdi/Axw6HgGMRwL0Abzm7IaQauBvogQCi0dkw8DAE8EGA2a4E2MQDIV4I4Gw6+CgE8EOAR5wMAJTBGqQIEIsATg4BupOArgQo8jNxJRNgVJwC3OLiANDBQACjp5iP3F09w2Q7hxcnwF9aq4eZbPs/WsuNvpG5tNBgo5R1AxoM+i+eNLlk7be7usJkO1dmf327Qfmq1uq7TCZKTsopV/rlvQsNdpH1W0LpShMBRJ3+L72UrX5cpnQjbMr5ce3FX1NtdnOjvgBzcn59nf6uazxzW297PniY4cthTc2x6hDNz62+M9KqlnJH2/smGb0fT0XLi9h22dT2Dbr+uuXvaeTa3Wr3U3KS8fuhA487UIPz9iw/T6f6uL0OU1/X+fXjpu1RXVnctlcUV94+/7J6D4AFZ7zjJatXgJUE7hfj0zbPANFYEveJqj9HNm8IKjmKzD1iaJPtGaCnCN0bJq+zfPXX3P+/ErsfHHVryyJYlieAPpK/JnkPOG3x9Eg6eCBcseSsa3oc8/LqGumMp+mAs84feeyhX77f7auA0Zh8W9m118Q/dISSMvu2ay5O7z4CO3wLRMn0o3m6f/bO7UxVQylJST9Qm7/Vbvsr/yMhZPI8ATYmIqKQifJ8FvBHRBQw21Qmz+IhbyhSChelfptn8D9RVhNTuGzcP9/FH+f/kM/+K/LOUfyblEI9+Ocd/LfQSzICCJX15xQwSbmWnAKl/8JCJqnvIKggj/3RiJmF3aV4jbhCPPYfXPBtqlmkFdzA/77jNe5T/pDAgiEllYpGDNK7Uf0lcgvob/8I/a8+/I3Ywuj9dcOPN3pU5UyyS9T4vra25UXSln92P1QY3TOuwwHmL/twCkiWABt+87PvNLN6XN9TT+jwjUGHVBX7sNoNhJoo/lnqpxW/ykRwomZ4epdagOcRIFEzPCV/Xvl1BEjQAUC9VXIBXiDWBAnQWPo3Fs4i1gTxbukFuJRUEzQE7Fd6Aa4j1+RwbQwvrT1OrMlhbgwCvMdVQGL4II7XVmchQGJ4OA4BTiXXpBDP5/0eINikcE0sAkzlFJCUa8ADYxFgHgIkRID1sfRfrCTahDAoHgHWkGwyyMT09aJHiTYZLI5JgJFEm4gRQDqu75e9T7iJYEJsX7D7kHCTQEVsApBtEpgUW/+trlYCppNAC+MTYBP5+i9AXYxfsb2YfP0/AAyKUYBbCNh74jwAiBXcDPD+APBOnAKMQQDfaYiz/2IsAftO91gFmJYiYb+piXkxCxL2nIkxC/ABEXs9BMzE3H9xNCF7zSVxCzCcjH0+AKTj7r/oSco+CzAhdgH6kLLHxH8A4DLAa1ZYEIAFI/wlY6H/4nVy9paDbAgwjpx9pcZG/8X3uB3kK0OtCDCIoD1li5X+i94k7SlP2hGAy4AyngPgsUCPedGWAI+RtY+stdV/cSyXAf6h5FJrAixj7UgPuVbY478I4B1RN4sC1CCAdzxisf9iEQKU7wiwhesRwLcR4DCrAgwmcs8EqBN2YS7QM75mWYALidwrJlnuv3iWQYBPbLTdf/FNQveHlDzXugAMAryaA7Lff3ERsfvDXAcC8NFwfzjcQf/FQoUBnpARTliHAJ4wz40AdyOAH9S46b+4kuj9uAKodCRAV7L3gkuEKzKcAzygyVn/xdkI4MEJoJM7AQZxIeieg4VDuBAs1ymAXbxNA8r4BNDM3+mAU2rlaKf9F8vogUvUto+FY2rogksB/ue6/2I+XXDYf9XZuQDLaYNDAZ4R7uEc4I4tHvRfTKAPzq4AL/BBgCFMBrpiovCC9Qjghhv86L84AgHKdwDQwky+FFG+A4CdNCCA/QtAeYY3/Rfv0g/7zPGn/2Ia7bD+979d+MRWWmKZRq/6L75IRywPAK/ySwCRpidWGe1Z/8Xt9MTmAOA63/ovZtIWa6TkOuEfDAMtDgA87L/oxWygLTJLfBSAO0LW/v77eNl/MRoBrAwA1VDhKXwvyEr/n/K1/+Im2mNBgDeEv3AIiP/v/6ce91/8ng7Fzd0+919cToNingDcLvzmbpoUK3We91/M+H979xISVRQHYPxP5MIKcnpZTUo5CZVG9sACrSSowKzondAie9DDNpFGRQVZEUIvImgT9IBqU9QioogWLVq1bhX35pnRIjVtcrJoEalTiajlzNzROed8v50rZb5z7zn33LlXGiVTq6S8R1RKnuDo1B8APCWWxP4ZooEsQlndXzLYC7C6v8gZWlndX0TVkcv7/mO06S9jyeX5/o9O/XlbgPcD4NtonfrLPL4a5K2waKaREeDl+b9Bt/5yineHeqY9ZV4BEIuTDACPvHMvio5YB3p0/nc3aNlfjtHOG1WiqelMAh4I+UVb9eRLfPtnvb79eVw88QEQEa0d592BibkgmvvIAEjEA937y1UiJrD8myf6e/Cec0Cc039brZigkWVAfErFDJmfGADxeCimOMYpIHb1JWKO2/SMdfenQYxyk68GxOaFGOYDTWPZ/N1tWn85xE0B+1b/PazjSZEBHv7qvBiJ20IDE8kQQ01lITiAw3+ZmGsD2wH/01wrwgiwltGHf5fX7e/J3K/WvWK8LDL3e/gvEBscddpp3ZfpmWKHjbTupc5p9Yk1XhK817XfVLHJQ5r3yO82jxG7FCguB//kd93GG2KdAF8R+uPjZbFR7RfSdwo9E1udtv7GQMfa74xY7J71k3/pYbHagZDNR79zK1esF7Z3BNxaQ/4OZ5WdK4GiAO2j1tn40FDWLMJ3e+HaNferwnSi95Br00og9JjgvZWHLJkH6lcSu2/DbMjf4CN0vyYEHbPPAupeHpX/aXbE2AHgOsFyAv/fprCR8R31ahJxB8b/1TFsY8h1P7Dwi0V+qWvWzM+WX6y2lClDjn0nuJqccZlbr3181wnPIWT8AjVK52WfE1m7kIgJKgjruiCMvM0knxeyz7e5rmbbQ+r+fup7aG9Os0ZDILhkPsk8t3Bzgxb1f67lNm/S+O6q6IVV6un697gt5xYTKcn2nShqSrEVQfSvUXt2UWeQLL5+JaWuDpuOLGDSH2zVE2cqp25ITwRdv/x7zfNqagzVdODbsXMo/je9G9Wyff82Igz9KPA/O6oGbWUYHW6fCytnjOejTyHTRhXnrFLJP+erJ0svb1rE552q8krSlqxS37rvw3m1xHfU1j0jpgSm8RHrsWeU709bdre1yYlzJLh/rzPV8aqcNF9+Np+pnjK3LX96Z+TBssKKntPDj77v2//exq+YWZZTWVyyfAK7+WaZnJ1eHbg23O8b1+nSiKg3Ezt+WOHfNSk3dxZHOgAAAAAAAAAAAAAAAAAAAAAAAAAAAAAAAAAAAAAAAAAAAAAAAAAAAAAAAAAAAAAAAAAAAAAAGBS/AJwej1ELdZhYAAAAAElFTkSuQmCC;" parent="1" vertex="1">
                    <mxGeometry x="1281" y="-31" width="25" height="25" as="geometry"/>
                </mxCell>
                <mxCell id="242" value="" style="shape=image;verticalLabelPosition=bottom;labelBackgroundColor=default;verticalAlign=top;aspect=fixed;imageAspect=0;image=data:image/png,iVBORw0KGgoAAAANSUhEUgAAAgAAAAIACAMAAADDpiTIAAAACXBIWXMAAAsTAAALEwEAmpwYAAADAFBMVEVHcEwbluEnk+slluomk+YfjuYbkeYkku8gku4VlvIgk+sck+oejeUfjeYQkeQRessRi8silOkUedIkku8blekSjeoMkuwRaKUclukmkucvg8QZkuwglOkglukAgegejuEgku6NJyEnkOslj+Ugk+oikOYlluooiNgjlOogkuoghuQDjN4Ylekake4WlvElj+kfkukfjugckusRj+Elj+wgjugeluonj/cKkeAfjeYlj+kfk+shj+UgkukikOsgku4jk+odlOoek+sjlOsmkOwSkuEakukgjecbk+kfk+sjk+oik+okkesikOgVk+kfkusZl/IZku4Fh/Mkk+0il+0ckecljuYZg/Ufluskkuonk+sal+kKivMskegBk+Mgkuojkusjk+skk+8kk+oolOYRjucik+4fkuscjeIblfIdk+wkj+gWku0blekUj+gJleogi+omkewgkukIf+UhlOsQit0AlNIQj+Qkkuoikuskk+4gkewik+sXleokkeselukKitwZkOcclOofl+kikuokkuYllusdlOwhku4Aj9snkewWkeggkuohk+okl+ogk+sljucgluomlukjjeojku0gkOoSkOUPkeUllekfj+gkke4NjOclj+0eluosj+kakfAfleokk+kkkOkmkOokluokjegekuomkuofkOglkOsfk+wil+ofkuoeluoikuwek+kdlukfk+oblvAgk+ojkucgk+ggk+4elOkmi+obk+4alusak+odkuwlk+oglukbkeYnk+wfluskk+oKkOMZj+0lk+oakOkfleoal+kblucgk+okl+skluohluwAW+8kke4ekesbk+4jl+kek+ojl+kkkuglku4nkuogku0fjOoQjOQak+gfkesjlu4hlu4hluwjluwfk+4fk+kgk+sjkusgkusjlO4kkusek+sklukjluskluokkuomlushk+sfluokkukgkukjku0jk+sllukflushlO4jlu0flu4jk+ojle4el+kik+olk+ofk+omlOty4qXMAAAA3XRSTlMANdiDQnZBkqUZfYYxdz0HDFYJk2kVIQNoQwVVWOoOK6YBlCz8LoUMR8MdIzRRG2tzgmY4i0C/EB14gu9kO5+jTaSaj5o2U3V78fTfrmA2gh0kGc7XSncW3Ifazx4xG3ar65HkQEJkohoaWnxeYTInSZ5xDLAmETr23F1X7nC8uRgprvezjIyWpxKmTIX44X96tuaJVKhFP4d/qS+J0TNa7P7Bo+Ntx7p3Yt60ysvovv3iTdegZum3UZCPX23J5ULUx70tT8ZD9L5XjNy92gmPupKrzah+1cL5dj14iJG90wwAABBXSURBVHja7J0JkFTFHYfbRCReWViygIAcioCgAlERCAQVVFDxBlSEEAhgNKCACWppAiqeUaOClnfFo1KGlBU1Jim1jIkGo7HMWbkq3TtvZ9jNLocLBARNNtlF2JkF3Jnumdfdr+f7qiyrrPo77/3+377Xr9/RQgAAAAAAAAAAAAAAAAAAAAAAAAAAAAAAAAAAAAAAAAAAAAAAAAAAAAAAAAAAAAAAAAAAAAAAAAAAAAAAAAAAAAAAAAAAAAAAAOxF93sP0uDcK0gsKM6pV1ILVdeJ1AKiUekKIBtILRwWSM3+txhwFbkFwyhpwInkFgwdTAQ4gNwQABAAEAAQABAAEAAQABAAEAAQABAAEAAQABAAEAAQABAAEAAQABAAEAAQABAAEAAQABAAEAAQABAAEAAQABAAEAAQABAAEAAQABAAYuIrfCewvFlpIsAycguHGt3u18q3SS0glm2WSgcpbya0sOhz2P4arLmMxAAAAAAAAAAAAMxYcEKXjgXTZfwZe5Q/OFqjvGOXK99sW36j1q+fMI9+lZjKzVJWa6Dkhgdz65ukVFrl8jM51Us3K53q6mq55SR6VlJ26K7dqNSGnPLbtO/mKvXzbHm9/t3gJnpWSkZKgw6+lq3PGNzQH9FaPVkp/fLldK2EPGHQQDUgW29SflFrNSuHOmc/kw5+Nltv8BessoMAnglEAARAAARAAARAAARAAARAAARAAARAAN8EOPY5BChrATJy7TkIUL4C9G/52TkIUK4C3PvJLbD0eAQoSwEqol3bLTdejQBlKEBdzm8fjgBlJ8ArbZ6YqTkZAcpLgKpoj5//EwKUlQA7An8mDQHa59l97GDmZAQoGwEy+9zBUxCgTAQ45VO24SIEKAsBKqN9b8I2eSYClIMAkz59K9YiQPgCHNPeZnyAAMEL0P5XDOsQIHABxra/G3IjAoQtwLp8O9eEACEL8ET+12bXIkDAAkwqYFtuQIBgBehdyK6oCxEgVAHuLGhf1CoECFSAdIG7djUCBCnA0EL3ph4BghRgU4F7ptRmBAhQgCGF7458HAHCE2B+4dtTK3siQHACaH38qh4BQhNgqdYOJflpcQTYJ/dpblOv8hJgQPACpDW3qTGxAiw0acHo4gTIPlDn68qhT+h+PVU+klQBBho0UL5qOFjaxerW6tP1i2vlBfGnskjb66hTUg14Xrv/KvdRmC/o6xNVZcu3ave/1sbKkTX6Yn5fJNgAvbU7Gwbmlo+P9Nb+VI25HxuvyGj9urSzcugSk8Pii4k1oOpEncU7f3H+XpdMOuWH7fmljfPX6FQ/dIGNRN4xOK+lIgGh8G2DoW1Kdia4UNigTK5OthJcICyRRgLIKUQXBlOkGXVEFwYPmPVfyRlkFwRnGR4BctbCgSQTmQrAlWAQdJPG3Eh6AbCfuQCO3ha8Y3zfz2kw/+G25Q/P16nu+7uqtuULFmmVT7irTXXlrbfrlD89uu2PDyyufJ8sMBdAznTR/8na56yay7PVlzXqznhFbZZv3SR1r5r751Sf3rztH2rdiaq/qrjy8/PmeXARAkxw0P8KgzHLpmx5g/6sR1SRLb/TIKUcgTbqX2vlPoWd1i/PP1BbpYz7r1x8NcLooYrBu6u7mlTnrB+d1k9L/bK1urvJr79ZTHlK9skX6P2qiEPA+/YFMDpiPbq72sXKoZe2Vhe5cqhR+UN5rwKLEWByQgQ4pJghrzcPhR5qUv75fIHKYpiOAIkXoJgDgIu5IAQorQD9ijoCyOMRIOEC9C5OgKkIkHABqooTYDoCJFyAkcUJECFAwgUYUpwAsgcCJFuAy4oUYG72f9X1mKuvv3FAl9k775b0PaLLY8NenXLaYATwW4BpqeIEmChEn84DZt3TOkNfXV2dkp+8/rDrv9RPf+CKPggQ5lXArptO7eWianf+q+a+MSMRwD8BukmLREf3QoCgpoINSE89CQHKWYDm88XaVxHAHwEi6YD6VxDAFwFecND/5hijXyGAHwKMk46I/ogAPggwXDoj/V0EcC9AL+mQrZUI4FqAIS4FkOmXEcCxAEIqpwo8gwCOBah3KoBS63sggFMBfuD2CKDUhp4I4FKA59wK0HwGuhgBXAowUrpmCgK4FMDNZHDulQBjALcCHO1YgJsQwK0AnR0PAU5DALcC9FMuh4FqA/MAjgUQdU4F+AkCuBZgscP+fySXIIBrAYSsdWfAj5kKdi/Axw6HgGMRwL0Abzm7IaQauBvogQCi0dkw8DAE8EGA2a4E2MQDIV4I4Gw6+CgE8EOAR5wMAJTBGqQIEIsATg4BupOArgQo8jNxJRNgVJwC3OLiANDBQACjp5iP3F09w2Q7hxcnwF9aq4eZbPs/WsuNvpG5tNBgo5R1AxoM+i+eNLlk7be7usJkO1dmf327Qfmq1uq7TCZKTsopV/rlvQsNdpH1W0LpShMBRJ3+L72UrX5cpnQjbMr5ce3FX1NtdnOjvgBzcn59nf6uazxzW297PniY4cthTc2x6hDNz62+M9KqlnJH2/smGb0fT0XLi9h22dT2Dbr+uuXvaeTa3Wr3U3KS8fuhA487UIPz9iw/T6f6uL0OU1/X+fXjpu1RXVnctlcUV94+/7J6D4AFZ7zjJatXgJUE7hfj0zbPANFYEveJqj9HNm8IKjmKzD1iaJPtGaCnCN0bJq+zfPXX3P+/ErsfHHVryyJYlieAPpK/JnkPOG3x9Eg6eCBcseSsa3oc8/LqGumMp+mAs84feeyhX77f7auA0Zh8W9m118Q/dISSMvu2ay5O7z4CO3wLRMn0o3m6f/bO7UxVQylJST9Qm7/Vbvsr/yMhZPI8ATYmIqKQifJ8FvBHRBQw21Qmz+IhbyhSChelfptn8D9RVhNTuGzcP9/FH+f/kM/+K/LOUfyblEI9+Ocd/LfQSzICCJX15xQwSbmWnAKl/8JCJqnvIKggj/3RiJmF3aV4jbhCPPYfXPBtqlmkFdzA/77jNe5T/pDAgiEllYpGDNK7Uf0lcgvob/8I/a8+/I3Ywuj9dcOPN3pU5UyyS9T4vra25UXSln92P1QY3TOuwwHmL/twCkiWABt+87PvNLN6XN9TT+jwjUGHVBX7sNoNhJoo/lnqpxW/ykRwomZ4epdagOcRIFEzPCV/Xvl1BEjQAUC9VXIBXiDWBAnQWPo3Fs4i1gTxbukFuJRUEzQE7Fd6Aa4j1+RwbQwvrT1OrMlhbgwCvMdVQGL4II7XVmchQGJ4OA4BTiXXpBDP5/0eINikcE0sAkzlFJCUa8ADYxFgHgIkRID1sfRfrCTahDAoHgHWkGwyyMT09aJHiTYZLI5JgJFEm4gRQDqu75e9T7iJYEJsX7D7kHCTQEVsApBtEpgUW/+trlYCppNAC+MTYBP5+i9AXYxfsb2YfP0/AAyKUYBbCNh74jwAiBXcDPD+APBOnAKMQQDfaYiz/2IsAftO91gFmJYiYb+piXkxCxL2nIkxC/ABEXs9BMzE3H9xNCF7zSVxCzCcjH0+AKTj7r/oSco+CzAhdgH6kLLHxH8A4DLAa1ZYEIAFI/wlY6H/4nVy9paDbAgwjpx9pcZG/8X3uB3kK0OtCDCIoD1li5X+i94k7SlP2hGAy4AyngPgsUCPedGWAI+RtY+stdV/cSyXAf6h5FJrAixj7UgPuVbY478I4B1RN4sC1CCAdzxisf9iEQKU7wiwhesRwLcR4DCrAgwmcs8EqBN2YS7QM75mWYALidwrJlnuv3iWQYBPbLTdf/FNQveHlDzXugAMAryaA7Lff3ERsfvDXAcC8NFwfzjcQf/FQoUBnpARTliHAJ4wz40AdyOAH9S46b+4kuj9uAKodCRAV7L3gkuEKzKcAzygyVn/xdkI4MEJoJM7AQZxIeieg4VDuBAs1ymAXbxNA8r4BNDM3+mAU2rlaKf9F8vogUvUto+FY2rogksB/ue6/2I+XXDYf9XZuQDLaYNDAZ4R7uEc4I4tHvRfTKAPzq4AL/BBgCFMBrpiovCC9Qjghhv86L84AgHKdwDQwky+FFG+A4CdNCCA/QtAeYY3/Rfv0g/7zPGn/2Ia7bD+979d+MRWWmKZRq/6L75IRywPAK/ySwCRpidWGe1Z/8Xt9MTmAOA63/ovZtIWa6TkOuEfDAMtDgA87L/oxWygLTJLfBSAO0LW/v77eNl/MRoBrAwA1VDhKXwvyEr/n/K1/+Im2mNBgDeEv3AIiP/v/6ce91/8ng7Fzd0+919cToNingDcLvzmbpoUK3We91/M+H979xISVRQHYPxP5MIKcnpZTUo5CZVG9sACrSSowKzondAie9DDNpFGRQVZEUIvImgT9IBqU9QioogWLVq1bhX35pnRIjVtcrJoEalTiajlzNzROed8v50rZb5z7zn33LlXGiVTq6S8R1RKnuDo1B8APCWWxP4ZooEsQlndXzLYC7C6v8gZWlndX0TVkcv7/mO06S9jyeX5/o9O/XlbgPcD4NtonfrLPL4a5K2waKaREeDl+b9Bt/5yineHeqY9ZV4BEIuTDACPvHMvio5YB3p0/nc3aNlfjtHOG1WiqelMAh4I+UVb9eRLfPtnvb79eVw88QEQEa0d592BibkgmvvIAEjEA937y1UiJrD8myf6e/Cec0Cc039brZigkWVAfErFDJmfGADxeCimOMYpIHb1JWKO2/SMdfenQYxyk68GxOaFGOYDTWPZ/N1tWn85xE0B+1b/PazjSZEBHv7qvBiJ20IDE8kQQ01lITiAw3+ZmGsD2wH/01wrwgiwltGHf5fX7e/J3K/WvWK8LDL3e/gvEBscddpp3ZfpmWKHjbTupc5p9Yk1XhK817XfVLHJQ5r3yO82jxG7FCguB//kd93GG2KdAF8R+uPjZbFR7RfSdwo9E1udtv7GQMfa74xY7J71k3/pYbHagZDNR79zK1esF7Z3BNxaQ/4OZ5WdK4GiAO2j1tn40FDWLMJ3e+HaNferwnSi95Br00og9JjgvZWHLJkH6lcSu2/DbMjf4CN0vyYEHbPPAupeHpX/aXbE2AHgOsFyAv/fprCR8R31ahJxB8b/1TFsY8h1P7Dwi0V+qWvWzM+WX6y2lClDjn0nuJqccZlbr3181wnPIWT8AjVK52WfE1m7kIgJKgjruiCMvM0knxeyz7e5rmbbQ+r+fup7aG9Os0ZDILhkPsk8t3Bzgxb1f67lNm/S+O6q6IVV6un697gt5xYTKcn2nShqSrEVQfSvUXt2UWeQLL5+JaWuDpuOLGDSH2zVE2cqp25ITwRdv/x7zfNqagzVdODbsXMo/je9G9Wyff82Igz9KPA/O6oGbWUYHW6fCytnjOejTyHTRhXnrFLJP+erJ0svb1rE552q8krSlqxS37rvw3m1xHfU1j0jpgSm8RHrsWeU709bdre1yYlzJLh/rzPV8aqcNF9+Np+pnjK3LX96Z+TBssKKntPDj77v2//exq+YWZZTWVyyfAK7+WaZnJ1eHbg23O8b1+nSiKg3Ezt+WOHfNSk3dxZHOgAAAAAAAAAAAAAAAAAAAAAAAAAAAAAAAAAAAAAAAAAAAAAAAAAAAAAAAAAAAAAAAAAAAAAAGBS/AJwej1ELdZhYAAAAAElFTkSuQmCC;" parent="1" vertex="1">
                    <mxGeometry x="560" y="854" width="25" height="25" as="geometry"/>
                </mxCell>
                <mxCell id="243" value="" style="shape=image;verticalLabelPosition=bottom;labelBackgroundColor=default;verticalAlign=top;aspect=fixed;imageAspect=0;image=data:image/png,iVBORw0KGgoAAAANSUhEUgAAAgAAAAIACAMAAADDpiTIAAAACXBIWXMAAAsTAAALEwEAmpwYAAADAFBMVEVHcEwbluEnk+slluomk+YfjuYbkeYkku8gku4VlvIgk+sck+oejeUfjeYQkeQRessRi8silOkUedIkku8blekSjeoMkuwRaKUclukmkucvg8QZkuwglOkglukAgegejuEgku6NJyEnkOslj+Ugk+oikOYlluooiNgjlOogkuoghuQDjN4Ylekake4WlvElj+kfkukfjugckusRj+Elj+wgjugeluonj/cKkeAfjeYlj+kfk+shj+UgkukikOsgku4jk+odlOoek+sjlOsmkOwSkuEakukgjecbk+kfk+sjk+oik+okkesikOgVk+kfkusZl/IZku4Fh/Mkk+0il+0ckecljuYZg/Ufluskkuonk+sal+kKivMskegBk+Mgkuojkusjk+skk+8kk+oolOYRjucik+4fkuscjeIblfIdk+wkj+gWku0blekUj+gJleogi+omkewgkukIf+UhlOsQit0AlNIQj+Qkkuoikuskk+4gkewik+sXleokkeselukKitwZkOcclOofl+kikuokkuYllusdlOwhku4Aj9snkewWkeggkuohk+okl+ogk+sljucgluomlukjjeojku0gkOoSkOUPkeUllekfj+gkke4NjOclj+0eluosj+kakfAfleokk+kkkOkmkOokluokjegekuomkuofkOglkOsfk+wil+ofkuoeluoikuwek+kdlukfk+oblvAgk+ojkucgk+ggk+4elOkmi+obk+4alusak+odkuwlk+oglukbkeYnk+wfluskk+oKkOMZj+0lk+oakOkfleoal+kblucgk+okl+skluohluwAW+8kke4ekesbk+4jl+kek+ojl+kkkuglku4nkuogku0fjOoQjOQak+gfkesjlu4hlu4hluwjluwfk+4fk+kgk+sjkusgkusjlO4kkusek+sklukjluskluokkuomlushk+sfluokkukgkukjku0jk+sllukflushlO4jlu0flu4jk+ojle4el+kik+olk+ofk+omlOty4qXMAAAA3XRSTlMANdiDQnZBkqUZfYYxdz0HDFYJk2kVIQNoQwVVWOoOK6YBlCz8LoUMR8MdIzRRG2tzgmY4i0C/EB14gu9kO5+jTaSaj5o2U3V78fTfrmA2gh0kGc7XSncW3Ifazx4xG3ar65HkQEJkohoaWnxeYTInSZ5xDLAmETr23F1X7nC8uRgprvezjIyWpxKmTIX44X96tuaJVKhFP4d/qS+J0TNa7P7Bo+Ntx7p3Yt60ysvovv3iTdegZum3UZCPX23J5ULUx70tT8ZD9L5XjNy92gmPupKrzah+1cL5dj14iJG90wwAABBXSURBVHja7J0JkFTFHYfbRCReWViygIAcioCgAlERCAQVVFDxBlSEEAhgNKCACWppAiqeUaOClnfFo1KGlBU1Jim1jIkGo7HMWbkq3TtvZ9jNLocLBARNNtlF2JkF3Jnumdfdr+f7qiyrrPo77/3+377Xr9/RQgAAAAAAAAAAAAAAAAAAAAAAAAAAAAAAAAAAAAAAAAAAAAAAAAAAAAAAAAAAAAAAAAAAAAAAAAAAAAAAAAAAAAAAAAAAAAAAAOxF93sP0uDcK0gsKM6pV1ILVdeJ1AKiUekKIBtILRwWSM3+txhwFbkFwyhpwInkFgwdTAQ4gNwQABAAEAAQABAAEAAQABAAEAAQABAAEAAQABAAEAAQABAAEAAQABAAEAAQABAAEAAQABAAEAAQABAAEAAQABAAEAAQABAAEAAQABAAYuIrfCewvFlpIsAycguHGt3u18q3SS0glm2WSgcpbya0sOhz2P4arLmMxAAAAAAAAAAAAMxYcEKXjgXTZfwZe5Q/OFqjvGOXK99sW36j1q+fMI9+lZjKzVJWa6Dkhgdz65ukVFrl8jM51Us3K53q6mq55SR6VlJ26K7dqNSGnPLbtO/mKvXzbHm9/t3gJnpWSkZKgw6+lq3PGNzQH9FaPVkp/fLldK2EPGHQQDUgW29SflFrNSuHOmc/kw5+Nltv8BessoMAnglEAARAAARAAARAAARAAARAAARAAARAAN8EOPY5BChrATJy7TkIUL4C9G/52TkIUK4C3PvJLbD0eAQoSwEqol3bLTdejQBlKEBdzm8fjgBlJ8ArbZ6YqTkZAcpLgKpoj5//EwKUlQA7An8mDQHa59l97GDmZAQoGwEy+9zBUxCgTAQ45VO24SIEKAsBKqN9b8I2eSYClIMAkz59K9YiQPgCHNPeZnyAAMEL0P5XDOsQIHABxra/G3IjAoQtwLp8O9eEACEL8ET+12bXIkDAAkwqYFtuQIBgBehdyK6oCxEgVAHuLGhf1CoECFSAdIG7djUCBCnA0EL3ph4BghRgU4F7ptRmBAhQgCGF7458HAHCE2B+4dtTK3siQHACaH38qh4BQhNgqdYOJflpcQTYJ/dpblOv8hJgQPACpDW3qTGxAiw0acHo4gTIPlDn68qhT+h+PVU+klQBBho0UL5qOFjaxerW6tP1i2vlBfGnskjb66hTUg14Xrv/KvdRmC/o6xNVZcu3ave/1sbKkTX6Yn5fJNgAvbU7Gwbmlo+P9Nb+VI25HxuvyGj9urSzcugSk8Pii4k1oOpEncU7f3H+XpdMOuWH7fmljfPX6FQ/dIGNRN4xOK+lIgGh8G2DoW1Kdia4UNigTK5OthJcICyRRgLIKUQXBlOkGXVEFwYPmPVfyRlkFwRnGR4BctbCgSQTmQrAlWAQdJPG3Eh6AbCfuQCO3ha8Y3zfz2kw/+G25Q/P16nu+7uqtuULFmmVT7irTXXlrbfrlD89uu2PDyyufJ8sMBdAznTR/8na56yay7PVlzXqznhFbZZv3SR1r5r751Sf3rztH2rdiaq/qrjy8/PmeXARAkxw0P8KgzHLpmx5g/6sR1SRLb/TIKUcgTbqX2vlPoWd1i/PP1BbpYz7r1x8NcLooYrBu6u7mlTnrB+d1k9L/bK1urvJr79ZTHlK9skX6P2qiEPA+/YFMDpiPbq72sXKoZe2Vhe5cqhR+UN5rwKLEWByQgQ4pJghrzcPhR5qUv75fIHKYpiOAIkXoJgDgIu5IAQorQD9ijoCyOMRIOEC9C5OgKkIkHABqooTYDoCJFyAkcUJECFAwgUYUpwAsgcCJFuAy4oUYG72f9X1mKuvv3FAl9k775b0PaLLY8NenXLaYATwW4BpqeIEmChEn84DZt3TOkNfXV2dkp+8/rDrv9RPf+CKPggQ5lXArptO7eWianf+q+a+MSMRwD8BukmLREf3QoCgpoINSE89CQHKWYDm88XaVxHAHwEi6YD6VxDAFwFecND/5hijXyGAHwKMk46I/ogAPggwXDoj/V0EcC9AL+mQrZUI4FqAIS4FkOmXEcCxAEIqpwo8gwCOBah3KoBS63sggFMBfuD2CKDUhp4I4FKA59wK0HwGuhgBXAowUrpmCgK4FMDNZHDulQBjALcCHO1YgJsQwK0AnR0PAU5DALcC9FMuh4FqA/MAjgUQdU4F+AkCuBZgscP+fySXIIBrAYSsdWfAj5kKdi/Axw6HgGMRwL0Abzm7IaQauBvogQCi0dkw8DAE8EGA2a4E2MQDIV4I4Gw6+CgE8EOAR5wMAJTBGqQIEIsATg4BupOArgQo8jNxJRNgVJwC3OLiANDBQACjp5iP3F09w2Q7hxcnwF9aq4eZbPs/WsuNvpG5tNBgo5R1AxoM+i+eNLlk7be7usJkO1dmf327Qfmq1uq7TCZKTsopV/rlvQsNdpH1W0LpShMBRJ3+L72UrX5cpnQjbMr5ce3FX1NtdnOjvgBzcn59nf6uazxzW297PniY4cthTc2x6hDNz62+M9KqlnJH2/smGb0fT0XLi9h22dT2Dbr+uuXvaeTa3Wr3U3KS8fuhA487UIPz9iw/T6f6uL0OU1/X+fXjpu1RXVnctlcUV94+/7J6D4AFZ7zjJatXgJUE7hfj0zbPANFYEveJqj9HNm8IKjmKzD1iaJPtGaCnCN0bJq+zfPXX3P+/ErsfHHVryyJYlieAPpK/JnkPOG3x9Eg6eCBcseSsa3oc8/LqGumMp+mAs84feeyhX77f7auA0Zh8W9m118Q/dISSMvu2ay5O7z4CO3wLRMn0o3m6f/bO7UxVQylJST9Qm7/Vbvsr/yMhZPI8ATYmIqKQifJ8FvBHRBQw21Qmz+IhbyhSChelfptn8D9RVhNTuGzcP9/FH+f/kM/+K/LOUfyblEI9+Ocd/LfQSzICCJX15xQwSbmWnAKl/8JCJqnvIKggj/3RiJmF3aV4jbhCPPYfXPBtqlmkFdzA/77jNe5T/pDAgiEllYpGDNK7Uf0lcgvob/8I/a8+/I3Ywuj9dcOPN3pU5UyyS9T4vra25UXSln92P1QY3TOuwwHmL/twCkiWABt+87PvNLN6XN9TT+jwjUGHVBX7sNoNhJoo/lnqpxW/ykRwomZ4epdagOcRIFEzPCV/Xvl1BEjQAUC9VXIBXiDWBAnQWPo3Fs4i1gTxbukFuJRUEzQE7Fd6Aa4j1+RwbQwvrT1OrMlhbgwCvMdVQGL4II7XVmchQGJ4OA4BTiXXpBDP5/0eINikcE0sAkzlFJCUa8ADYxFgHgIkRID1sfRfrCTahDAoHgHWkGwyyMT09aJHiTYZLI5JgJFEm4gRQDqu75e9T7iJYEJsX7D7kHCTQEVsApBtEpgUW/+trlYCppNAC+MTYBP5+i9AXYxfsb2YfP0/AAyKUYBbCNh74jwAiBXcDPD+APBOnAKMQQDfaYiz/2IsAftO91gFmJYiYb+piXkxCxL2nIkxC/ABEXs9BMzE3H9xNCF7zSVxCzCcjH0+AKTj7r/oSco+CzAhdgH6kLLHxH8A4DLAa1ZYEIAFI/wlY6H/4nVy9paDbAgwjpx9pcZG/8X3uB3kK0OtCDCIoD1li5X+i94k7SlP2hGAy4AyngPgsUCPedGWAI+RtY+stdV/cSyXAf6h5FJrAixj7UgPuVbY478I4B1RN4sC1CCAdzxisf9iEQKU7wiwhesRwLcR4DCrAgwmcs8EqBN2YS7QM75mWYALidwrJlnuv3iWQYBPbLTdf/FNQveHlDzXugAMAryaA7Lff3ERsfvDXAcC8NFwfzjcQf/FQoUBnpARTliHAJ4wz40AdyOAH9S46b+4kuj9uAKodCRAV7L3gkuEKzKcAzygyVn/xdkI4MEJoJM7AQZxIeieg4VDuBAs1ymAXbxNA8r4BNDM3+mAU2rlaKf9F8vogUvUto+FY2rogksB/ue6/2I+XXDYf9XZuQDLaYNDAZ4R7uEc4I4tHvRfTKAPzq4AL/BBgCFMBrpiovCC9Qjghhv86L84AgHKdwDQwky+FFG+A4CdNCCA/QtAeYY3/Rfv0g/7zPGn/2Ia7bD+979d+MRWWmKZRq/6L75IRywPAK/ySwCRpidWGe1Z/8Xt9MTmAOA63/ovZtIWa6TkOuEfDAMtDgA87L/oxWygLTJLfBSAO0LW/v77eNl/MRoBrAwA1VDhKXwvyEr/n/K1/+Im2mNBgDeEv3AIiP/v/6ce91/8ng7Fzd0+919cToNingDcLvzmbpoUK3We91/M+H979xISVRQHYPxP5MIKcnpZTUo5CZVG9sACrSSowKzondAie9DDNpFGRQVZEUIvImgT9IBqU9QioogWLVq1bhX35pnRIjVtcrJoEalTiajlzNzROed8v50rZb5z7zn33LlXGiVTq6S8R1RKnuDo1B8APCWWxP4ZooEsQlndXzLYC7C6v8gZWlndX0TVkcv7/mO06S9jyeX5/o9O/XlbgPcD4NtonfrLPL4a5K2waKaREeDl+b9Bt/5yineHeqY9ZV4BEIuTDACPvHMvio5YB3p0/nc3aNlfjtHOG1WiqelMAh4I+UVb9eRLfPtnvb79eVw88QEQEa0d592BibkgmvvIAEjEA937y1UiJrD8myf6e/Cec0Cc039brZigkWVAfErFDJmfGADxeCimOMYpIHb1JWKO2/SMdfenQYxyk68GxOaFGOYDTWPZ/N1tWn85xE0B+1b/PazjSZEBHv7qvBiJ20IDE8kQQ01lITiAw3+ZmGsD2wH/01wrwgiwltGHf5fX7e/J3K/WvWK8LDL3e/gvEBscddpp3ZfpmWKHjbTupc5p9Yk1XhK817XfVLHJQ5r3yO82jxG7FCguB//kd93GG2KdAF8R+uPjZbFR7RfSdwo9E1udtv7GQMfa74xY7J71k3/pYbHagZDNR79zK1esF7Z3BNxaQ/4OZ5WdK4GiAO2j1tn40FDWLMJ3e+HaNferwnSi95Br00og9JjgvZWHLJkH6lcSu2/DbMjf4CN0vyYEHbPPAupeHpX/aXbE2AHgOsFyAv/fprCR8R31ahJxB8b/1TFsY8h1P7Dwi0V+qWvWzM+WX6y2lClDjn0nuJqccZlbr3181wnPIWT8AjVK52WfE1m7kIgJKgjruiCMvM0knxeyz7e5rmbbQ+r+fup7aG9Os0ZDILhkPsk8t3Bzgxb1f67lNm/S+O6q6IVV6un697gt5xYTKcn2nShqSrEVQfSvUXt2UWeQLL5+JaWuDpuOLGDSH2zVE2cqp25ITwRdv/x7zfNqagzVdODbsXMo/je9G9Wyff82Igz9KPA/O6oGbWUYHW6fCytnjOejTyHTRhXnrFLJP+erJ0svb1rE552q8krSlqxS37rvw3m1xHfU1j0jpgSm8RHrsWeU709bdre1yYlzJLh/rzPV8aqcNF9+Np+pnjK3LX96Z+TBssKKntPDj77v2//exq+YWZZTWVyyfAK7+WaZnJ1eHbg23O8b1+nSiKg3Ezt+WOHfNSk3dxZHOgAAAAAAAAAAAAAAAAAAAAAAAAAAAAAAAAAAAAAAAAAAAAAAAAAAAAAAAAAAAAAAAAAAAAAAGBS/AJwej1ELdZhYAAAAAElFTkSuQmCC;" parent="1" vertex="1">
                    <mxGeometry x="771" y="1129" width="25" height="25" as="geometry"/>
                </mxCell>
                <mxCell id="244" value="" style="shape=image;verticalLabelPosition=bottom;labelBackgroundColor=default;verticalAlign=top;aspect=fixed;imageAspect=0;image=data:image/png,iVBORw0KGgoAAAANSUhEUgAAAgAAAAIACAMAAADDpiTIAAAACXBIWXMAAAsTAAALEwEAmpwYAAADAFBMVEVHcEwbluEnk+slluomk+YfjuYbkeYkku8gku4VlvIgk+sck+oejeUfjeYQkeQRessRi8silOkUedIkku8blekSjeoMkuwRaKUclukmkucvg8QZkuwglOkglukAgegejuEgku6NJyEnkOslj+Ugk+oikOYlluooiNgjlOogkuoghuQDjN4Ylekake4WlvElj+kfkukfjugckusRj+Elj+wgjugeluonj/cKkeAfjeYlj+kfk+shj+UgkukikOsgku4jk+odlOoek+sjlOsmkOwSkuEakukgjecbk+kfk+sjk+oik+okkesikOgVk+kfkusZl/IZku4Fh/Mkk+0il+0ckecljuYZg/Ufluskkuonk+sal+kKivMskegBk+Mgkuojkusjk+skk+8kk+oolOYRjucik+4fkuscjeIblfIdk+wkj+gWku0blekUj+gJleogi+omkewgkukIf+UhlOsQit0AlNIQj+Qkkuoikuskk+4gkewik+sXleokkeselukKitwZkOcclOofl+kikuokkuYllusdlOwhku4Aj9snkewWkeggkuohk+okl+ogk+sljucgluomlukjjeojku0gkOoSkOUPkeUllekfj+gkke4NjOclj+0eluosj+kakfAfleokk+kkkOkmkOokluokjegekuomkuofkOglkOsfk+wil+ofkuoeluoikuwek+kdlukfk+oblvAgk+ojkucgk+ggk+4elOkmi+obk+4alusak+odkuwlk+oglukbkeYnk+wfluskk+oKkOMZj+0lk+oakOkfleoal+kblucgk+okl+skluohluwAW+8kke4ekesbk+4jl+kek+ojl+kkkuglku4nkuogku0fjOoQjOQak+gfkesjlu4hlu4hluwjluwfk+4fk+kgk+sjkusgkusjlO4kkusek+sklukjluskluokkuomlushk+sfluokkukgkukjku0jk+sllukflushlO4jlu0flu4jk+ojle4el+kik+olk+ofk+omlOty4qXMAAAA3XRSTlMANdiDQnZBkqUZfYYxdz0HDFYJk2kVIQNoQwVVWOoOK6YBlCz8LoUMR8MdIzRRG2tzgmY4i0C/EB14gu9kO5+jTaSaj5o2U3V78fTfrmA2gh0kGc7XSncW3Ifazx4xG3ar65HkQEJkohoaWnxeYTInSZ5xDLAmETr23F1X7nC8uRgprvezjIyWpxKmTIX44X96tuaJVKhFP4d/qS+J0TNa7P7Bo+Ntx7p3Yt60ysvovv3iTdegZum3UZCPX23J5ULUx70tT8ZD9L5XjNy92gmPupKrzah+1cL5dj14iJG90wwAABBXSURBVHja7J0JkFTFHYfbRCReWViygIAcioCgAlERCAQVVFDxBlSEEAhgNKCACWppAiqeUaOClnfFo1KGlBU1Jim1jIkGo7HMWbkq3TtvZ9jNLocLBARNNtlF2JkF3Jnumdfdr+f7qiyrrPo77/3+377Xr9/RQgAAAAAAAAAAAAAAAAAAAAAAAAAAAAAAAAAAAAAAAAAAAAAAAAAAAAAAAAAAAAAAAAAAAAAAAAAAAAAAAAAAAAAAAAAAAAAAAOxF93sP0uDcK0gsKM6pV1ILVdeJ1AKiUekKIBtILRwWSM3+txhwFbkFwyhpwInkFgwdTAQ4gNwQABAAEAAQABAAEAAQABAAEAAQABAAEAAQABAAEAAQABAAEAAQABAAEAAQABAAEAAQABAAEAAQABAAEAAQABAAEAAQABAAEAAQABAAYuIrfCewvFlpIsAycguHGt3u18q3SS0glm2WSgcpbya0sOhz2P4arLmMxAAAAAAAAAAAAMxYcEKXjgXTZfwZe5Q/OFqjvGOXK99sW36j1q+fMI9+lZjKzVJWa6Dkhgdz65ukVFrl8jM51Us3K53q6mq55SR6VlJ26K7dqNSGnPLbtO/mKvXzbHm9/t3gJnpWSkZKgw6+lq3PGNzQH9FaPVkp/fLldK2EPGHQQDUgW29SflFrNSuHOmc/kw5+Nltv8BessoMAnglEAARAAARAAARAAARAAARAAARAAARAAN8EOPY5BChrATJy7TkIUL4C9G/52TkIUK4C3PvJLbD0eAQoSwEqol3bLTdejQBlKEBdzm8fjgBlJ8ArbZ6YqTkZAcpLgKpoj5//EwKUlQA7An8mDQHa59l97GDmZAQoGwEy+9zBUxCgTAQ45VO24SIEKAsBKqN9b8I2eSYClIMAkz59K9YiQPgCHNPeZnyAAMEL0P5XDOsQIHABxra/G3IjAoQtwLp8O9eEACEL8ET+12bXIkDAAkwqYFtuQIBgBehdyK6oCxEgVAHuLGhf1CoECFSAdIG7djUCBCnA0EL3ph4BghRgU4F7ptRmBAhQgCGF7458HAHCE2B+4dtTK3siQHACaH38qh4BQhNgqdYOJflpcQTYJ/dpblOv8hJgQPACpDW3qTGxAiw0acHo4gTIPlDn68qhT+h+PVU+klQBBho0UL5qOFjaxerW6tP1i2vlBfGnskjb66hTUg14Xrv/KvdRmC/o6xNVZcu3ave/1sbKkTX6Yn5fJNgAvbU7Gwbmlo+P9Nb+VI25HxuvyGj9urSzcugSk8Pii4k1oOpEncU7f3H+XpdMOuWH7fmljfPX6FQ/dIGNRN4xOK+lIgGh8G2DoW1Kdia4UNigTK5OthJcICyRRgLIKUQXBlOkGXVEFwYPmPVfyRlkFwRnGR4BctbCgSQTmQrAlWAQdJPG3Eh6AbCfuQCO3ha8Y3zfz2kw/+G25Q/P16nu+7uqtuULFmmVT7irTXXlrbfrlD89uu2PDyyufJ8sMBdAznTR/8na56yay7PVlzXqznhFbZZv3SR1r5r751Sf3rztH2rdiaq/qrjy8/PmeXARAkxw0P8KgzHLpmx5g/6sR1SRLb/TIKUcgTbqX2vlPoWd1i/PP1BbpYz7r1x8NcLooYrBu6u7mlTnrB+d1k9L/bK1urvJr79ZTHlK9skX6P2qiEPA+/YFMDpiPbq72sXKoZe2Vhe5cqhR+UN5rwKLEWByQgQ4pJghrzcPhR5qUv75fIHKYpiOAIkXoJgDgIu5IAQorQD9ijoCyOMRIOEC9C5OgKkIkHABqooTYDoCJFyAkcUJECFAwgUYUpwAsgcCJFuAy4oUYG72f9X1mKuvv3FAl9k775b0PaLLY8NenXLaYATwW4BpqeIEmChEn84DZt3TOkNfXV2dkp+8/rDrv9RPf+CKPggQ5lXArptO7eWianf+q+a+MSMRwD8BukmLREf3QoCgpoINSE89CQHKWYDm88XaVxHAHwEi6YD6VxDAFwFecND/5hijXyGAHwKMk46I/ogAPggwXDoj/V0EcC9AL+mQrZUI4FqAIS4FkOmXEcCxAEIqpwo8gwCOBah3KoBS63sggFMBfuD2CKDUhp4I4FKA59wK0HwGuhgBXAowUrpmCgK4FMDNZHDulQBjALcCHO1YgJsQwK0AnR0PAU5DALcC9FMuh4FqA/MAjgUQdU4F+AkCuBZgscP+fySXIIBrAYSsdWfAj5kKdi/Axw6HgGMRwL0Abzm7IaQauBvogQCi0dkw8DAE8EGA2a4E2MQDIV4I4Gw6+CgE8EOAR5wMAJTBGqQIEIsATg4BupOArgQo8jNxJRNgVJwC3OLiANDBQACjp5iP3F09w2Q7hxcnwF9aq4eZbPs/WsuNvpG5tNBgo5R1AxoM+i+eNLlk7be7usJkO1dmf327Qfmq1uq7TCZKTsopV/rlvQsNdpH1W0LpShMBRJ3+L72UrX5cpnQjbMr5ce3FX1NtdnOjvgBzcn59nf6uazxzW297PniY4cthTc2x6hDNz62+M9KqlnJH2/smGb0fT0XLi9h22dT2Dbr+uuXvaeTa3Wr3U3KS8fuhA487UIPz9iw/T6f6uL0OU1/X+fXjpu1RXVnctlcUV94+/7J6D4AFZ7zjJatXgJUE7hfj0zbPANFYEveJqj9HNm8IKjmKzD1iaJPtGaCnCN0bJq+zfPXX3P+/ErsfHHVryyJYlieAPpK/JnkPOG3x9Eg6eCBcseSsa3oc8/LqGumMp+mAs84feeyhX77f7auA0Zh8W9m118Q/dISSMvu2ay5O7z4CO3wLRMn0o3m6f/bO7UxVQylJST9Qm7/Vbvsr/yMhZPI8ATYmIqKQifJ8FvBHRBQw21Qmz+IhbyhSChelfptn8D9RVhNTuGzcP9/FH+f/kM/+K/LOUfyblEI9+Ocd/LfQSzICCJX15xQwSbmWnAKl/8JCJqnvIKggj/3RiJmF3aV4jbhCPPYfXPBtqlmkFdzA/77jNe5T/pDAgiEllYpGDNK7Uf0lcgvob/8I/a8+/I3Ywuj9dcOPN3pU5UyyS9T4vra25UXSln92P1QY3TOuwwHmL/twCkiWABt+87PvNLN6XN9TT+jwjUGHVBX7sNoNhJoo/lnqpxW/ykRwomZ4epdagOcRIFEzPCV/Xvl1BEjQAUC9VXIBXiDWBAnQWPo3Fs4i1gTxbukFuJRUEzQE7Fd6Aa4j1+RwbQwvrT1OrMlhbgwCvMdVQGL4II7XVmchQGJ4OA4BTiXXpBDP5/0eINikcE0sAkzlFJCUa8ADYxFgHgIkRID1sfRfrCTahDAoHgHWkGwyyMT09aJHiTYZLI5JgJFEm4gRQDqu75e9T7iJYEJsX7D7kHCTQEVsApBtEpgUW/+trlYCppNAC+MTYBP5+i9AXYxfsb2YfP0/AAyKUYBbCNh74jwAiBXcDPD+APBOnAKMQQDfaYiz/2IsAftO91gFmJYiYb+piXkxCxL2nIkxC/ABEXs9BMzE3H9xNCF7zSVxCzCcjH0+AKTj7r/oSco+CzAhdgH6kLLHxH8A4DLAa1ZYEIAFI/wlY6H/4nVy9paDbAgwjpx9pcZG/8X3uB3kK0OtCDCIoD1li5X+i94k7SlP2hGAy4AyngPgsUCPedGWAI+RtY+stdV/cSyXAf6h5FJrAixj7UgPuVbY478I4B1RN4sC1CCAdzxisf9iEQKU7wiwhesRwLcR4DCrAgwmcs8EqBN2YS7QM75mWYALidwrJlnuv3iWQYBPbLTdf/FNQveHlDzXugAMAryaA7Lff3ERsfvDXAcC8NFwfzjcQf/FQoUBnpARTliHAJ4wz40AdyOAH9S46b+4kuj9uAKodCRAV7L3gkuEKzKcAzygyVn/xdkI4MEJoJM7AQZxIeieg4VDuBAs1ymAXbxNA8r4BNDM3+mAU2rlaKf9F8vogUvUto+FY2rogksB/ue6/2I+XXDYf9XZuQDLaYNDAZ4R7uEc4I4tHvRfTKAPzq4AL/BBgCFMBrpiovCC9Qjghhv86L84AgHKdwDQwky+FFG+A4CdNCCA/QtAeYY3/Rfv0g/7zPGn/2Ia7bD+979d+MRWWmKZRq/6L75IRywPAK/ySwCRpidWGe1Z/8Xt9MTmAOA63/ovZtIWa6TkOuEfDAMtDgA87L/oxWygLTJLfBSAO0LW/v77eNl/MRoBrAwA1VDhKXwvyEr/n/K1/+Im2mNBgDeEv3AIiP/v/6ce91/8ng7Fzd0+919cToNingDcLvzmbpoUK3We91/M+H979xISVRQHYPxP5MIKcnpZTUo5CZVG9sACrSSowKzondAie9DDNpFGRQVZEUIvImgT9IBqU9QioogWLVq1bhX35pnRIjVtcrJoEalTiajlzNzROed8v50rZb5z7zn33LlXGiVTq6S8R1RKnuDo1B8APCWWxP4ZooEsQlndXzLYC7C6v8gZWlndX0TVkcv7/mO06S9jyeX5/o9O/XlbgPcD4NtonfrLPL4a5K2waKaREeDl+b9Bt/5yineHeqY9ZV4BEIuTDACPvHMvio5YB3p0/nc3aNlfjtHOG1WiqelMAh4I+UVb9eRLfPtnvb79eVw88QEQEa0d592BibkgmvvIAEjEA937y1UiJrD8myf6e/Cec0Cc039brZigkWVAfErFDJmfGADxeCimOMYpIHb1JWKO2/SMdfenQYxyk68GxOaFGOYDTWPZ/N1tWn85xE0B+1b/PazjSZEBHv7qvBiJ20IDE8kQQ01lITiAw3+ZmGsD2wH/01wrwgiwltGHf5fX7e/J3K/WvWK8LDL3e/gvEBscddpp3ZfpmWKHjbTupc5p9Yk1XhK817XfVLHJQ5r3yO82jxG7FCguB//kd93GG2KdAF8R+uPjZbFR7RfSdwo9E1udtv7GQMfa74xY7J71k3/pYbHagZDNR79zK1esF7Z3BNxaQ/4OZ5WdK4GiAO2j1tn40FDWLMJ3e+HaNferwnSi95Br00og9JjgvZWHLJkH6lcSu2/DbMjf4CN0vyYEHbPPAupeHpX/aXbE2AHgOsFyAv/fprCR8R31ahJxB8b/1TFsY8h1P7Dwi0V+qWvWzM+WX6y2lClDjn0nuJqccZlbr3181wnPIWT8AjVK52WfE1m7kIgJKgjruiCMvM0knxeyz7e5rmbbQ+r+fup7aG9Os0ZDILhkPsk8t3Bzgxb1f67lNm/S+O6q6IVV6un697gt5xYTKcn2nShqSrEVQfSvUXt2UWeQLL5+JaWuDpuOLGDSH2zVE2cqp25ITwRdv/x7zfNqagzVdODbsXMo/je9G9Wyff82Igz9KPA/O6oGbWUYHW6fCytnjOejTyHTRhXnrFLJP+erJ0svb1rE552q8krSlqxS37rvw3m1xHfU1j0jpgSm8RHrsWeU709bdre1yYlzJLh/rzPV8aqcNF9+Np+pnjK3LX96Z+TBssKKntPDj77v2//exq+YWZZTWVyyfAK7+WaZnJ1eHbg23O8b1+nSiKg3Ezt+WOHfNSk3dxZHOgAAAAAAAAAAAAAAAAAAAAAAAAAAAAAAAAAAAAAAAAAAAAAAAAAAAAAAAAAAAAAAAAAAAAAAGBS/AJwej1ELdZhYAAAAAElFTkSuQmCC;" parent="1" vertex="1">
                    <mxGeometry x="771" y="1199" width="25" height="25" as="geometry"/>
                </mxCell>
            </root>
        </mxGraphModel>
    </diagram>
</mxfile>
